<svg xmlns="http://www.w3.org/2000/svg" xmlns:xlink="http://www.w3.org/1999/xlink" width="389" height="432.499" viewBox="0 0 389 432.499">
  <defs>
    <linearGradient id="linear-gradient" x1="-2.067" y1="1.132" x2="-2.059" y2="1.132" gradientUnits="objectBoundingBox">
      <stop offset="0" stop-color="#402002"/>
      <stop offset="0.162" stop-color="#402002"/>
      <stop offset="1" stop-color="#965c51"/>
    </linearGradient>
    <linearGradient id="linear-gradient-2" x1="-63.963" y1="919.597" x2="-63.379" y2="919.597" gradientUnits="objectBoundingBox">
      <stop offset="0" stop-color="#965c51"/>
      <stop offset="0.041" stop-color="#965c51"/>
      <stop offset="1" stop-color="#60371b"/>
    </linearGradient>
    <linearGradient id="linear-gradient-3" x1="-795.332" y1="8546.313" x2="-788.189" y2="8546.313" xlink:href="#linear-gradient-2"/>
    <linearGradient id="linear-gradient-4" x1="-169.88" y1="380.458" x2="-168.367" y2="380.458" xlink:href="#linear-gradient-2"/>
    <linearGradient id="linear-gradient-5" x1="-0.267" y1="1.074" x2="-0.263" y2="1.074" gradientUnits="objectBoundingBox">
      <stop offset="0" stop-color="#965c51"/>
      <stop offset="0.005" stop-color="#965c51"/>
      <stop offset="0.624" stop-color="#60371b"/>
      <stop offset="1" stop-color="#60371b"/>
    </linearGradient>
    <linearGradient id="linear-gradient-6" x1="-1.317" y1="1.1" x2="-1.311" y2="1.1" gradientUnits="objectBoundingBox">
      <stop offset="0" stop-color="#60371b"/>
      <stop offset="0.299" stop-color="#60371b"/>
      <stop offset="0.597" stop-color="#5d321a"/>
      <stop offset="0.904" stop-color="#572618"/>
      <stop offset="1" stop-color="#542117"/>
    </linearGradient>
    <radialGradient id="radial-gradient" cx="0.493" cy="0.508" r="0.506" gradientTransform="matrix(0.976, 0, 0, -1, -0.248, 27.426)" gradientUnits="objectBoundingBox">
      <stop offset="0" stop-color="#965c51"/>
      <stop offset="0.041" stop-color="#965c51"/>
      <stop offset="1" stop-color="#663433"/>
    </radialGradient>
    <radialGradient id="radial-gradient-2" cx="0.504" cy="0.497" r="0.44" gradientTransform="matrix(1.35, 0, 0, -1, 1.33, 10.759)" gradientUnits="objectBoundingBox">
      <stop offset="0" stop-color="#663433"/>
      <stop offset="0.046" stop-color="#663433"/>
      <stop offset="1" stop-color="#502524"/>
    </radialGradient>
    <radialGradient id="radial-gradient-3" cx="0.492" cy="0.507" r="0.47" gradientTransform="matrix(1.142, 0, 0, -1, 0.559, 11.585)" xlink:href="#radial-gradient"/>
    <linearGradient id="linear-gradient-7" x1="-10.278" y1="21.307" x2="-10.236" y2="21.307" xlink:href="#linear-gradient"/>
    <radialGradient id="radial-gradient-4" cx="0.498" cy="0.502" r="0.469" gradientTransform="matrix(1.149, 0, 0, -1, 2.865, 40.146)" xlink:href="#radial-gradient"/>
    <radialGradient id="radial-gradient-5" cx="0.501" cy="0.5" r="0.423" gradientTransform="matrix(1.528, 0, 0, -1, 13.289, 38.269)" xlink:href="#radial-gradient"/>
    <linearGradient id="linear-gradient-8" x1="-17.554" y1="35.878" x2="-17.49" y2="35.878" xlink:href="#linear-gradient"/>
    <linearGradient id="linear-gradient-9" x1="-24.147" y1="17.554" x2="-24.064" y2="17.554" xlink:href="#linear-gradient"/>
    <linearGradient id="linear-gradient-10" x1="-1.107" y1="1.237" x2="-1.095" y2="1.237" xlink:href="#linear-gradient-5"/>
    <linearGradient id="linear-gradient-11" x1="-15.078" y1="2.168" x2="-15.024" y2="2.168" gradientUnits="objectBoundingBox">
      <stop offset="0" stop-color="#2e1909"/>
      <stop offset="0.162" stop-color="#2e1909"/>
      <stop offset="1" stop-color="#593730"/>
    </linearGradient>
    <linearGradient id="linear-gradient-12" x1="-37.954" y1="10.493" x2="-37.818" y2="10.493" gradientUnits="objectBoundingBox">
      <stop offset="0" stop-color="#3e2415"/>
      <stop offset="0.299" stop-color="#3e2415"/>
      <stop offset="0.723" stop-color="#3b1f14"/>
      <stop offset="1" stop-color="#381913"/>
    </linearGradient>
    <linearGradient id="linear-gradient-13" x1="-11.993" y1="8.828" x2="-11.947" y2="8.828" xlink:href="#linear-gradient-12"/>
    <linearGradient id="linear-gradient-14" x1="-88.53" y1="23.314" x2="-88.203" y2="23.314" xlink:href="#linear-gradient-11"/>
    <linearGradient id="linear-gradient-15" x1="-31.292" y1="2.837" x2="-31.175" y2="2.837" xlink:href="#linear-gradient-12"/>
    <linearGradient id="linear-gradient-16" x1="-54.792" y1="17.726" x2="-54.593" y2="17.726" gradientUnits="objectBoundingBox">
      <stop offset="0" stop-color="#2d1b12"/>
      <stop offset="0.299" stop-color="#2d1b12"/>
      <stop offset="0.871" stop-color="#2b1711"/>
      <stop offset="1" stop-color="#2a1511"/>
    </linearGradient>
    <linearGradient id="linear-gradient-17" x1="-0.373" y1="2.887" x2="-0.369" y2="2.887" gradientUnits="objectBoundingBox">
      <stop offset="0" stop-color="#543c3b"/>
      <stop offset="0.107" stop-color="#543c3b"/>
      <stop offset="1" stop-color="#1c120f"/>
    </linearGradient>
    <linearGradient id="linear-gradient-18" x1="-1.583" y1="5.5" x2="-1.572" y2="5.5" gradientUnits="objectBoundingBox">
      <stop offset="0" stop-color="#7f6d6c"/>
      <stop offset="0.107" stop-color="#7f6d6c"/>
      <stop offset="1" stop-color="#554d4b"/>
    </linearGradient>
    <linearGradient id="linear-gradient-19" x1="-8.196" y1="2.074" x2="-8.163" y2="2.074" xlink:href="#linear-gradient-17"/>
    <radialGradient id="radial-gradient-6" cx="0.499" cy="0.507" r="1.666" gradientTransform="matrix(0.217, 0, 0, -1, -0.255, 7.242)" xlink:href="#linear-gradient-17"/>
    <radialGradient id="radial-gradient-7" cx="0.485" cy="0.48" r="2.178" gradientTransform="matrix(0.179, 0, 0, -1, -0.332, 9.099)" xlink:href="#linear-gradient-18"/>
    <linearGradient id="linear-gradient-20" x1="-6.606" y1="1.88" x2="-6.579" y2="1.88" xlink:href="#linear-gradient-17"/>
    <linearGradient id="linear-gradient-21" x1="-15.025" y1="4.516" x2="-14.967" y2="4.516" xlink:href="#linear-gradient-18"/>
    <linearGradient id="linear-gradient-22" x1="-10.492" y1="27.6" x2="-10.45" y2="27.6" gradientUnits="objectBoundingBox">
      <stop offset="0" stop-color="#886954"/>
      <stop offset="0.299" stop-color="#886954"/>
      <stop offset="0.65" stop-color="#856453"/>
      <stop offset="1" stop-color="#7f5951"/>
    </linearGradient>
    <linearGradient id="linear-gradient-23" x1="-9.867" y1="18.913" x2="-9.828" y2="18.913" xlink:href="#linear-gradient-18"/>
    <linearGradient id="linear-gradient-24" x1="-86.382" y1="38.772" x2="-86.034" y2="38.772" xlink:href="#linear-gradient-18"/>
    <radialGradient id="radial-gradient-8" cx="0.514" cy="0.493" r="0.386" gradientTransform="matrix(2.274, 0, 0, -1, 10.445, 15.635)" xlink:href="#radial-gradient"/>
    <radialGradient id="radial-gradient-9" cx="0.502" cy="0.499" r="0.416" gradientTransform="matrix(1.612, 0, 0, -1, 6.677, 31.605)" xlink:href="#radial-gradient"/>
    <linearGradient id="linear-gradient-25" x1="-27.655" y1="7.433" x2="-27.568" y2="7.433" xlink:href="#linear-gradient-5"/>
    <linearGradient id="linear-gradient-26" x1="-36.552" y1="13.661" x2="-36.437" y2="13.661" gradientUnits="objectBoundingBox">
      <stop offset="0" stop-color="#44160a"/>
      <stop offset="0.523" stop-color="#44160a"/>
      <stop offset="1" stop-color="#60371b"/>
    </linearGradient>
    <linearGradient id="linear-gradient-27" x1="-16.97" y1="13.417" x2="-16.917" y2="13.417" xlink:href="#linear-gradient-5"/>
    <radialGradient id="radial-gradient-10" cx="0.582" cy="0.452" r="0.482" gradientTransform="matrix(1.074, 0.276, 0.309, -0.961, -2.502, 23.271)" xlink:href="#radial-gradient"/>
    <linearGradient id="linear-gradient-28" x1="-9.847" y1="16.175" x2="-9.802" y2="16.175" xlink:href="#linear-gradient"/>
    <radialGradient id="radial-gradient-11" cx="0.451" cy="0.499" r="0.467" gradientTransform="matrix(1.11, -0.19, -0.215, -0.982, 5.401, 28.56)" xlink:href="#radial-gradient"/>
    <radialGradient id="radial-gradient-12" cx="0.461" cy="0.45" r="0.484" gradientTransform="matrix(1.004, 0.276, 0.288, -0.961, -5.35, 41.779)" xlink:href="#radial-gradient"/>
    <linearGradient id="linear-gradient-29" x1="-16.533" y1="31.512" x2="-16.468" y2="31.512" xlink:href="#linear-gradient"/>
    <linearGradient id="linear-gradient-30" x1="-17.085" y1="16.967" x2="-17.021" y2="16.967" xlink:href="#linear-gradient"/>
    <linearGradient id="linear-gradient-31" x1="-15.468" y1="6.123" x2="-15.411" y2="6.123" xlink:href="#linear-gradient-5"/>
    <linearGradient id="linear-gradient-32" x1="-31.544" y1="9.926" x2="-31.427" y2="9.926" xlink:href="#linear-gradient-26"/>
    <linearGradient id="linear-gradient-33" x1="-16.734" y1="10.265" x2="-16.676" y2="10.265" xlink:href="#linear-gradient-5"/>
    <radialGradient id="radial-gradient-13" cx="0.596" cy="0.444" r="0.555" gradientTransform="matrix(-0.54, -0.802, 0.725, -0.597, -20.319, 9.247)" xlink:href="#radial-gradient"/>
    <linearGradient id="linear-gradient-34" x1="-10.566" y1="12.399" x2="-10.513" y2="12.399" xlink:href="#linear-gradient"/>
    <radialGradient id="radial-gradient-14" cx="0.592" cy="0.418" r="0.546" gradientTransform="matrix(-0.584, -0.802, 0.785, -0.597, -35.337, 15.457)" xlink:href="#radial-gradient"/>
    <radialGradient id="radial-gradient-15" cx="0.677" cy="0.553" r="0.418" gradientTransform="matrix(-0.957, -0.802, 1.287, -0.597, -53.609, 8.69)" xlink:href="#radial-gradient"/>
    <linearGradient id="linear-gradient-35" x1="-16.793" y1="18.072" x2="-16.71" y2="18.072" xlink:href="#linear-gradient"/>
    <linearGradient id="linear-gradient-36" x1="-15.468" y1="13.641" x2="-15.391" y2="13.641" xlink:href="#linear-gradient"/>
    <linearGradient id="linear-gradient-37" x1="-7.364" y1="8.664" x2="-7.333" y2="8.664" xlink:href="#linear-gradient-5"/>
    <linearGradient id="linear-gradient-38" x1="-10.918" y1="18.363" x2="-10.871" y2="18.363" xlink:href="#linear-gradient-26"/>
    <linearGradient id="linear-gradient-39" x1="-8.457" y1="16.73" x2="-8.42" y2="16.73" xlink:href="#linear-gradient-5"/>
    <radialGradient id="radial-gradient-16" cx="0.495" cy="0.505" r="0.506" gradientTransform="matrix(0.976, 0, 0, -1, -0.126, 21.836)" xlink:href="#radial-gradient"/>
    <linearGradient id="linear-gradient-40" x1="-5.215" y1="16.829" x2="-5.174" y2="16.829" xlink:href="#linear-gradient"/>
    <radialGradient id="radial-gradient-17" cx="0.502" cy="0.498" r="0.469" gradientTransform="matrix(1.149, 0, 0, -1, 1.591, 32.136)" xlink:href="#radial-gradient"/>
    <radialGradient id="radial-gradient-18" cx="0.5" cy="0.5" r="0.423" gradientTransform="matrix(1.528, 0, 0, -1, 7.75, 30.884)" xlink:href="#radial-gradient"/>
    <linearGradient id="linear-gradient-41" x1="-9.715" y1="28.527" x2="-9.651" y2="28.527" xlink:href="#linear-gradient"/>
    <linearGradient id="linear-gradient-42" x1="-14.082" y1="14.165" x2="-14" y2="14.165" xlink:href="#linear-gradient"/>
    <linearGradient id="linear-gradient-43" x1="-10.152" y1="7.103" x2="-10.065" y2="7.103" xlink:href="#linear-gradient-5"/>
    <linearGradient id="linear-gradient-44" x1="-13.373" y1="12.999" x2="-13.258" y2="12.999" xlink:href="#linear-gradient-26"/>
    <linearGradient id="linear-gradient-45" x1="-9.282" y1="13.783" x2="-9.229" y2="13.783" xlink:href="#linear-gradient-5"/>
    <radialGradient id="radial-gradient-19" cx="0.654" cy="0.48" r="0.594" gradientTransform="matrix(-0.729, -0.613, 0.566, -0.79, -22.126, 27.015)" xlink:href="#radial-gradient"/>
    <linearGradient id="linear-gradient-46" x1="-6.974" y1="25.855" x2="-6.928" y2="25.855" xlink:href="#linear-gradient"/>
    <radialGradient id="radial-gradient-20" cx="0.624" cy="0.467" r="0.499" gradientTransform="matrix(-0.86, -0.613, 0.667, -0.79, -35.416, 36.563)" xlink:href="#radial-gradient"/>
    <radialGradient id="radial-gradient-21" cx="0.661" cy="0.553" r="0.391" gradientTransform="matrix(-1.537, -0.613, 1.193, -0.79, -61.031, 27.637)" xlink:href="#radial-gradient"/>
    <linearGradient id="linear-gradient-47" x1="-10.725" y1="34.207" x2="-10.653" y2="34.207" xlink:href="#linear-gradient"/>
    <linearGradient id="linear-gradient-48" x1="-12.374" y1="19.122" x2="-12.287" y2="19.122" xlink:href="#linear-gradient"/>
    <linearGradient id="linear-gradient-49" x1="-12.066" y1="3.584" x2="-12.011" y2="3.584" xlink:href="#linear-gradient-5"/>
    <linearGradient id="linear-gradient-50" x1="-13.012" y1="6.5" x2="-12.952" y2="6.5" xlink:href="#linear-gradient-26"/>
    <linearGradient id="linear-gradient-51" x1="-8.951" y1="8.893" x2="-8.898" y2="8.893" xlink:href="#linear-gradient-5"/>
    <radialGradient id="radial-gradient-22" cx="0.487" cy="0.514" r="0.506" gradientTransform="matrix(0.976, 0, 0, -1, -0.118, 11.051)" xlink:href="#radial-gradient"/>
    <linearGradient id="linear-gradient-52" x1="-4.975" y1="8.192" x2="-4.934" y2="8.192" xlink:href="#linear-gradient"/>
    <radialGradient id="radial-gradient-23" cx="0.502" cy="0.499" r="0.469" gradientTransform="matrix(1.149, 0, 0, -1, 1.531, 16.683)" xlink:href="#radial-gradient"/>
    <radialGradient id="radial-gradient-24" cx="0.502" cy="0.498" r="0.423" gradientTransform="matrix(1.528, 0, 0, -1, 7.486, 16.63)" xlink:href="#radial-gradient"/>
    <linearGradient id="linear-gradient-53" x1="-9.339" y1="14.337" x2="-9.275" y2="14.337" xlink:href="#linear-gradient"/>
    <linearGradient id="linear-gradient-54" x1="-13.6" y1="7.627" x2="-13.518" y2="7.627" xlink:href="#linear-gradient"/>
    <linearGradient id="linear-gradient-55" x1="-16.544" y1="2.906" x2="-16.457" y2="2.906" xlink:href="#linear-gradient-5"/>
    <linearGradient id="linear-gradient-56" x1="-21.844" y1="4.583" x2="-21.729" y2="4.583" xlink:href="#linear-gradient-26"/>
    <linearGradient id="linear-gradient-57" x1="-8.084" y1="11.6" x2="-8.031" y2="11.6" xlink:href="#linear-gradient-5"/>
    <radialGradient id="radial-gradient-25" cx="0.535" cy="0.432" r="0.541" gradientTransform="matrix(-0.253, -0.959, 0.854, -0.284, -24.164, 17.161)" xlink:href="#radial-gradient"/>
    <linearGradient id="linear-gradient-58" x1="-10.775" y1="18.403" x2="-10.71" y2="18.403" xlink:href="#linear-gradient"/>
    <radialGradient id="radial-gradient-26" cx="0.521" cy="0.407" r="0.583" gradientTransform="matrix(-0.237, -0.959, 0.801, -0.284, -39.573, 30.713)" xlink:href="#radial-gradient"/>
    <radialGradient id="radial-gradient-27" cx="0.5" cy="0.5" r="0.423" gradientTransform="translate(-27.231 17.934) rotate(180) scale(1.528 1)" xlink:href="#radial-gradient"/>
    <linearGradient id="linear-gradient-59" x1="-17.21" y1="28.539" x2="-17.112" y2="28.539" xlink:href="#linear-gradient"/>
    <linearGradient id="linear-gradient-60" x1="-10.327" y1="8.226" x2="-10.245" y2="8.226" xlink:href="#linear-gradient"/>
    <linearGradient id="linear-gradient-61" x1="-8.719" y1="3.179" x2="-8.632" y2="3.179" xlink:href="#linear-gradient-5"/>
    <linearGradient id="linear-gradient-62" x1="-11.951" y1="5.129" x2="-11.836" y2="5.129" xlink:href="#linear-gradient-26"/>
    <linearGradient id="linear-gradient-63" x1="-4.827" y1="6.745" x2="-4.774" y2="6.745" xlink:href="#linear-gradient-5"/>
    <radialGradient id="radial-gradient-28" cx="0.562" cy="0.423" r="0.554" gradientTransform="matrix(-0.384, -0.899, 0.788, -0.439, -11.42, -0.789)" xlink:href="#radial-gradient"/>
    <linearGradient id="linear-gradient-64" x1="-9.437" y1="3.584" x2="-9.376" y2="3.584" xlink:href="#linear-gradient"/>
    <radialGradient id="radial-gradient-29" cx="0.55" cy="0.365" r="0.603" gradientTransform="matrix(-0.369, -0.899, 0.756, -0.439, -19.961, 0.993)" xlink:href="#radial-gradient"/>
    <radialGradient id="radial-gradient-30" cx="0.6" cy="0.555" r="0.454" gradientTransform="matrix(-0.534, -0.899, 1.094, -0.439, -26.069, -0.516)" xlink:href="#radial-gradient"/>
    <linearGradient id="linear-gradient-65" x1="-14.664" y1="6.566" x2="-14.572" y2="6.566" xlink:href="#linear-gradient"/>
    <linearGradient id="linear-gradient-66" x1="-10.514" y1="6.753" x2="-10.449" y2="6.753" xlink:href="#linear-gradient"/>
    <linearGradient id="linear-gradient-67" x1="-8.678" y1="3.558" x2="-8.609" y2="3.558" xlink:href="#linear-gradient-5"/>
    <linearGradient id="linear-gradient-68" x1="-10.403" y1="5.719" x2="-10.35" y2="5.719" xlink:href="#linear-gradient-5"/>
  </defs>
  <g id="Grupo_8384" data-name="Grupo 8384" transform="translate(-347 -1694.501)">
    <circle id="Elipse_539" data-name="Elipse 539" cx="194.5" cy="194.5" r="194.5" transform="translate(347 1738)" fill="#fed97b"/>
    <g id="Grupo_8377" data-name="Grupo 8377" transform="translate(330.963 1660.089)">
      <path id="Trazado_12488" data-name="Trazado 12488" d="M335.79,292.142a164.608,164.608,0,0,1-47.842,6.893c-.586,0-1.164-.005-1.75-.012.009.228.014.411.014.543,0,2.4-2.877,2.877-2.877,2.877v3.017c4.958,6.248,8.987,15.036,11.4,24.867,2.425,10.581,2.473,22.526-2.5,33.4a4.536,4.536,0,0,1-6,2.2,4.5,4.5,0,0,1-2.226-6c3.892-8.449,4.026-18.373,1.9-27.591a54.108,54.108,0,0,0-4.389-12.569,79.287,79.287,0,0,1,1.726,11.539c.624,10.025-.958,20.869-6.477,30.294a39.762,39.762,0,0,0,5.661,4.2,10.493,10.493,0,0,1-2.872.438,4.389,4.389,0,0,1-3.168-1.072c-.4-.4-.791-.789-1.152-1.149a4.519,4.519,0,0,1-2.4,1.641v5.009c0,3.2-3.464,3.464-3.464,3.464S271.6,382.2,271.6,387.2s-6.539,3.48-3.622,6.4c2.4,2.4,5.549,7.791,4.749,7.791-.173,0-.533-.254-1.126-.847a6,6,0,0,0-4.366-1.487,13.278,13.278,0,0,0-1.864.14v.031s4.269,2.7,8.039,2.7a5.1,5.1,0,0,0,3.739-1.383c3.765-3.748,10.566-3.748,13.062-3.748s7.847-3.33,7.847-5.343,11.049-2.853,14.933-6.737a2.464,2.464,0,0,1,1.612-.905c2.28,0,2.28,7.008,2.28,7.008s3.345-7.49,1.68-12.222c-1.68-4.732-5.288-9.725-5.288-12.23s6.659-3.321,7.776-10.272a130.144,130.144,0,0,0,1.11-16.669,8.093,8.093,0,0,0,3.517,1c1.546,0,3.139-.743,3.711-3.511,1.252-5.968-.832-15.559-.832-15.559s7.229-10,7.229-14.172V292.142m-49.251-15.71a.49.49,0,0,0-.328.172c-.554.554-.719,3.253-.7,6.627.789-.551,1.577-1.091,2.358-1.617-.343-2.786-.662-5.182-1.33-5.182m58.833-7.271c-3.042.092-25.338,1.318-53.668,20.773a154.256,154.256,0,0,0,44.854-7.512,4.432,4.432,0,0,1,1.415-.233,4.507,4.507,0,0,1,2.726.926c2.528-3.3,5.085-6.893,5.085-9.571v-4.367h-.029q-.192,0-.383-.016M363.12,128.424c2.259,5.659-4.827,16.2-4.827,20.085,0,3.9,2.085,11.8,2.085,11.8s-6.254-6.254-6.254-10.685c0-3.5-2.069-12.179-4.033-12.179-.529,0-1.052.632-1.524,2.168-2.219,7.229,2.219,21.4,2.219,26.4s0,10.55-1.934,15.559c-1.942,4.993,0,5.287,0,10.827,0,5.556-6.4,6.4-6.4,6.4s0,14.6-2.534,14.6a1.178,1.178,0,0,1-.8-.423c-2.468-2.474-1.5-6.4-2.709-6.4-.42,0-1.106.478-2.292,1.663-4.582,4.6,1.11,11.128,1.11,11.128s-8.33,0-8.33,2.5-5,1.657-5,4.716a8.17,8.17,0,0,1-2.782,6.4c-1.664,1.657-3.892,0-5.422,4.581a8.883,8.883,0,0,1-7.086,5.968c-1.118,0-3.337,5.842-4.447,5.842s-1.514,3.757-1.943,7.221a1.925,1.925,0,0,1-2.036,1.952,7.875,7.875,0,0,1-4.772-2.372,1.092,1.092,0,0,0-.784-.361c-2.028,0-4.506,6.276-3.529,9.952,1.118,4.161,0,6.666,0,10.835,0,1.019.085,2.488.19,4.068,30.065-19.765,53.69-20.555,56.31-20.555h.117l.071,0v-2.405s5.429-2.774,5.429-5.422a6.347,6.347,0,0,0-1.609-4.241s5.35-.911,5.35-5.35a9.991,9.991,0,0,0-2.354-6.8s8.338-4.859,8.338-8.33c0-3.488.9-4.383,2.14-5.628,1.26-1.26,6.048-3.694,6.048-7.308s2.5-10.558,2.5-10.558,4.859,1.657,4.859,4.859c0,.4.068.579.179.579.778,0,3.65-8.829-.179-12.651-4.383-4.375-.412-9.179-.412-14.465,0-5.271,2.219-38.616-1.672-42.508s-11.287-11.469-11.287-11.469" transform="translate(-23.664 -11.217)" fill="url(#linear-gradient)"/>
      <path id="Trazado_12489" data-name="Trazado 12489" d="M351.576,188.772s7.775-.547,7.775,5.018c0,0,3.33,6.1,1.669,10.83a66.128,66.128,0,0,0-3.056,14.734s-.83-3.9-2.366-2.376,3.2,6.545-.416,10.15a12.866,12.866,0,0,1-8.34,3.613s-1.668,5.555-4.441,8.339c-2.782,2.764-4.717,5.83-4.717,9.159s-6.943-.265-6.943-3.6-4.735,15.838-9.178,15.838c0,0-.556,5.838-5.838,5.838s-9.725,8.048-11.529,6.255-15.978,2.067-15.978-4.311,27.921-38.751,29.449-40.3C319.2,226.429,351.576,188.772,351.576,188.772Z" transform="translate(-26.39 -18.415)" fill="#331414"/>
      <path id="Trazado_12490" data-name="Trazado 12490" d="M213.981,50.571s12.226,7.65,12.226,9.939,3.128,2.711,3.957,3.55,4.586,5,4.586,8.126,4.381,10,5.212,10.83,7.286,9.8,9.8,9.8,3.127,6.677,3.127,8.762,13.957,7.58,13.957,14.169l-10.829,67.734-79.4,36.465L171.4,143.454s24.8-46.675,27.507-62.937S213.981,50.571,213.981,50.571Z" transform="translate(-12.451 -1.928)" fill="#331414"/>
      <path id="Trazado_12491" data-name="Trazado 12491" d="M111.142,129.638a4.015,4.015,0,0,1-1.509.336S110.293,129.841,111.142,129.638Z" transform="translate(-5.082 -11.362)" fill="url(#linear-gradient-2)"/>
      <path id="Trazado_12492" data-name="Trazado 12492" d="M111.469,129.6l-.123.036Z" transform="translate(-5.287 -11.357)" fill="url(#linear-gradient-3)"/>
      <path id="Trazado_12493" data-name="Trazado 12493" d="M112.872,189.4c0-.186-.247.123-.582.618C112.626,189.8,112.872,189.585,112.872,189.4Z" transform="translate(-5.399 -18.486)" fill="url(#linear-gradient-4)"/>
      <path id="Trazado_12494" data-name="Trazado 12494" d="M89.027,246.535c-1.243,2.2-2.555,4.457-1.775,5.243,1.355,1.347,4.391.048,3.7,3.7-.69,3.638-9.329,23.81-9.329,32.355,0,0-2.917,1.728-2.917,7.562s.555,6.959-2.5,12.8a22.233,22.233,0,0,0-1.95,12.484s-4.169,4.185-4.169,9.456c0,1.585.311,2.054.726,2.054a1.976,1.976,0,0,0,.978-.484c.328-.246.629-.489.826-.489.243,0,.328.367.109,1.552-.832,4.454-7.078,6.261-5.414,11.548,1.664,5.263,3.194,3.314,3.194,6.785,0,3.488-4.589,6.555-1.252,8.774s-.143,5.4,3.337,8.877,9.789,1.6,11.675,3.48c1.871,1.879,1.379,7.078,3.329,9.028,0,0,1.789-2.49,3.5-2.49a1.7,1.7,0,0,1,1.234.54c1.934,1.95,4.581,4.621,6.943,6.96,2.346,2.337,5.628,9.225,2.346,12.491-.714.716-.875,1.031-.668,1.031.737,0,6.141-4.005,7.825-8.189.564-1.4,1.881-1.946,3.567-1.946,4.765,0,12.478,4.382,14.434,6.337,2.639,2.639,5,2.639,7.49,2.639,2.513,0,6.206-3.686,6.206-3.686a25.323,25.323,0,0,1,5.2-.6c2.617,0,5.429.557,6.383,2.745.489,1.116.749,1.534.934,1.534.548,0,.394-3.746,3.513-3.746,4.177,0,5.834,3.6,10.843,3.6a27.679,27.679,0,0,0,9.171-1.657,12.4,12.4,0,0,0,11.1-3.067,20.206,20.206,0,0,0,7.6,1.624c.474,0,.955-.022,1.44-.07h0c6.222-19.11,15.163-38.014,20.251-69.671.926-5.75,3.064-19.614,6.817-35.809-31.743-1.855-70.533-15.422-98.369-26.9a237.905,237.905,0,0,0-4.181,30.666c-3,50.133,28.455,30.349,33.544,64.083,1.05,6.941-9.068,10.129-22,10.129-12.072,0-26.6-2.778-36.786-7.87-15.536-7.762-8.618-54.291,4.23-108.064-6.145-2.861-10.12-4.841-11.142-5.34m40.067-.8c-.638,2.7-1.255,5.407-1.84,8.079,4.594,1.908,9.506,3.884,14.641,5.861,17.755,6.816,38.18,13.638,57.462,17.669-27.585-8.492-51.947-20.782-70.264-31.61m-42.572-4.816a1.559,1.559,0,0,0-.307.859.845.845,0,0,0,.066.358,4.429,4.429,0,0,1,.241-1.217m6.82-19.6c-.032.35-.049.707-.049,1.072,0,0-5.2,5.414-3.115,10.424a4.719,4.719,0,0,1-.993,5.344,4.507,4.507,0,0,1,1.607-.3,4.554,4.554,0,0,1,2.056.493h0c.05,0,3.54,1.738,9.511,4.514,1.009-4.086,2.048-8.211,3.107-12.345-7.194-5.049-11.218-8.308-11.3-8.347v.016a4.581,4.581,0,0,1-.823-.874M257.1,108.393a1.833,1.833,0,0,0,.42.309c-.259-.195-.42-.309-.42-.309m-150.209,63.14c.265-.4.475-.675.55-.675.018,0,.029.018.029.056,0,.182-.246.4-.579.618M175.178,34.412a6.754,6.754,0,0,0-4.218,1.449,57.189,57.189,0,0,0-10.317-.886c-8.965,0-21.576,2-28.577,12.006,0,0,10.121-4.7,15.057-4.7,2.469,0,3.641,1.175,1.6,4.7-6.1,10.558-10.55,2.782-10.55,10.558,0,3.755-.973,4.727-1.979,4.727a3.882,3.882,0,0,1-2.19-1.112s-.1-.01-.269-.01c-1,0-4.359.359-2.934,5.36,1.664,5.842.428,5.842.428,5.842a20.691,20.691,0,0,0-5.208,13.126s-9.813,9.171-9.813,17.509c0,0-3.329,2.7-3.329,4.993,0,2-3.028,8.624-6.706,10.264a13.847,13.847,0,0,0,6.293-3.178c.348-.348.581-.5.724-.5,1.012,0-2.447,7.772-1.35,10.515,0,0-3.971,1.038-2.711,4.581s2.711,7.918,2.711,7.918h-.021c-.151,0-1.111.173-2.063,4.384-1.046,4.581-1.046,11.667-1.046,12.912s-3.123,8.124-5,8.124c-1.252,0-.324,1.254,1.27,1.254a3.818,3.818,0,0,0,2.7-1.254c.391-.391.645-.564.785-.564.86,0-2.628,6.571-4.954,8.91-.986.98-.746,1.331-.038,1.331a7.933,7.933,0,0,0,3.414-1.133c-1.506,2.251-5.842,10.375-7.554,13.966-2.077,4.383-2.077,13.134-4.161,15.218-1,1-.729,1.5.071,1.5a5.643,5.643,0,0,0,3.472-1.708c.221-.223.357-.326.425-.326.607,0-4.1,8.1-2.1,13.032a10.6,10.6,0,0,0-.847,1,4.523,4.523,0,0,1,3.653.937h0c.035,0,2.868,2.29,8.035,6,2.494-9.532,5.073-19.106,7.651-28.558C135.1,120.854,149.8,119.472,150.9,119.472c.044,0,.067,0,.067,0a8.562,8.562,0,0,1,1.9-.234c16.176,0-6.912,59.507-21.525,117.3,5.591,3.357,11.814,6.891,18.579,10.426,21.4,11.217,48.115,22.376,76.9,28.014a4.535,4.535,0,0,1,.749-1.778,9.75,9.75,0,0,0,.67-.827c4.364-15.175,10.107-30.607,17.512-42.276,18.658-29.4,37.943-65.066,40.7-83.106,4.137-27.139,1.126-37.348-6.27-48.508h0c-3.527,2.893-7.474,5.144-9.186,6.848-2.216,2.21-7.462,3.845-10.94,3.845a5.468,5.468,0,0,1-2.535-.476c1.081.809,3.876,3,3.876,4,0,1.252-22.082,7.094-21.52,8.751.555,1.672-13.958,1.894-15.892,3.828a1.461,1.461,0,0,1-1.07.508,3,3,0,0,1-.959-.223,3.193,3.193,0,0,0-1.017-.217c-.86,0-1.877.616-3.295,3.324-3.258,6.2-9.448,12.785-11.4,19.459s-14.093,22.526-17.152,25.586C186.02,176.8,175.97,198.7,175.97,198.7s7.332-23.668,12.825-38.775c5.509-15.139,17.081-31.269,16.074-34.027s-1.015-11.921-1.015-11.921,1.775-1.974,0-8.093.856-10.978-2.877-14.727c-3.749-3.749-6.19-13.11-3.749-15.551,2.425-2.433.69-6.666.69-8.893s.008-8.632,1.942-10.566c4.447-4.447-.412-7.134-.412-9.908,0,0-6.28-8.126-11.408-8.127a4.229,4.229,0,0,0-3.1,1.31s-4.766-5.015-9.764-5.016" fill="url(#linear-gradient-5)"/>
      <path id="Trazado_12495" data-name="Trazado 12495" d="M270.668,356.609q-.668,1.143-1.417,2.259-.055.081-.114.159c.361.36.749.746,1.152,1.149a4.389,4.389,0,0,0,3.168,1.072,10.492,10.492,0,0,0,2.872-.438,39.763,39.763,0,0,1-5.661-4.2m-3.83-39.067c-.073,1.048-.111,2.135-.107,3.265-.032,6.159.1,10.978.325,14.663.1,1.61.209,3.014.324,4.231a51.465,51.465,0,0,0,.746-12.831,52.632,52.632,0,0,0-1.288-9.328M241.3,296.055c-3.753,16.195-5.892,30.059-6.817,35.809-5.089,31.657-14.029,50.561-20.251,69.671h0a10.273,10.273,0,0,0,6.523-2.933,10.039,10.039,0,0,1,2.822-.428,4.923,4.923,0,0,1,3.575,1.26,4.557,4.557,0,0,0,3.041,1.515,1.741,1.741,0,0,0,1.818-1.935c0-1.675,1.885-3.281,3.777-3.281a3.061,3.061,0,0,1,2.207.919,5.539,5.539,0,0,0,3.9,1.207c2.59,0,5.56-.949,6.938-2.317a4.54,4.54,0,0,0,2.879,1.233,3.735,3.735,0,0,0,2.677-1.233,21.652,21.652,0,0,1,4.89-1.347,13.277,13.277,0,0,1,1.864-.14,6,6,0,0,1,4.366,1.487c.594.594.953.847,1.126.847.8,0-2.351-5.393-4.749-7.791-2.917-2.917,3.622-1.387,3.622-6.4s-2.227-13.062-2.227-13.062,3.464-.262,3.464-3.464v-5.009a4.682,4.682,0,0,1-.967.166c-.086.005-.172.007-.259.007a4.638,4.638,0,0,1-2.555-.776,4.5,4.5,0,0,1-1.2-6.285q.535-.79,1.022-1.611a4.521,4.521,0,0,1-2.884-2.676,4.637,4.637,0,0,1-.73.276,4.4,4.4,0,0,1-1.236.174,4.506,4.506,0,0,1-4.336-3.289c-.166-.587-1.015-3.923-1.015-13.4,0-3.955.135-8.972.563-15.258a64.01,64.01,0,0,1,4.672-19.374,5.057,5.057,0,0,0-.875-.6q-1.554-.989-2.864-1.937-2.98.184-6.061.185-3.295-.011-6.713-.212m31.994-2.227c-.158.647-.335,1.29-.528,1.933a34.286,34.286,0,0,1,4.471,4.7v-3.017s2.877-.476,2.877-2.877c0-.132-.005-.315-.014-.543q-3.412-.038-6.806-.2M313.345,86.56a3.616,3.616,0,0,0-2.648.908c-2.83,2.838-4.716,1.95-6.753,9.131-.9,3.178-3.424,5.834-6.2,8.108h0c7.4,11.16,10.407,21.369,6.27,48.508-2.758,18.04-22.043,53.708-40.7,83.106-7.406,11.668-13.149,27.1-17.512,42.276.041-.051.085-.1.13-.159a11.214,11.214,0,0,1,10.241-5.805c.355-.041.72-.07,1.094-.088h.1a12.165,12.165,0,0,1,4.668.978,9.9,9.9,0,0,1,4.9,3.255l-.012-.006c.145.139.29.28.432.426a13.663,13.663,0,0,1,.989,1.059c.375.29.747.6,1.111.93a13.573,13.573,0,0,1,2.927,3.515,28.88,28.88,0,0,0,4.515-2.675q1.263-.918,2.51-1.79c-.018-3.374.146-6.073.7-6.627a.49.49,0,0,1,.328-.172c.668,0,.987,2.4,1.33,5.182.476-.32.944-.631,1.417-.942-.106-1.58-.19-3.049-.19-4.068,0-4.169,1.118-6.674,0-10.835-.978-3.676,1.5-9.952,3.529-9.952a1.092,1.092,0,0,1,.784.361,7.875,7.875,0,0,0,4.772,2.372,1.925,1.925,0,0,0,2.036-1.952c.429-3.464.833-7.221,1.943-7.221s3.329-5.842,4.447-5.842a8.883,8.883,0,0,0,7.086-5.968c1.53-4.581,3.757-2.925,5.422-4.581a8.17,8.17,0,0,0,2.782-6.4c0-3.06,5-2.219,5-4.716s8.33-2.5,8.33-2.5-5.692-6.531-1.11-11.128c1.186-1.185,1.872-1.663,2.292-1.663,1.206,0,.241,3.929,2.709,6.4a1.178,1.178,0,0,0,.8.423c2.535,0,2.534-14.6,2.534-14.6s6.4-.84,6.4-6.4c0-5.54-1.942-5.834,0-10.827,1.934-5.009,1.934-10.558,1.934-15.559s-4.439-19.173-2.219-26.4c.471-1.536.994-2.168,1.524-2.168,1.964,0,4.033,8.677,4.033,12.179,0,4.431,6.254,10.684,6.254,10.684s-2.085-7.9-2.085-11.8c0-3.884,7.086-14.426,4.827-20.085h0c-2.267-5.659-2.885-14.656-5.382-16.051a25.9,25.9,0,0,1-4.407-3.123s-5.247-5.271-6.927-6.935-8.4-1.6-12.563-5.77c-2.163-2.159-3.726-2.679-4.731-2.679a2.02,2.02,0,0,0-1.388.452s-4.779-2.763-8.274-2.763" transform="translate(-17.562 -6.222)" fill="url(#linear-gradient-6)"/>
      <path id="Trazado_12496" data-name="Trazado 12496" d="M264.7,177.922s-6.413,0-6.413-4.152,4.152-10.547.76-7.155-11.121,4.328-11.121,4.328l5.089-5.089c2.076-2.075,5.273-8.664,5.273-8.664s-1.837,8.268-3.673,10.1,9.717-5.972,9.717-5.972-4.841,8.587-3.711,12.825,8.551.213,8.551.213S266.581,177.922,264.7,177.922Z" transform="translate(-21.582 -14.649)" fill="url(#radial-gradient)"/>
      <path id="Trazado_12497" data-name="Trazado 12497" d="M220.468,203.377a7.5,7.5,0,1,1-7.49-7.491A7.5,7.5,0,0,1,220.468,203.377Z" transform="translate(-16.518 -19.266)" fill="#965c51"/>
      <path id="Trazado_12498" data-name="Trazado 12498" d="M219.666,201.29a7.5,7.5,0,1,1-7.491-7.49A7.5,7.5,0,0,1,219.666,201.29Z" transform="translate(-16.422 -19.017)" fill="#331414"/>
      <path id="Trazado_12499" data-name="Trazado 12499" d="M234.943,173.661A7.5,7.5,0,1,1,225,169.986,7.5,7.5,0,0,1,234.943,173.661Z" transform="translate(-18.326 -16.094)" fill="#965c51"/>
      <path id="Trazado_12500" data-name="Trazado 12500" d="M233.339,172.106a7.5,7.5,0,1,1-9.937-3.675A7.5,7.5,0,0,1,233.339,172.106Z" transform="translate(-18.136 -15.908)" fill="#331414"/>
      <path id="Trazado_12501" data-name="Trazado 12501" d="M249.665,153.859a7.495,7.495,0,1,1-7.5-7.491A7.5,7.5,0,0,1,249.665,153.859Z" transform="translate(-20.002 -13.358)" fill="#965c51"/>
      <path id="Trazado_12502" data-name="Trazado 12502" d="M248.863,151.772a7.5,7.5,0,1,1-7.5-7.49A7.5,7.5,0,0,1,248.863,151.772Z" transform="translate(-19.906 -13.109)" fill="#331414"/>
      <path id="Trazado_12503" data-name="Trazado 12503" d="M217.449,135.514a7.5,7.5,0,1,1-7.5-7.491A7.5,7.5,0,0,1,217.449,135.514Z" transform="translate(-16.158 -11.169)" fill="#965c51"/>
      <path id="Trazado_12504" data-name="Trazado 12504" d="M216.646,133.427a7.495,7.495,0,1,1-7.5-7.49A7.5,7.5,0,0,1,216.646,133.427Z" transform="translate(-16.062 -10.92)" fill="#331414"/>
      <path id="Trazado_12505" data-name="Trazado 12505" d="M208.914,161.171a7.5,7.5,0,1,1-7.491-7.491A7.5,7.5,0,0,1,208.914,161.171Z" transform="translate(-15.139 -14.23)" fill="#965c51"/>
      <path id="Trazado_12506" data-name="Trazado 12506" d="M208.111,159.084a7.5,7.5,0,1,1-7.491-7.49A7.5,7.5,0,0,1,208.111,159.084Z" transform="translate(-15.043 -13.981)" fill="#331414"/>
      <path id="Trazado_12507" data-name="Trazado 12507" d="M195.754,189.9a7.5,7.5,0,1,1-7.49-7.49A7.5,7.5,0,0,1,195.754,189.9Z" transform="translate(-13.569 -17.658)" fill="#965c51"/>
      <path id="Trazado_12508" data-name="Trazado 12508" d="M194.951,187.81a7.495,7.495,0,1,1-7.49-7.49A7.495,7.495,0,0,1,194.951,187.81Z" transform="translate(-13.473 -17.409)" fill="#331414"/>
      <path id="Trazado_12509" data-name="Trazado 12509" d="M184.3,186.223a4.511,4.511,0,0,1,0-6.413c8.869-8.5,23.532-11.607,31.165-12.765a142.727,142.727,0,0,0-11.184-30.112,4.514,4.514,0,1,1,7.985-4.213c.089.221,9.734,18.329,13.039,37.383a4.557,4.557,0,0,1-.866,3.524,4.65,4.65,0,0,1-3.18,1.74,92.218,92.218,0,0,0-12.216,2.2c-6.722,1.635-14.5,4.682-18.346,8.657a4.521,4.521,0,0,1-6.4,0Z" transform="translate(-13.832 -11.44)" fill="url(#radial-gradient-2)"/>
      <path id="Trazado_12510" data-name="Trazado 12510" d="M210.023,199.286a4.523,4.523,0,0,1-3.453-5.389,24.939,24.939,0,0,0,.565-5.291c.026-6.209-2.164-12.817-4.443-17.763a57.788,57.788,0,0,0-4.435-8.073,4.5,4.5,0,0,1,2.862-7.023l35.043-6.6v.018a4.521,4.521,0,0,1,1.677,8.886l-28.708,5.388c3.03,5.715,6.962,15.017,7.049,25.166a34.091,34.091,0,0,1-.768,7.235A4.538,4.538,0,0,1,211,199.4,4.094,4.094,0,0,1,210.023,199.286Z" transform="translate(-15.56 -13.682)" fill="url(#radial-gradient-3)"/>
      <path id="Trazado_12511" data-name="Trazado 12511" d="M199.87,161.773c-.653-4.842,3.233-5.565,3.233-5.565s-10.538-.239-4.788,8.807c2.562,4.036,7.711,13.382,8.215,18.911s-1.007,8.286-1.007,10.821,1.007,5.5,5.379,5.5c0,0-2.411-.415-2.411-5.511,0-2.748,1.272-9.187-2.544-19.08C203.916,170.4,200.364,165.394,199.87,161.773Z" transform="translate(-15.458 -14.532)" fill="#331414"/>
      <path id="Trazado_12512" data-name="Trazado 12512" d="M210.7,163.864l28.708-5.388a4.25,4.25,0,0,0,3.632-4.3c0-4.381,1.467,1.839-7.3,3.252C229.455,158.44,209.1,162.265,210.7,163.864Z" transform="translate(-17.13 -14.105)" fill="#331414"/>
      <path id="Trazado_12513" data-name="Trazado 12513" d="M210.713,165.385A48.221,48.221,0,0,1,216.57,180.8c2.085,9.752,1.978,18.321-1.714,19.928s1.113-3.056,1.113-7.155S216.623,175.358,210.713,165.385Z" transform="translate(-17.142 -15.627)" fill="#965c51"/>
      <path id="Trazado_12514" data-name="Trazado 12514" d="M238.336,149.157l-34.352,6.21s28.85-4.152,32.666-4.152,5.406,1.925,4.769,2.605C240.8,154.5,245.4,151.489,238.336,149.157Z" transform="translate(-16.34 -13.691)" fill="#965c51"/>
      <path id="Trazado_12515" data-name="Trazado 12515" d="M247.925,172.1s8.762-1.528,12.428-5.2c0,0-4.293,9.444.708,11.5s8.108-2.88,8.108-2.88-1.555,6.077-8.621,3.816-3.111-8.621-3.111-8.621S252.545,174.337,247.925,172.1Z" transform="translate(-21.582 -15.807)" fill="url(#linear-gradient-7)"/>
      <path id="Trazado_12516" data-name="Trazado 12516" d="M282.123,150.21s-6.219,8.338-3.675,10.882,8.9.99,8.9.99-5.37,5.23-11.024.848S282.123,150.21,282.123,150.21Z" transform="translate(-24.784 -13.816)" fill="url(#radial-gradient-4)"/>
      <path id="Trazado_12517" data-name="Trazado 12517" d="M303.555,139.136s-1.413,13.285-5.794,13.285-4.381-3.815-4.381-3.815-1.132,6.219,4.662,6.219S303.555,139.136,303.555,139.136Z" transform="translate(-26.995 -12.495)" fill="url(#radial-gradient-5)"/>
      <path id="Trazado_12518" data-name="Trazado 12518" d="M275.062,159.016a3.767,3.767,0,0,0,1.519,5.256c3.409,2.11,10.618-1.14,10.618-1.14s-7.26,6.511-12.154,2.4C271.511,162.567,275.062,159.016,275.062,159.016Z" transform="translate(-24.631 -14.867)" fill="url(#linear-gradient-8)"/>
      <path id="Trazado_12519" data-name="Trazado 12519" d="M293.352,148.606s-.424,6.219,4.662,6.219,5.512-15.689,5.512-15.689,1.839,17.1-5.228,17.1S293.352,148.606,293.352,148.606Z" transform="translate(-26.967 -12.495)" fill="url(#linear-gradient-9)"/>
      <path id="Trazado_12520" data-name="Trazado 12520" d="M102.876,263.367c-12.848,53.773-19.766,100.3-4.23,108.064,10.189,5.092,24.715,7.87,36.786,7.87,12.935,0,23.052-3.188,22-10.129-5.089-33.734-36.548-13.95-33.544-64.083a237.9,237.9,0,0,1,4.181-30.666c-10.145-4.185-18.832-8.092-25.2-11.055m5.3-21.354c-1.059,4.133-2.1,8.258-3.107,12.345,6.071,2.822,14.7,6.715,24.894,10.946.585-2.673,1.2-5.377,1.84-8.079-9.719-5.745-17.736-11.078-23.627-15.211m47.4-111.281a8.562,8.562,0,0,0-1.9.234s-.023,0-.067,0c-1.1,0-15.8,1.382-35.363,73.129-2.578,9.452-5.156,19.026-7.651,28.558,5.423,3.894,13.419,9.356,23.455,15.382,14.613-57.794,37.7-117.3,21.525-117.3" transform="translate(-2.706 -11.492)" fill="url(#linear-gradient-10)"/>
      <path id="Trazado_12521" data-name="Trazado 12521" d="M285.3,329.445v4.013c0,3.373-2.176,4.161-3.462,4.332.626,1.908,1.177,3.9,1.649,5.966a54.108,54.108,0,0,1,4.389,12.569c2.124,9.218,1.989,19.142-1.9,27.591a4.5,4.5,0,0,0,2.226,6,4.535,4.535,0,0,0,6-2.2c4.97-10.875,4.922-22.819,2.5-33.4-2.41-9.831-6.44-18.619-11.4-24.867" transform="translate(-25.628 -35.201)" fill="url(#linear-gradient-11)"/>
      <path id="Trazado_12522" data-name="Trazado 12522" d="M280.421,324.1c-.565,1.88-1.266,3.757-1.989,5.717a53.258,53.258,0,0,1,3,7.333c1.286-.171,3.462-.959,3.462-4.332v-4.013a34.286,34.286,0,0,0-4.471-4.7" transform="translate(-25.222 -34.564)" fill="url(#linear-gradient-12)"/>
      <path id="Trazado_12523" data-name="Trazado 12523" d="M275.342,319.61a25.07,25.07,0,0,1,2.838,2.122c.194-.643.371-1.286.528-1.933q-1.687-.079-3.366-.188m-12.7-12.051a5.214,5.214,0,0,0-3,1.307q3.437.51,6.905.9-.087-.1-.185-.2c-1.871-1.823-2.885-1.966-3.678-2.005h-.039m11.118-3.332a13.2,13.2,0,0,1,2.65,5.074q.709-.3,1.389-.629a13.574,13.574,0,0,0-2.927-3.515c-.365-.33-.736-.64-1.111-.93" transform="translate(-22.98 -32.193)" fill="url(#linear-gradient-13)"/>
      <path id="Trazado_12524" data-name="Trazado 12524" d="M270.785,377.769c-1.325,0-.151,1.72,1.243,3.833q.476-1.223.866-2.481a3.064,3.064,0,0,0-2.108-1.352" transform="translate(-24.241 -40.967)" fill="url(#linear-gradient-14)"/>
      <path id="Trazado_12525" data-name="Trazado 12525" d="M270.118,338.484a43.954,43.954,0,0,0-1.768,10.162c-.412,6.142-.547,10.961-.547,14.663a82.289,82.289,0,0,0,.388,9.036,13.585,13.585,0,0,0,.278,1.894,4.521,4.521,0,0,1-2.393,5.312,4.521,4.521,0,0,0,2.884,2.676,35.262,35.262,0,0,0,2.574-5.312c-1.394-2.113-2.567-3.833-1.243-3.833a3.064,3.064,0,0,1,2.108,1.352,42.738,42.738,0,0,0,1.164-4.675c-.115-1.217-.226-2.621-.324-4.231-.222-3.686-.357-8.5-.325-14.663,0-1.13.034-2.217.107-3.265a56.709,56.709,0,0,0-2.905-9.116" transform="translate(-23.748 -36.28)" fill="url(#linear-gradient-15)"/>
      <path id="Trazado_12526" data-name="Trazado 12526" d="M277.114,321.684c-.434,1.211-.929,2.416-1.454,3.638a40.022,40.022,0,0,1,2.441,4.209c.723-1.96,1.425-3.836,1.989-5.717a25.07,25.07,0,0,0-2.838-2.122l-.139-.009" transform="translate(-24.891 -34.275)" fill="url(#linear-gradient-16)"/>
      <path id="Trazado_12527" data-name="Trazado 12527" d="M240.11,301.023c-.051.042-.1.085-.151.128-.147.122-.285.242-.411.358.048.071.1.148.158.228a18.522,18.522,0,0,0,3.047,3.165q2.823-.305,5.43-.824a3.508,3.508,0,0,0-1.167-2.153q-3.466-.391-6.905-.9m77.648-5.7a4.432,4.432,0,0,0-1.415.233,154.256,154.256,0,0,1-44.854,7.512q-1.684,1.157-3.4,2.4a42.359,42.359,0,0,1-12.322,6.017c-.031.091-.063.181-.1.271l.139.009q1.68.108,3.366.188,3.39.16,6.806.2c.586.007,1.164.011,1.75.012a164.608,164.608,0,0,0,47.842-6.893q1.789-.54,3.575-1.128a4.572,4.572,0,0,0,2.885-5.731,4.527,4.527,0,0,0-4.276-3.094m-87.676,6.518v0m-98.1-35.105a1.126,1.126,0,0,1-.412-1.554,1.128,1.128,0,0,1,1.554-.42c.079.024,42.54,25.031,73.159,31.546a1.121,1.121,0,0,1,.872,1.34,1.146,1.146,0,0,1-1.126.88,1.083,1.083,0,0,1-.23-.016c-31.213-6.69-73.777-31.776-73.816-31.792v.016M100.451,238.5a4.528,4.528,0,0,0-.8.072,4.465,4.465,0,0,0-2.7,1.6,4.522,4.522,0,0,0-.157,5.491,4.581,4.581,0,0,0,.823.874v-.016c.085.039,4.108,3.3,11.3,8.347,5.891,4.133,13.908,9.467,23.627,15.211,18.317,10.827,42.679,23.117,70.264,31.61a159.637,159.637,0,0,0,28.472,3.625,8.848,8.848,0,0,1-1.2-3.508,158.97,158.97,0,0,0,.187-2.478c-28.781-5.638-55.492-16.8-76.9-28.014-6.765-3.535-12.988-7.068-18.579-10.426-10.036-6.027-18.032-11.488-23.455-15.382-5.167-3.71-8-6-8.035-6h0a4.53,4.53,0,0,0-2.852-1.009" transform="translate(-3.448 -24.35)" fill="url(#linear-gradient-17)"/>
      <path id="Trazado_12528" data-name="Trazado 12528" d="M137.358,268.144a1.146,1.146,0,0,0-.985.575,1.126,1.126,0,0,0,.412,1.554v-.016c.04.016,42.6,25.1,73.816,31.792a1.083,1.083,0,0,0,.23.016,1.146,1.146,0,0,0,1.126-.88,1.121,1.121,0,0,0-.872-1.34c-30.619-6.515-73.079-31.522-73.159-31.546a1.135,1.135,0,0,0-.569-.155" transform="translate(-8.254 -27.887)" fill="url(#linear-gradient-18)"/>
      <path id="Trazado_12529" data-name="Trazado 12529" d="M261.884,323.815a64.009,64.009,0,0,0-4.672,19.374c-.428,6.285-.563,11.3-.563,15.258,0,9.48.848,12.817,1.015,13.4A4.506,4.506,0,0,0,262,375.14a4.4,4.4,0,0,0,1.236-.174,4.637,4.637,0,0,0,.73-.276,4.521,4.521,0,0,0,2.393-5.312,13.584,13.584,0,0,1-.278-1.894,82.281,82.281,0,0,1-.388-9.036c0-3.7.135-8.521.547-14.663a43.954,43.954,0,0,1,1.768-10.162c-1.952-4.682-4.245-8.241-6.123-9.807m12.072-5.259q-1.827.568-3.731,1.014a31.36,31.36,0,0,1,2.181,2.9c.525-1.222,1.02-2.427,1.454-3.638.033-.091.065-.181.1-.271m-23.949-14.921c-.046.055-.089.108-.13.159a9.75,9.75,0,0,1-.67.827,4.535,4.535,0,0,0-.749,1.778,4.476,4.476,0,0,0-.071,1.009,4.437,4.437,0,0,1,.4-1.039,14.857,14.857,0,0,1,1.218-2.735m11.185-3.947a12.161,12.161,0,0,0-7.5,2.286,30.307,30.307,0,0,0-2.895,2.471,4.569,4.569,0,0,1,1.611-.442q.176-.013.349-.013a4.525,4.525,0,0,1,4.455,3.683l.008.008a7.55,7.55,0,0,0,.516.9c.126-.116.264-.237.411-.358.049-.043.1-.085.151-.128a5.214,5.214,0,0,1,3-1.307h.039c.793.04,1.807.182,3.678,2.005q.1.1.185.2a3.508,3.508,0,0,1,1.167,2.153,44.217,44.217,0,0,0,8.7-2.62,13.2,13.2,0,0,0-2.65-5.074,13.669,13.669,0,0,0-.989-1.059c-.143-.146-.287-.287-.432-.426a25.385,25.385,0,0,0-9.807-2.28m.25-1.947h-.1c-.373.018-.739.047-1.094.088h.087a17.634,17.634,0,0,1,5.775.89,12.165,12.165,0,0,0-4.668-.978" transform="translate(-21.637 -31.419)" fill="url(#linear-gradient-19)"/>
      <path id="Trazado_12530" data-name="Trazado 12530" d="M324.538,276.462c-2.62,0-26.245.79-56.31,20.555-.473.311-.941.623-1.417.942-.78.526-1.569,1.066-2.358,1.617q-1.248.873-2.51,1.79a28.88,28.88,0,0,1-4.515,2.675q-.679.328-1.389.629a44.216,44.216,0,0,1-8.7,2.62q-2.6.519-5.43.824c.742.635,1.625,1.33,2.675,2.08,9.686-.823,14.936-3.568,21.322-8.915,11.866-10.05,41.684-21.337,56.5-21.385a1.109,1.109,0,0,1,1.117,1.11,1.131,1.131,0,0,1-1.117,1.141h-.1c-13.875,0-43.876,11.294-54.938,20.846-5.938,5.067-11.412,8.021-19.908,9.171a23.334,23.334,0,0,1,3.736,3.55q1.9-.447,3.731-1.014a42.359,42.359,0,0,0,12.322-6.017q1.712-1.244,3.4-2.4c28.33-19.454,50.626-20.681,53.668-20.773q.192.016.383.016h.029a4.526,4.526,0,0,0,2.243-8.457,4.49,4.49,0,0,0-2.243-.6l-.071,0h-.117M93.4,265.421a4.5,4.5,0,0,0-4.031,2.5,4.557,4.557,0,0,0-.24.56,4.429,4.429,0,0,0-.241,1.217,4.558,4.558,0,0,0,2.486,4.3v-.024c.011,0,.1.044.261.123,1.022.5,5,2.478,11.142,5.34,6.364,2.964,15.051,6.87,25.2,11.055,27.836,11.482,66.627,25.048,98.369,26.9q3.414.2,6.713.212,3.078,0,6.061-.185a39.394,39.394,0,0,1-5.566-4.764c-6.13-.189-13.494-.77-22.625-1.693-35.636-3.654-109.373-36.056-109.453-36.072l.016.016a1.127,1.127,0,0,1-.6-1.49,1.14,1.14,0,0,1,1.052-.69,1.176,1.176,0,0,1,.447.088c.119.016,73.9,32.394,108.763,35.914,8.118.816,14.815,1.369,20.452,1.606a16.654,16.654,0,0,1-1.162-1.808,159.637,159.637,0,0,1-28.472-3.625c-19.282-4.031-39.708-10.853-57.462-17.669-5.135-1.977-10.048-3.953-14.641-5.861-10.19-4.231-18.824-8.124-24.894-10.946-5.97-2.777-9.46-4.514-9.511-4.514h0a4.554,4.554,0,0,0-2.056-.493" transform="translate(-2.606 -27.562)" fill="url(#radial-gradient-6)"/>
      <path id="Trazado_12531" data-name="Trazado 12531" d="M324.018,280.885c-14.814.048-44.632,11.334-56.5,21.385-6.386,5.348-11.637,8.092-21.322,8.915.686.49,1.442,1,2.276,1.539.2.138.4.282.6.429,8.5-1.15,13.97-4.1,19.908-9.171,11.062-9.552,41.063-20.846,54.938-20.846h.1a1.131,1.131,0,0,0,1.117-1.141,1.109,1.109,0,0,0-1.117-1.11m-220.469-7.166a1.14,1.14,0,0,0-1.052.69,1.127,1.127,0,0,0,.6,1.49l-.016-.016c.079.016,73.817,32.418,109.453,36.072,9.131.923,16.494,1.5,22.625,1.693a23.7,23.7,0,0,1-1.951-2.322c-5.637-.237-12.334-.79-20.452-1.606C177.9,306.2,104.114,273.823,104,273.807a1.176,1.176,0,0,0-.447-.088" transform="translate(-4.219 -28.553)" fill="url(#radial-gradient-7)"/>
      <path id="Trazado_12532" data-name="Trazado 12532" d="M248.254,309.724v0m25.643,41c-.3,0-3.447-20.7-15.22-30.909,0,0,13.99,9.892,14.98,26.148a47.586,47.586,0,0,1,.24,4.76M252.74,304.836q-.173,0-.349.013a4.569,4.569,0,0,0-1.611.442,9.551,9.551,0,0,0-2.371,3.2c-.116.5-.156.794-.156.794a1.719,1.719,0,0,1,.156-.794c.079-.342.2-.779.362-1.278a4.462,4.462,0,0,0-.518,2.508,8.848,8.848,0,0,0,1.2,3.508,16.654,16.654,0,0,0,1.162,1.808,23.7,23.7,0,0,0,1.951,2.322,39.393,39.393,0,0,0,5.566,4.764q1.313.947,2.864,1.937a5.057,5.057,0,0,1,.875.6c1.879,1.566,4.172,5.126,6.123,9.807a56.709,56.709,0,0,1,2.905,9.116,52.632,52.632,0,0,1,1.288,9.328,51.465,51.465,0,0,1-.746,12.831,42.738,42.738,0,0,1-1.164,4.675q-.391,1.256-.866,2.481a35.262,35.262,0,0,1-2.574,5.312q-.489.819-1.022,1.611a4.5,4.5,0,0,0,1.2,6.285,4.638,4.638,0,0,0,2.555.776c.087,0,.173,0,.259-.007a4.682,4.682,0,0,0,.967-.166,4.52,4.52,0,0,0,2.4-1.641q.058-.078.114-.159.748-1.114,1.417-2.259c5.519-9.425,7.1-20.269,6.477-30.294a79.283,79.283,0,0,0-1.726-11.539c-.472-2.064-1.022-4.058-1.649-5.966a53.258,53.258,0,0,0-3-7.333,40.022,40.022,0,0,0-2.441-4.209,31.361,31.361,0,0,0-2.181-2.9,23.333,23.333,0,0,0-3.736-3.55c-.2-.147-.4-.291-.6-.429-.834-.536-1.59-1.05-2.276-1.539-1.05-.75-1.933-1.445-2.675-2.08a18.523,18.523,0,0,1-3.047-3.165c-.057-.08-.109-.157-.158-.228a7.56,7.56,0,0,1-.516-.9l-.008-.008a4.525,4.525,0,0,0-4.454-3.683" transform="translate(-21.62 -32.265)" fill="url(#linear-gradient-20)"/>
      <path id="Trazado_12533" data-name="Trazado 12533" d="M260.091,321.843c11.773,10.207,14.918,30.909,15.22,30.909a47.586,47.586,0,0,0-.24-4.76c-.991-16.257-14.98-26.148-14.98-26.148" transform="translate(-23.034 -34.294)" fill="url(#linear-gradient-21)"/>
      <path id="Trazado_12534" data-name="Trazado 12534" d="M266.329,298.73a16.091,16.091,0,0,1,4.89,3.249l.012.006a9.9,9.9,0,0,0-4.9-3.255m-5.862-.889a11.214,11.214,0,0,0-10.241,5.805,15.415,15.415,0,0,1,10.241-5.805" transform="translate(-21.857 -31.431)" fill="url(#linear-gradient-22)"/>
      <path id="Trazado_12535" data-name="Trazado 12535" d="M260.39,297.84H260.3a15.415,15.415,0,0,0-10.241,5.805,14.857,14.857,0,0,0-1.218,2.735,4.536,4.536,0,0,1,2.009-1.924,30.307,30.307,0,0,1,2.895-2.471,12.161,12.161,0,0,1,7.5-2.286,25.385,25.385,0,0,1,9.807,2.28,16.091,16.091,0,0,0-4.89-3.249,17.634,17.634,0,0,0-5.775-.89" transform="translate(-21.692 -31.43)" fill="url(#linear-gradient-23)"/>
      <path id="Trazado_12536" data-name="Trazado 12536" d="M248.411,308.555a1.719,1.719,0,0,0-.156.794s.04-.3.156-.794m2.371-3.2a4.536,4.536,0,0,0-2.009,1.924c-.166.5-.283.936-.362,1.278a9.551,9.551,0,0,1,2.371-3.2" transform="translate(-21.621 -32.327)" fill="url(#linear-gradient-24)"/>
      <path id="Trazado_12537" data-name="Trazado 12537" d="M266.148,310.558a5.481,5.481,0,0,0-3.674-1.051c-2.579,0-2.827,1.157-1.979,2,2.358,2.333,2.659,2.341,2.659,2.341s-5.308-.8-5.308-5.008S268.233,305.126,266.148,310.558Z" transform="translate(-22.766 -32.408)" fill="#1c120f"/>
      <path id="Trazado_12538" data-name="Trazado 12538" d="M153.047,180.41s-10.743,7.562-7.916,10.388-3.021,10.927-5.653,13.569-.372,9.795-.372,9.795,6.971-11.492,9.8-14.318,4.054-9.708,2.826-10.935S153.047,180.41,153.047,180.41Z" transform="translate(-8.491 -17.42)" fill="url(#radial-gradient-8)"/>
      <path id="Trazado_12539" data-name="Trazado 12539" d="M149.77,169s-6.094,5.354-8.736,5.354a8.147,8.147,0,0,0,3.012-6.034c0-3.772-7.163-3.022-5.088-8.861s4.046-2.164,6.219,0,2.174,7.35,2.174,7.35Z" transform="translate(-8.536 -14.545)" fill="url(#radial-gradient-9)"/>
      <path id="Trazado_12540" data-name="Trazado 12540" d="M325.138,163.54s6.219,8.859,2.262,14.7-6.034,15.829-4.524,22.8c0,0-6.411-6.4-3.584-14.884a33.715,33.715,0,0,0,1.5-15.46,33.962,33.962,0,0,1,1.326,15.46s1.694-9.425,3.391-11.121S327.4,165.81,325.138,163.54Z" transform="translate(-30.012 -15.407)" fill="url(#linear-gradient-25)"/>
      <path id="Trazado_12541" data-name="Trazado 12541" d="M319.018,189.985s-1.359,3.993-.009,7.385a38.334,38.334,0,0,0,3.79,6.82,24.026,24.026,0,0,1,.779-14.23s-1.962,11.916,2,18.7C325.574,208.658,314.443,201.839,319.018,189.985Z" transform="translate(-29.933 -18.559)" fill="url(#linear-gradient-26)"/>
      <path id="Trazado_12542" data-name="Trazado 12542" d="M322.261,115.706s7.437,7.447,6.123,17.808c0,0-4.9-9.046-7.35-9.046s4.337,4.514,7.35,12.623,3.948-5.282,3.011-12.252c0,0,5.371,2.817,5.371,5.37s1.98-4.99-3.11-10.079c0,0,1.131,4.337,0,4.337S327.825,117.119,322.261,115.706Z" transform="translate(-30.243 -9.699)" fill="url(#linear-gradient-27)"/>
      <path id="Trazado_12543" data-name="Trazado 12543" d="M231.851,242.737s-6.158-1.768-5.017-5.76,6.908-8.993,2.7-6.669c-4.186,2.323-11.871,1.1-11.871,1.1l6.289-3.489c2.571-1.422,7.464-6.872,7.464-6.872s-4.054,7.437-6.324,8.7,10.989-3.056,10.989-3.056-7.023,6.916-7.112,11.3,8.161,2.571,8.161,2.571S233.671,243.258,231.851,242.737Z" transform="translate(-17.972 -22.267)" fill="url(#radial-gradient-10)"/>
      <path id="Trazado_12544" data-name="Trazado 12544" d="M217.665,232.594s8.842.945,13.382-1.572c0,0-6.74,7.888-2.5,11.253s8.586-.529,8.586-.529-3.17,5.406-9.335,1.281-.61-9.142-.61-9.142S221.481,236.012,217.665,232.594Z" transform="translate(-17.972 -23.458)" fill="url(#linear-gradient-28)"/>
      <path id="Trazado_12545" data-name="Trazado 12545" d="M262.543,214.512s-4.514,9.363-1.537,11.377,8.931-.724,8.931-.724-4.277,6.158-10.662,2.933S262.543,214.512,262.543,214.512Z" transform="translate(-22.676 -21.488)" fill="url(#radial-gradient-11)"/>
      <path id="Trazado_12546" data-name="Trazado 12546" d="M278.338,188.174s-5.017,12.375-9.231,11.165-3.153-4.876-3.153-4.876-2.81,5.663,2.756,7.269S278.338,188.174,278.338,188.174Z" transform="translate(-23.649 -18.346)" fill="url(#radial-gradient-12)"/>
      <path id="Trazado_12547" data-name="Trazado 12547" d="M257.135,224.643a3.764,3.764,0,0,0,2.491,4.867c3.745,1.431,10.2-3.136,10.2-3.136s-5.892,7.782-11.475,4.673C254.325,228.8,257.135,224.643,257.135,224.643Z" transform="translate(-22.567 -22.697)" fill="url(#linear-gradient-29)"/>
      <path id="Trazado_12548" data-name="Trazado 12548" d="M265.88,194.463s-2.129,5.856,2.756,7.269,9.629-13.558,9.629-13.558-2.951,16.942-9.743,14.989S265.88,194.463,265.88,194.463Z" transform="translate(-23.575 -18.346)" fill="url(#linear-gradient-30)"/>
      <path id="Trazado_12549" data-name="Trazado 12549" d="M285.176,233.75s3.534,10.238-1.89,14.751c-5.406,4.522-10.158,13.55-10.635,20.67,0,0-4.39-7.923.671-15.3a33.744,33.744,0,0,0,5.707-14.443,34.025,34.025,0,0,1-2.994,15.229s4.231-8.6,6.333-9.752S286.73,236.559,285.176,233.75Z" transform="translate(-24.322 -23.784)" fill="url(#linear-gradient-31)"/>
      <path id="Trazado_12550" data-name="Trazado 12550" d="M272.8,257.28s-2.411,3.463-2.041,7.094a38.686,38.686,0,0,0,1.75,7.6,24.049,24.049,0,0,1,4.681-13.461s-5.176,10.908-3.25,18.523C273.935,277.041,265.12,267.411,272.8,257.28Z" transform="translate(-24.175 -26.591)" fill="url(#linear-gradient-32)"/>
      <path id="Trazado_12551" data-name="Trazado 12551" d="M296.363,186.809s5.1,9.214.963,18.806c0,0-2.208-10.051-4.558-10.723s2.915,5.539,3.568,14.16,5.266-3.984,6.29-10.945c0,0,4.382,4.2,3.674,6.643s3.278-4.248-.21-10.547c0,0-.107,4.488-1.193,4.17S301.32,189.706,296.363,186.809Z" transform="translate(-26.861 -18.183)" fill="url(#linear-gradient-33)"/>
      <path id="Trazado_12552" data-name="Trazado 12552" d="M201.456,274.061s3.833,5.141,7.163,2.659,5.981-9.619,5.291-4.875c-.706,4.743,3.163,11.5,3.163,11.5s.618-4.212,1.044-7.119,3.8-9.4,3.8-9.4-5.529,6.405-5.909,8.975S215,264.442,215,264.442s-4,9.009-8.082,10.635-5.265-6.731-5.265-6.731S200.334,272.543,201.456,274.061Z" transform="translate(-15.984 -27.446)" fill="url(#radial-gradient-13)"/>
      <path id="Trazado_12553" data-name="Trazado 12553" d="M216.987,283.873s-4.01-7.939-3.251-13.082c0,0-5.008,9.09-9.646,6.307s-2.526-8.224-2.526-8.224-3.957,4.876,2.084,9.2,8.772-2.649,8.772-2.649S212.429,281.507,216.987,283.873Z" transform="translate(-15.899 -27.975)" fill="url(#linear-gradient-34)"/>
      <path id="Trazado_12554" data-name="Trazado 12554" d="M214.641,244.181s-2.968,9.964-6.536,9.443c-3.55-.521-6.1-6.545-6.1-6.545s-.99,7.429,5.9,9.345S214.641,244.181,214.641,244.181Z" transform="translate(-16.097 -25.028)" fill="url(#radial-gradient-14)"/>
      <path id="Trazado_12555" data-name="Trazado 12555" d="M210.879,220.059s-9.814,9.072-7.2,12.579,5.68,1.236,5.68,1.236-4.32,4.619-7.773-.026S210.879,220.059,210.879,220.059Z" transform="translate(-15.982 -22.15)" fill="url(#radial-gradient-15)"/>
      <path id="Trazado_12556" data-name="Trazado 12556" d="M212.549,254.749a3.768,3.768,0,0,1-5.125,1.917c-3.736-1.475-5.422-9.2-5.422-9.2s-.892,9.708,5.326,11.183C211.816,259.714,212.549,254.749,212.549,254.749Z" transform="translate(-16.098 -25.421)" fill="url(#linear-gradient-35)"/>
      <path id="Trazado_12557" data-name="Trazado 12557" d="M209.161,233.874s-4.743,4.055-7.773-.026,9.293-13.789,9.293-13.789-14.814,8.736-10.592,14.407S209.161,233.874,209.161,233.874Z" transform="translate(-15.785 -22.15)" fill="url(#linear-gradient-36)"/>
      <path id="Trazado_12558" data-name="Trazado 12558" d="M268.918,240.766s-10.812.3-13.136,6.961-9.106,14.284-15.59,17.234c0,0,8.957,1.325,14.08-6.006a33.782,33.782,0,0,1,11.5-10.441,34.042,34.042,0,0,0-13.187,8.171s6.544-6.986,6.9-9.363S265.757,240.3,268.918,240.766Z" transform="translate(-20.66 -24.617)" fill="url(#linear-gradient-37)"/>
      <path id="Trazado_12559" data-name="Trazado 12559" d="M253.128,261.558s-2.385,3.48-5.918,4.416a38.709,38.709,0,0,1-7.729,1.034,24.122,24.122,0,0,0,10.954-9.116s-8.393,8.684-16.2,9.557C234.234,267.449,246.354,272.308,253.128,261.558Z" transform="translate(-19.949 -26.664)" fill="url(#linear-gradient-38)"/>
      <path id="Trazado_12560" data-name="Trazado 12560" d="M253.8,203.646s-10.423-1.528-17.94,5.714c0,0,10.185-1.465,11.643.5s-6.21-.786-14.513,1.635,1.873-6.325,8.029-9.725c0,0-5.468-2.631-7.518-1.1s2.828-4.567,9.947-3.525c0,0-4.151,1.679-3.48,2.588S249.348,200.023,253.8,203.646Z" transform="translate(-19.427 -19.402)" fill="url(#linear-gradient-39)"/>
      <path id="Trazado_12561" data-name="Trazado 12561" d="M142.574,243.718s-6.413,0-6.413-4.15,4.151-10.548.759-7.156-11.12,4.329-11.12,4.329l5.087-5.089c2.077-2.076,5.274-8.666,5.274-8.666s-1.838,8.269-3.675,10.106,9.717-5.971,9.717-5.971-4.84,8.586-3.709,12.825,8.55.212,8.55.212S144.456,243.718,142.574,243.718Z" transform="translate(-7.011 -22.5)" fill="url(#radial-gradient-16)"/>
      <path id="Trazado_12562" data-name="Trazado 12562" d="M125.8,237.9s8.762-1.529,12.428-5.2c0,0-4.293,9.443.706,11.5s8.108-2.879,8.108-2.879-1.554,6.078-8.621,3.816-3.109-8.622-3.109-8.622S130.419,240.134,125.8,237.9Z" transform="translate(-7.011 -23.658)" fill="url(#linear-gradient-40)"/>
      <path id="Trazado_12563" data-name="Trazado 12563" d="M160,216.006s-6.219,8.339-3.674,10.883,8.9.99,8.9.99-5.371,5.229-11.024.847S160,216.006,160,216.006Z" transform="translate(-10.213 -21.667)" fill="url(#radial-gradient-17)"/>
      <path id="Trazado_12564" data-name="Trazado 12564" d="M181.43,204.934s-1.413,13.285-5.795,13.285-4.381-3.817-4.381-3.817-1.131,6.219,4.663,6.219S181.43,204.934,181.43,204.934Z" transform="translate(-12.424 -20.346)" fill="url(#radial-gradient-18)"/>
      <path id="Trazado_12565" data-name="Trazado 12565" d="M152.937,224.813a3.766,3.766,0,0,0,1.52,5.256c3.409,2.111,10.618-1.14,10.618-1.14s-7.261,6.51-12.155,2.4C149.386,228.364,152.937,224.813,152.937,224.813Z" transform="translate(-10.06 -22.717)" fill="url(#linear-gradient-41)"/>
      <path id="Trazado_12566" data-name="Trazado 12566" d="M171.226,214.4s-.424,6.219,4.663,6.219,5.513-15.688,5.513-15.688,1.836,17.1-5.23,17.1S171.226,214.4,171.226,214.4Z" transform="translate(-12.395 -20.346)" fill="url(#linear-gradient-42)"/>
      <path id="Trazado_12567" data-name="Trazado 12567" d="M123.516,177.582s6.218,8.86,2.261,14.7-6.024,15.83-4.523,22.8c0,0-6.412-6.4-3.585-14.884a33.8,33.8,0,0,0,1.509-15.457,34.026,34.026,0,0,1,1.317,15.457s1.7-9.425,3.392-11.12S125.777,179.852,123.516,177.582Z" transform="translate(-5.955 -17.082)" fill="url(#linear-gradient-43)"/>
      <path id="Trazado_12568" data-name="Trazado 12568" d="M117.395,204.027s-1.36,3.992,0,7.385a38.67,38.67,0,0,0,3.781,6.818,24.108,24.108,0,0,1,.778-14.23s-1.96,11.916,2,18.7C123.949,222.7,112.819,215.881,117.395,204.027Z" transform="translate(-5.877 -20.234)" fill="url(#linear-gradient-44)"/>
      <path id="Trazado_12569" data-name="Trazado 12569" d="M177.146,105.756s7.438,7.447,6.112,17.808c0,0-4.893-9.046-7.349-9.046s4.346,4.514,7.349,12.623c3.022,8.108,3.958-5.281,3.022-12.252,0,0,5.37,2.818,5.37,5.371s1.979-4.991-3.109-10.079c0,0,1.13,4.337,0,4.337S182.711,107.17,177.146,105.756Z" transform="translate(-12.928 -8.512)" fill="url(#linear-gradient-45)"/>
      <path id="Trazado_12570" data-name="Trazado 12570" d="M154.734,141.763s5.071,3.931,7.615.645,3.189-10.873,3.79-6.112,6.122,10.238,6.122,10.238-.531-4.223-.9-7.138c-.351-2.915,1.158-10.079,1.158-10.079s-3.621,7.658-3.295,10.238-4.01-10.678-4.01-10.678-1.45,9.75-4.938,12.4-6.882-5.069-6.882-5.069S153.251,140.607,154.734,141.763Z" transform="translate(-10.303 -11.271)" fill="url(#radial-gradient-19)"/>
      <path id="Trazado_12571" data-name="Trazado 12571" d="M172.2,147.337s-5.981-6.58-6.625-11.731c0,0-2.4,10.087-7.615,8.648s-4.628-7.244-4.628-7.244-2.508,5.75,4.469,8.3c6.961,2.544,7.738-4.9,7.738-4.9S167.184,146.268,172.2,147.337Z" transform="translate(-10.244 -12.074)" fill="url(#linear-gradient-46)"/>
      <path id="Trazado_12572" data-name="Trazado 12572" d="M159.328,109.5s-.194,10.4-3.762,10.848-7.65-4.682-7.65-4.682,1.042,7.429,8.2,7.429S159.328,109.5,159.328,109.5Z" transform="translate(-9.65 -8.959)" fill="url(#radial-gradient-20)"/>
      <path id="Trazado_12573" data-name="Trazado 12573" d="M149.546,87.362s-7.032,11.359-3.569,14.044,5.8-.327,5.8-.327-2.923,5.609-7.5,2.058S149.546,87.362,149.546,87.362Z" transform="translate(-9.071 -6.318)" fill="url(#radial-gradient-21)"/>
      <path id="Trazado_12574" data-name="Trazado 12574" d="M160.034,120.695a3.769,3.769,0,0,1-4.425,3.215c-3.984-.424-7.694-7.411-7.694-7.411s1.748,9.6,8.127,9.354C160.652,125.676,160.034,120.695,160.034,120.695Z" transform="translate(-9.65 -9.794)" fill="url(#linear-gradient-47)"/>
      <path id="Trazado_12575" data-name="Trazado 12575" d="M151.6,101.08s-3.471,5.176-7.5,2.058c-4.01-3.126,5.266-15.776,5.266-15.776s-11.934,12.384-6.352,16.712S151.6,101.08,151.6,101.08Z" transform="translate(-8.887 -6.318)" fill="url(#linear-gradient-48)"/>
      <path id="Trazado_12576" data-name="Trazado 12576" d="M235.869,340.95s-9.662,4.895-8.9,11.908-2.12,16.811-6.713,22.259c0,0,8.655-2.65,10.149-11.465a33.918,33.918,0,0,1,5.927-14.354,34.161,34.161,0,0,0-8.427,13.03s2.933-9.117,2.227-11.413C229.439,348.627,232.8,341.887,235.869,340.95Z" transform="translate(-18.281 -36.574)" fill="url(#linear-gradient-49)"/>
      <path id="Trazado_12577" data-name="Trazado 12577" d="M229.634,367.228s-.671,4.159-3.462,6.518a39.122,39.122,0,0,1-6.536,4.248,24.131,24.131,0,0,0,5.989-12.93s-3.87,11.438-10.547,15.572C215.077,380.636,228.116,379.842,229.634,367.228Z" transform="translate(-17.663 -39.451)" fill="url(#linear-gradient-50)"/>
      <path id="Trazado_12578" data-name="Trazado 12578" d="M183.954,238.534s-7.438,7.447-6.122,17.808c0,0,4.9-9.046,7.349-9.046s-4.337,4.514-7.349,12.624-3.949-5.283-3.013-12.252c0,0-5.371,2.818-5.371,5.371s-1.978-4.992,3.111-10.079c0,0-1.131,4.336,0,4.336S178.388,239.948,183.954,238.534Z" transform="translate(-12.174 -24.354)" fill="url(#linear-gradient-51)"/>
      <path id="Trazado_12579" data-name="Trazado 12579" d="M136.718,370.66s-6.413,0-6.413-4.152,4.152-10.548.76-7.155-11.112,4.328-11.112,4.328,3-3.012,5.087-5.087c2.067-2.077,5.265-8.666,5.265-8.666s-1.837,8.267-3.674,10.1,9.716-5.971,9.716-5.971-4.84,8.587-3.709,12.827,8.551.211,8.551.211S138.609,370.66,136.718,370.66Z" transform="translate(-6.314 -37.645)" fill="url(#radial-gradient-22)"/>
      <path id="Trazado_12580" data-name="Trazado 12580" d="M119.953,364.839s8.762-1.527,12.427-5.2c0,0-4.3,9.442.707,11.5s8.1-2.88,8.1-2.88-1.554,6.078-8.622,3.816-3.109-8.621-3.109-8.621S124.563,367.074,119.953,364.839Z" transform="translate(-6.314 -38.804)" fill="url(#linear-gradient-52)"/>
      <path id="Trazado_12581" data-name="Trazado 12581" d="M154.14,342.946s-6.218,8.339-3.675,10.884,8.9.988,8.9.988-5.37,5.229-11.024.848S154.14,342.946,154.14,342.946Z" transform="translate(-9.514 -36.812)" fill="url(#radial-gradient-23)"/>
      <path id="Trazado_12582" data-name="Trazado 12582" d="M175.572,331.873s-1.413,13.285-5.794,13.285-4.382-3.815-4.382-3.815-1.131,6.219,4.664,6.219S175.572,331.873,175.572,331.873Z" transform="translate(-11.725 -35.491)" fill="url(#radial-gradient-24)"/>
      <path id="Trazado_12583" data-name="Trazado 12583" d="M147.079,351.754a3.766,3.766,0,0,0,1.52,5.255c3.41,2.112,10.618-1.14,10.618-1.14s-7.26,6.51-12.155,2.4C143.528,355.3,147.079,351.754,147.079,351.754Z" transform="translate(-9.361 -37.863)" fill="url(#linear-gradient-53)"/>
      <path id="Trazado_12584" data-name="Trazado 12584" d="M165.368,341.343s-.424,6.219,4.664,6.219,5.512-15.689,5.512-15.689,1.837,17.1-5.23,17.1S165.368,341.343,165.368,341.343Z" transform="translate(-11.697 -35.491)" fill="url(#linear-gradient-54)"/>
      <path id="Trazado_12585" data-name="Trazado 12585" d="M197.155,356.276s6.219,8.861,2.262,14.7-6.025,15.83-4.523,22.8c0,0-6.412-6.4-3.585-14.884a33.806,33.806,0,0,0,1.51-15.458,34.031,34.031,0,0,1,1.317,15.458s1.7-9.425,3.392-11.12S199.418,358.547,197.155,356.276Z" transform="translate(-14.741 -38.403)" fill="url(#linear-gradient-55)"/>
      <path id="Trazado_12586" data-name="Trazado 12586" d="M191.035,382.723s-1.361,3.991,0,7.384a38.568,38.568,0,0,0,3.781,6.818,24.1,24.1,0,0,1,.778-14.229s-1.961,11.917,2,18.7C197.59,401.4,186.46,394.576,191.035,382.723Z" transform="translate(-14.663 -41.555)" fill="url(#linear-gradient-56)"/>
      <path id="Trazado_12587" data-name="Trazado 12587" d="M154.449,165s7.446,7.446,6.122,17.807c0,0-4.893-9.045-7.349-9.045s4.337,4.514,7.349,12.622,3.957-5.281,3.012-12.25c0,0,5.37,2.817,5.37,5.37s1.979-4.991-3.11-10.079c0,0,1.132,4.337,0,4.337S160.014,166.417,154.449,165Z" transform="translate(-10.22 -15.581)" fill="url(#linear-gradient-57)"/>
      <path id="Trazado_12588" data-name="Trazado 12588" d="M166.662,79.953s1.82,6.139,5.8,4.964,8.93-6.969,6.652-2.756c-2.3,4.213-1.007,11.889-1.007,11.889s2.032-3.746,3.445-6.324c1.4-2.58,6.81-7.509,6.81-7.509s-7.411,4.108-8.647,6.387S182.686,75.6,182.686,75.6s-6.854,7.075-11.253,7.19c-4.381.114-2.624-8.136-2.624-8.136S166.132,78.143,166.662,79.953Z" transform="translate(-11.878 -4.801)" fill="url(#radial-gradient-25)"/>
      <path id="Trazado_12589" data-name="Trazado 12589" d="M178.031,94.051s-1.015-8.832,1.467-13.4c0,0-7.835,6.8-11.227,2.587s.459-8.586.459-8.586-5.379,3.215-1.211,9.346,9.152.539,9.152.539S174.587,90.253,178.031,94.051Z" transform="translate(-11.8 -4.801)" fill="url(#linear-gradient-58)"/>
      <path id="Trazado_12590" data-name="Trazado 12590" d="M189.481,56.3s-6.236,8.33-9.4,6.615-3.472-8.259-3.472-8.259-3.489,6.634,2.314,10.812S189.481,56.3,189.481,56.3Z" transform="translate(-12.95 -2.415)" fill="url(#radial-gradient-26)"/>
      <path id="Trazado_12591" data-name="Trazado 12591" d="M125.589,320.269s1.414,13.286,5.794,13.286,4.382-3.816,4.382-3.816,1.13,6.218-4.664,6.218S125.589,320.269,125.589,320.269Z" transform="translate(-6.986 -34.107)" fill="url(#radial-gradient-27)"/>
      <path id="Trazado_12592" data-name="Trazado 12592" d="M183.934,65.121a3.775,3.775,0,0,1-5.476.035c-2.986-2.668-1.917-10.5-1.917-10.5s-4.179,8.807,1.139,12.332C181.531,69.537,183.934,65.121,183.934,65.121Z" transform="translate(-12.879 -2.415)" fill="url(#linear-gradient-59)"/>
      <path id="Trazado_12593" data-name="Trazado 12593" d="M135.736,329.739s.423,6.218-4.664,6.218-5.512-15.688-5.512-15.688-1.837,17.1,5.23,17.1S135.736,329.739,135.736,329.739Z" transform="translate(-6.957 -34.107)" fill="url(#linear-gradient-60)"/>
      <path id="Trazado_12594" data-name="Trazado 12594" d="M104.02,344.672s-6.218,8.86-2.261,14.7,6.024,15.829,4.523,22.8c0,0,6.412-6.4,3.585-14.884a33.805,33.805,0,0,1-1.509-15.458,34.012,34.012,0,0,0-1.317,15.458s-1.7-9.425-3.392-11.121S101.76,346.942,104.02,344.672Z" transform="translate(-3.986 -37.018)" fill="url(#linear-gradient-61)"/>
      <path id="Trazado_12595" data-name="Trazado 12595" d="M110.479,371.117s1.36,3.992,0,7.385a38.708,38.708,0,0,1-3.781,6.818,24.107,24.107,0,0,0-.778-14.23s1.96,11.916-2,18.7C103.924,389.792,115.054,382.971,110.479,371.117Z" transform="translate(-4.401 -40.17)" fill="url(#linear-gradient-62)"/>
      <path id="Trazado_12596" data-name="Trazado 12596" d="M106.021,296.839s-7.447,7.446-6.13,17.807c0,0,4.9-9.046,7.349-9.046s-4.329,4.514-7.349,12.623c-3,8.109-3.949-5.282-3-12.251,0,0-5.371,2.818-5.371,5.37s-1.978-4.991,3.11-10.079c0,0-1.131,4.336,0,4.336S100.455,298.252,106.021,296.839Z" transform="translate(-2.875 -31.311)" fill="url(#linear-gradient-63)"/>
      <path id="Trazado_12597" data-name="Trazado 12597" d="M155.342,413.811s2.809,5.759,6.545,3.94,7.65-8.348,6.1-3.817.989,11.89.989,11.89,1.378-4.028,2.332-6.8,5.477-8.542,5.477-8.542-6.625,5.274-7.464,7.738,1.1-11.351,1.1-11.351-5.6,8.108-9.9,8.957-3.94-7.6-3.94-7.6S154.52,412.125,155.342,413.811Z" transform="translate(-10.513 -44.439)" fill="url(#radial-gradient-28)"/>
      <path id="Trazado_12598" data-name="Trazado 12598" d="M168.891,426.009s-2.473-8.543-.777-13.453c0,0-6.608,8-10.653,4.408s-.963-8.551-.963-8.551-4.779,4.064.354,9.425,9.107-.988,9.107-.988S164.855,422.838,168.891,426.009Z" transform="translate(-10.433 -44.623)" fill="url(#linear-gradient-64)"/>
      <path id="Trazado_12599" data-name="Trazado 12599" d="M173.906,386.849s-4.771,9.249-8.18,8.081c-3.393-1.174-4.788-7.57-4.788-7.57s-2.35,7.12,4.071,10.282S173.906,386.849,173.906,386.849Z" transform="translate(-11.154 -42.05)" fill="url(#radial-gradient-29)"/>
      <path id="Trazado_12600" data-name="Trazado 12600" d="M174.467,362.385s-11.316,7.094-9.4,11.033,5.354,2.261,5.354,2.261-5.1,3.745-7.641-1.466S174.467,362.385,174.467,362.385Z" transform="translate(-11.387 -39.132)" fill="url(#radial-gradient-30)"/>
      <path id="Trazado_12601" data-name="Trazado 12601" d="M169.932,396.528a3.765,3.765,0,0,1-5.389.945c-3.392-2.137-3.63-10.043-3.63-10.043s-2.668,9.38,3.171,11.977C168.3,401.281,169.932,396.528,169.932,396.528Z" transform="translate(-11.128 -42.12)" fill="url(#linear-gradient-65)"/>
      <path id="Trazado_12602" data-name="Trazado 12602" d="M170.22,375.679s-5.4,3.11-7.641-1.466c-2.226-4.566,11.688-11.828,11.688-11.828s-16.174,5.848-13.074,12.2S170.22,375.679,170.22,375.679Z" transform="translate(-11.187 -39.132)" fill="url(#linear-gradient-66)"/>
      <path id="Trazado_12603" data-name="Trazado 12603" d="M135.662,397.809s-8.471.734-7.181,6.069-.5,11.634-4.276,14.25c0,0,7.755.627,8.374-5.371a12.853,12.853,0,0,1,4.231-8.719,13.291,13.291,0,0,0-6.651,7.023s1.925-5.8,1.078-7.668C130.406,401.51,132.923,397.589,135.662,397.809Z" transform="translate(-6.821 -43.357)" fill="url(#linear-gradient-67)"/>
      <path id="Trazado_12604" data-name="Trazado 12604" d="M211.3,324.712s-7.447,7.447-6.13,17.808c0,0,4.9-9.046,7.349-9.046s-4.329,4.515-7.349,12.624c-3,8.108-3.948-5.282-3-12.252,0,0-5.371,2.817-5.371,5.371s-1.978-4.991,3.11-10.079c0,0-1.132,4.337,0,4.337S205.731,326.125,211.3,324.712Z" transform="translate(-15.436 -34.637)" fill="url(#linear-gradient-68)"/>
    </g>
  </g>
</svg>
