<svg xmlns="http://www.w3.org/2000/svg" width="794.457" height="601" viewBox="0 0 794.457 601">
  <g id="Grupo_8925" data-name="Grupo 8925" transform="translate(-110 -927)">
    <g id="Grupo_8232" data-name="Grupo 8232" transform="translate(0 -308)">
      <rect id="Rectángulo_2182" data-name="Rectángulo 2182" width="425" height="601" transform="translate(110 1235)" fill="#fff"/>
      <path id="Trazado_11913" data-name="Trazado 11913" d="M0,0H425.427V5.332H0Z" transform="translate(110.141 1830.184)" fill="#fed97b"/>
    </g>
    <path id="Trazado_11917" data-name="Trazado 11917" d="M1335.067,613.033V280.418s1.91-68.055,24.946-119.476c22.767.892,55.508,9.131,102.126,8.093,56.377,2.155,112.652-8.093,112.652-8.093s26.088,44.446,23.293,119.476,0,332.616,0,332.616Z" transform="translate(-1157.184 827.697)" fill="none" stroke="#00a99a" stroke-width="2"/>
    <circle id="Elipse_551" data-name="Elipse 551" cx="5" cy="5" r="5" transform="translate(198 984)" fill="#00a99a"/>
    <circle id="Elipse_582" data-name="Elipse 582" cx="5" cy="5" r="5" transform="translate(173 1123)" fill="#00a99a"/>
    <path id="Trazado_13512" data-name="Trazado 13512" d="M5,0A5,5,0,1,1,0,5,5,5,0,0,1,5,0Z" transform="translate(436 1123)" fill="#00a99a"/>
    <circle id="Elipse_584" data-name="Elipse 584" cx="5" cy="5" r="5" transform="translate(173 1436)" fill="#00a99a"/>
    <path id="Trazado_13513" data-name="Trazado 13513" d="M5,0A5,5,0,1,1,0,5,5,5,0,0,1,5,0Z" transform="translate(436 1436)" fill="#00a99a"/>
    <path id="Trazado_11938" data-name="Trazado 11938" d="M2216.648,149.541l23.808-19.729V388.49" transform="translate(-1931 956)" fill="none" stroke="#00a99a" stroke-width="2"/>
    <g id="Trazado_13530" data-name="Trazado 13530" transform="translate(226 1050)" fill="none">
      <path d="M7,0A7,7,0,1,1,0,7,7,7,0,0,1,7,0Z" stroke="none"/>
      <path d="M 7 2 C 4.242989540100098 2 2 4.242989540100098 2 7 C 2 9.757009506225586 4.242989540100098 12 7 12 C 9.757009506225586 12 12 9.757009506225586 12 7 C 12 4.242989540100098 9.757009506225586 2 7 2 M 7 0 C 10.86598968505859 0 14 3.134010314941406 14 7 C 14 10.86598968505859 10.86598968505859 14 7 14 C 3.134010314941406 14 0 10.86598968505859 0 7 C 0 3.134010314941406 3.134010314941406 0 7 0 Z" stroke="none" fill="#00a99a"/>
    </g>
    <g id="Trazado_13519" data-name="Trazado 13519" transform="translate(376 1050)" fill="none">
      <path d="M7,0A7,7,0,1,1,0,7,7,7,0,0,1,7,0Z" stroke="none"/>
      <path d="M 7 2 C 4.242989540100098 2 2 4.242989540100098 2 7 C 2 9.757009506225586 4.242989540100098 12 7 12 C 9.757009506225586 12 12 9.757009506225586 12 7 C 12 4.242989540100098 9.757009506225586 2 7 2 M 7 0 C 10.86598968505859 0 14 3.134010314941406 14 7 C 14 10.86598968505859 10.86598968505859 14 7 14 C 3.134010314941406 14 0 10.86598968505859 0 7 C 0 3.134010314941406 3.134010314941406 0 7 0 Z" stroke="none" fill="#00a99a"/>
    </g>
    <path id="Trazado_13515" data-name="Trazado 13515" d="M5,0A5,5,0,1,1,0,5,5,5,0,0,1,5,0Z" transform="translate(412 984)" fill="#00a99a"/>
    <path id="Trazado_13526" data-name="Trazado 13526" d="M5,0A5,5,0,1,1,0,5,5,5,0,0,1,5,0Z" transform="translate(306 992)" fill="#00a99a"/>
    <circle id="Elipse_590" data-name="Elipse 590" cx="5" cy="5" r="5" transform="translate(173 1396)" fill="#00a99a"/>
    <path id="Trazado_13527" data-name="Trazado 13527" d="M5,0A5,5,0,1,1,0,5,5,5,0,0,1,5,0Z" transform="translate(306 1436)" fill="#00a99a"/>
    <path id="Trazado_13531" data-name="Trazado 13531" d="M5,0A5,5,0,1,1,0,5,5,5,0,0,1,5,0Z" transform="translate(229 988)" fill="#00a99a"/>
    <path id="Trazado_13528" data-name="Trazado 13528" d="M5,0A5,5,0,1,1,0,5,5,5,0,0,1,5,0Z" transform="translate(260 992)" fill="#00a99a"/>
    <path id="Trazado_13529" data-name="Trazado 13529" d="M5,0A5,5,0,1,1,0,5,5,5,0,0,1,5,0Z" transform="translate(245 984)" fill="#00a99a"/>
    <path id="Trazado_13525" data-name="Trazado 13525" d="M5,0A5,5,0,1,1,0,5,5,5,0,0,1,5,0Z" transform="translate(349 991)" fill="#00a99a"/>
    <path id="Trazado_13520" data-name="Trazado 13520" d="M5,0A5,5,0,1,1,0,5,5,5,0,0,1,5,0Z" transform="translate(385 988)" fill="#00a99a"/>
    <path id="Trazado_13524" data-name="Trazado 13524" d="M5,0A5,5,0,1,1,0,5,5,5,0,0,1,5,0Z" transform="translate(366 984)" fill="#00a99a"/>
    <path id="Trazado_13521" data-name="Trazado 13521" d="M3.92-9.12v2.96H9.1v2.08H3.92V0H1.328V-11.2H9.792v2.08ZM18.464-2.4h-5.2L12.272,0H9.616l4.992-11.2h2.56L22.176,0h-2.72Zm-.816-1.968L15.872-8.656,14.1-4.368Zm5.7-6.832h2.592v9.088h5.616V0H23.344Zm9.664,0H38.1a7.151,7.151,0,0,1,3.224.7A5.211,5.211,0,0,1,43.5-8.544,5.513,5.513,0,0,1,44.272-5.6,5.513,5.513,0,0,1,43.5-2.656,5.211,5.211,0,0,1,41.32-.7,7.151,7.151,0,0,1,38.1,0H33.008Zm4.96,9.072a3.764,3.764,0,0,0,2.68-.936,3.306,3.306,0,0,0,1-2.536,3.306,3.306,0,0,0-1-2.536,3.764,3.764,0,0,0-2.68-.936H35.6v6.944ZM53.44-2.4h-5.2L47.248,0H44.592l4.992-11.2h2.56L57.152,0h-2.72Zm-.816-1.968L50.848-8.656,49.072-4.368ZM9.552,17.176a2.953,2.953,0,0,1,1.5,1.016,2.8,2.8,0,0,1,.544,1.752,2.588,2.588,0,0,1-1.144,2.264A5.849,5.849,0,0,1,7.12,23H1.328V11.8H6.8a5.356,5.356,0,0,1,3.144.784,2.481,2.481,0,0,1,1.1,2.128,2.691,2.691,0,0,1-1.488,2.464ZM3.9,13.752v2.64H6.48a2.6,2.6,0,0,0,1.456-.336,1.121,1.121,0,0,0,.5-.992,1.1,1.1,0,0,0-.5-.984,2.651,2.651,0,0,0-1.456-.328Zm3.024,7.3a2.872,2.872,0,0,0,1.544-.336,1.151,1.151,0,0,0,.52-1.04q0-1.392-2.064-1.392H3.9v2.768ZM20.944,20.6h-5.2L14.752,23H12.1l4.992-11.2h2.56L24.656,23h-2.72Zm-.816-1.968-1.776-4.288-1.776,4.288ZM19.072,8.584H21.76l-2.9,2.3H16.912ZM29.5,23.192a9.164,9.164,0,0,1-2.568-.36,6.023,6.023,0,0,1-1.992-.936l.88-1.952a5.972,5.972,0,0,0,1.712.848,6.43,6.43,0,0,0,1.984.32,3.17,3.17,0,0,0,1.632-.328.991.991,0,0,0,.528-.872.834.834,0,0,0-.312-.664,2.365,2.365,0,0,0-.8-.424q-.488-.16-1.32-.352a18.248,18.248,0,0,1-2.1-.608,3.405,3.405,0,0,1-1.4-.976,2.636,2.636,0,0,1-.584-1.792,3.117,3.117,0,0,1,.528-1.768,3.552,3.552,0,0,1,1.592-1.256,6.5,6.5,0,0,1,2.6-.464,8.609,8.609,0,0,1,2.1.256,6.192,6.192,0,0,1,1.792.736l-.8,1.968a6.245,6.245,0,0,0-3.1-.88,2.91,2.91,0,0,0-1.608.352,1.074,1.074,0,0,0-.52.928.907.907,0,0,0,.6.856,9.42,9.42,0,0,0,1.832.552,18.247,18.247,0,0,1,2.1.608,3.471,3.471,0,0,1,1.4.96,2.574,2.574,0,0,1,.584,1.776,3.058,3.058,0,0,1-.536,1.752,3.6,3.6,0,0,1-1.608,1.256A6.555,6.555,0,0,1,29.5,23.192ZM36.032,11.8h2.592V23H36.032ZM46.64,23.192a6.433,6.433,0,0,1-3.1-.744,5.553,5.553,0,0,1-2.176-2.064,5.687,5.687,0,0,1-.792-2.984,5.687,5.687,0,0,1,.792-2.984,5.552,5.552,0,0,1,2.176-2.064,6.944,6.944,0,0,1,5.744-.232,5.272,5.272,0,0,1,1.976,1.472L49.6,15.128a3.578,3.578,0,0,0-2.816-1.312,3.739,3.739,0,0,0-1.856.456,3.242,3.242,0,0,0-1.272,1.272,4.005,4.005,0,0,0,0,3.712,3.242,3.242,0,0,0,1.272,1.272,3.739,3.739,0,0,0,1.856.456A3.561,3.561,0,0,0,49.6,19.656l1.664,1.536A5.187,5.187,0,0,1,49.28,22.68,6.585,6.585,0,0,1,46.64,23.192ZM60.16,20.6h-5.2L53.968,23H51.312L56.3,11.8h2.56L63.872,23h-2.72Zm-.816-1.968-1.776-4.288-1.776,4.288Z" transform="translate(323 1175)" fill="#3b1f10"/>
    <path id="Trazado_13522" data-name="Trazado 13522" d="M3.648-9.088H.064V-11.2h9.76v2.112H6.24V0H3.648ZM18.032-2.4h-5.2L11.84,0H9.184l4.992-11.2h2.56L21.744,0h-2.72Zm-.816-1.968L15.44-8.656,13.664-4.368Zm5.7-6.832H25.5v9.088H31.12V0H22.912Zm9.664,0h2.592v9.088h5.616V0H32.576ZM49.712-2.4h-5.2L43.52,0H40.864l4.992-11.2h2.56L53.424,0H50.7ZM48.9-4.368,47.12-8.656,45.344-4.368ZM66.08-5.888A3.169,3.169,0,0,1,67.352-4.8a2.769,2.769,0,0,1,.44,1.552A2.909,2.909,0,0,1,67.2-1.432a3.78,3.78,0,0,1-1.664,1.2,6.711,6.711,0,0,1-2.48.424,6.648,6.648,0,0,1-2.472-.424,3.728,3.728,0,0,1-1.648-1.2,2.936,2.936,0,0,1-.584-1.816,2.769,2.769,0,0,1,.44-1.552,3.191,3.191,0,0,1,1.256-1.088,2.733,2.733,0,0,1-.96-.968,2.63,2.63,0,0,1-.336-1.336,2.734,2.734,0,0,1,.544-1.7A3.471,3.471,0,0,1,60.816-11a5.975,5.975,0,0,1,2.24-.392A6.084,6.084,0,0,1,65.32-11a3.466,3.466,0,0,1,1.528,1.112,2.734,2.734,0,0,1,.544,1.7,2.63,2.63,0,0,1-.336,1.336A2.7,2.7,0,0,1,66.08-5.888Zm-3.024-3.6a1.958,1.958,0,0,0-1.256.376,1.247,1.247,0,0,0-.472,1.032,1.217,1.217,0,0,0,.464,1.008,1.981,1.981,0,0,0,1.264.368,2.05,2.05,0,0,0,1.28-.368,1.2,1.2,0,0,0,.48-1.008,1.239,1.239,0,0,0-.48-1.032A2.019,2.019,0,0,0,63.056-9.488Zm0,7.776a2.46,2.46,0,0,0,1.544-.44,1.412,1.412,0,0,0,.568-1.176A1.391,1.391,0,0,0,64.6-4.5a2.492,2.492,0,0,0-1.544-.432,2.428,2.428,0,0,0-1.52.432,1.4,1.4,0,0,0-.56,1.168,1.414,1.414,0,0,0,.56,1.184A2.428,2.428,0,0,0,63.056-1.712Z" transform="translate(323 1233)" fill="#3b1f10"/>
    <path id="Trazado_13523" data-name="Trazado 13523" d="M3.92-9.12v2.96H9.1v2.08H3.92V0H1.328V-11.2H9.792v2.08ZM18.688,0l-2.16-3.12H14.144V0H11.552V-11.2H16.4a6.222,6.222,0,0,1,2.584.5A3.839,3.839,0,0,1,20.672-9.3a3.879,3.879,0,0,1,.592,2.16,3.8,3.8,0,0,1-.6,2.152A3.8,3.8,0,0,1,18.96-3.6L21.472,0ZM18.64-7.136a1.774,1.774,0,0,0-.608-1.448,2.722,2.722,0,0,0-1.776-.5H14.144v3.9h2.112A2.692,2.692,0,0,0,18.032-5.7,1.779,1.779,0,0,0,18.64-7.136ZM31.984-2.08V0H23.312V-11.2h8.464v2.08H25.888v2.432h5.2v2.016h-5.2V-2.08ZM44.32-11.2V0H42.192L36.608-6.8V0h-2.56V-11.2h2.144L41.76-4.4v-6.8ZM49.3-9.088H45.712V-11.2h9.76v2.112H51.888V0H49.3ZM65.536-2.08V0H56.864V-11.2h8.464v2.08H59.44v2.432h5.2v2.016h-5.2V-2.08Z" transform="translate(323 1256)" fill="#3b1f10"/>
    <path id="Trazado_13516" data-name="Trazado 13516" d="M8.464,0,6.3-3.12H3.92V0H1.328V-11.2H6.176a6.222,6.222,0,0,1,2.584.5A3.839,3.839,0,0,1,10.448-9.3a3.879,3.879,0,0,1,.592,2.16,3.8,3.8,0,0,1-.6,2.152A3.8,3.8,0,0,1,8.736-3.6L11.248,0ZM8.416-7.136a1.774,1.774,0,0,0-.608-1.448,2.722,2.722,0,0,0-1.776-.5H3.92v3.9H6.032A2.692,2.692,0,0,0,7.808-5.7,1.779,1.779,0,0,0,8.416-7.136ZM21.76-2.08V0H13.088V-11.2h8.464v2.08H15.664v2.432h5.2v2.016h-5.2V-2.08Zm4.656-7.04v2.96H31.6v2.08H26.416V0H23.824V-11.2h8.464v2.08Zm16.3,7.04V0H34.048V-11.2h8.464v2.08H36.624v2.432h5.2v2.016h-5.2V-2.08ZM51.92,0,49.76-3.12H47.376V0H44.784V-11.2h4.848a6.222,6.222,0,0,1,2.584.5A3.839,3.839,0,0,1,53.9-9.3a3.879,3.879,0,0,1,.592,2.16,3.8,3.8,0,0,1-.6,2.152,3.8,3.8,0,0,1-1.7,1.384L54.7,0Zm-.048-7.136a1.774,1.774,0,0,0-.608-1.448,2.722,2.722,0,0,0-1.776-.5H47.376v3.9h2.112A2.692,2.692,0,0,0,51.264-5.7,1.779,1.779,0,0,0,51.872-7.136ZM65.216-2.08V0H56.544V-11.2h8.464v2.08H59.12v2.432h5.2v2.016h-5.2V-2.08ZM77.552-11.2V0H75.424L69.84-6.8V0H67.28V-11.2h2.144l5.568,6.8v-6.8ZM85.568.192a6.433,6.433,0,0,1-3.1-.744A5.552,5.552,0,0,1,80.3-2.616,5.687,5.687,0,0,1,79.5-5.6,5.687,5.687,0,0,1,80.3-8.584a5.552,5.552,0,0,1,2.176-2.064,6.467,6.467,0,0,1,3.112-.744,6.528,6.528,0,0,1,2.632.512,5.272,5.272,0,0,1,1.976,1.472L88.528-7.872a3.578,3.578,0,0,0-2.816-1.312,3.739,3.739,0,0,0-1.856.456,3.242,3.242,0,0,0-1.272,1.272A3.739,3.739,0,0,0,82.128-5.6a3.739,3.739,0,0,0,.456,1.856,3.242,3.242,0,0,0,1.272,1.272,3.739,3.739,0,0,0,1.856.456,3.561,3.561,0,0,0,2.816-1.328l1.664,1.536A5.187,5.187,0,0,1,88.208-.32,6.585,6.585,0,0,1,85.568.192ZM91.936-11.2h2.592V0H91.936ZM104.56-2.4h-5.2L98.368,0H95.712L100.7-11.2h2.56L108.272,0h-2.72Zm-.816-1.968-1.776-4.288-1.776,4.288Z" transform="translate(323 1278)" fill="#3b1f10"/>
    <path id="Trazado_13517" data-name="Trazado 13517" d="M6.176-11.2a6.222,6.222,0,0,1,2.584.5A3.839,3.839,0,0,1,10.448-9.3a3.879,3.879,0,0,1,.592,2.16,3.889,3.889,0,0,1-.592,2.152A3.77,3.77,0,0,1,8.76-3.576a6.311,6.311,0,0,1-2.584.488H3.92V0H1.328V-11.2Zm-.144,6a2.722,2.722,0,0,0,1.776-.5,1.755,1.755,0,0,0,.608-1.432,1.774,1.774,0,0,0-.608-1.448,2.722,2.722,0,0,0-1.776-.5H3.92V-5.2Zm6.848-6h2.592V0H12.88ZM26.8-2.08V0H18.128V-11.2h8.464v2.08H20.7v2.432h5.2v2.016H20.7V-2.08Zm11.136-.032V0H28.144V-1.68l6.144-7.408H28.272V-11.2H37.7v1.68L31.568-2.112Zm9.04-.288h-5.2L40.784,0H38.128L43.12-11.2h2.56L50.688,0h-2.72ZM46.16-4.368,44.384-8.656,42.608-4.368ZM60-11.2V0H57.408V-9.12h-2.24V-11.2Zm6.08-2.272H68.3L63.024,1.6H60.8ZM73.456-6.64a3.77,3.77,0,0,1,2.256,1.1,3.021,3.021,0,0,1,.784,2.12,3.346,3.346,0,0,1-.512,1.8A3.566,3.566,0,0,1,74.424-.3a5.976,5.976,0,0,1-2.568.5A8.809,8.809,0,0,1,69.528-.12a6,6,0,0,1-1.944-.888l1.008-1.984a4.884,4.884,0,0,0,1.48.744,5.7,5.7,0,0,0,1.72.264,2.726,2.726,0,0,0,1.536-.376,1.208,1.208,0,0,0,.56-1.064q0-1.376-2.1-1.376H70.608V-6.512l2.3-2.608H68.144V-11.2h7.84v1.68Z" transform="translate(323 1301)" fill="#3b1f10"/>
    <path id="Trazado_13518" data-name="Trazado 13518" d="M5.4-9.8a5.444,5.444,0,0,1,2.261.434A3.359,3.359,0,0,1,9.142-8.134a3.394,3.394,0,0,1,.518,1.89,3.4,3.4,0,0,1-.518,1.883A3.3,3.3,0,0,1,7.665-3.129,5.522,5.522,0,0,1,5.4-2.7H3.43V0H1.162V-9.8ZM5.278-4.55a2.382,2.382,0,0,0,1.554-.441,1.536,1.536,0,0,0,.532-1.253,1.552,1.552,0,0,0-.532-1.267,2.382,2.382,0,0,0-1.554-.441H3.43v3.4Zm8.806-3.094a3.92,3.92,0,0,1,2.688.833A3.188,3.188,0,0,1,17.71-4.3V0H15.666V-.938a2.434,2.434,0,0,1-2.3,1.05,3.563,3.563,0,0,1-1.505-.294,2.244,2.244,0,0,1-.973-.812,2.113,2.113,0,0,1-.336-1.176,1.962,1.962,0,0,1,.791-1.652,4.031,4.031,0,0,1,2.443-.6h1.736a1.392,1.392,0,0,0-.434-1.1,1.912,1.912,0,0,0-1.3-.385,3.8,3.8,0,0,0-1.183.189,3.13,3.13,0,0,0-.987.511l-.784-1.526a4.73,4.73,0,0,1,1.477-.672A6.616,6.616,0,0,1,14.084-7.644Zm-.168,6.286a1.9,1.9,0,0,0,.994-.259,1.417,1.417,0,0,0,.616-.763v-.77h-1.5q-1.344,0-1.344.882a.785.785,0,0,0,.329.665A1.482,1.482,0,0,0,13.916-1.358Zm10.626.994a2.245,2.245,0,0,1-.791.357,4,4,0,0,1-.987.119,2.932,2.932,0,0,1-2.079-.686A2.625,2.625,0,0,1,19.95-2.59V-5.684H18.788v-1.68H19.95V-9.2h2.184v1.834H24.01v1.68H22.134v3.066a1.028,1.028,0,0,0,.245.735.908.908,0,0,0,.693.259,1.4,1.4,0,0,0,.882-.28ZM27.86-6.538a2.429,2.429,0,0,1,1.057-.826,3.923,3.923,0,0,1,1.533-.28v2.016q-.364-.028-.49-.028a2,2,0,0,0-1.47.525,2.122,2.122,0,0,0-.532,1.575V0H25.774V-7.532H27.86ZM35.266.112a4.516,4.516,0,0,1-2.135-.5,3.7,3.7,0,0,1-1.477-1.379,3.8,3.8,0,0,1-.532-2,3.8,3.8,0,0,1,.532-2,3.7,3.7,0,0,1,1.477-1.379,4.516,4.516,0,0,1,2.135-.5,4.475,4.475,0,0,1,2.128.5,3.706,3.706,0,0,1,1.47,1.379,3.8,3.8,0,0,1,.532,2,3.8,3.8,0,0,1-.532,2,3.706,3.706,0,0,1-1.47,1.379A4.475,4.475,0,0,1,35.266.112Zm0-1.792a1.819,1.819,0,0,0,1.379-.567,2.114,2.114,0,0,0,.539-1.519,2.114,2.114,0,0,0-.539-1.519,1.819,1.819,0,0,0-1.379-.567,1.842,1.842,0,0,0-1.386.567,2.1,2.1,0,0,0-.546,1.519,2.1,2.1,0,0,0,.546,1.519A1.842,1.842,0,0,0,35.266-1.68Zm.588-8.834h2.352L35.672-8.5H33.964Zm9.576,2.87a3.1,3.1,0,0,1,2.261.84,3.331,3.331,0,0,1,.861,2.492V0H46.368V-3.976a1.963,1.963,0,0,0-.392-1.337,1.438,1.438,0,0,0-1.134-.441,1.738,1.738,0,0,0-1.316.511,2.116,2.116,0,0,0-.49,1.519V0H40.852V-7.532h2.086v.882a2.9,2.9,0,0,1,1.078-.735A3.756,3.756,0,0,1,45.43-7.644ZM63.63-9.8V0H61.768L56.882-5.95V0h-2.24V-9.8h1.876L61.39-3.85V-9.8ZM69.384.112a4.516,4.516,0,0,1-2.135-.5,3.7,3.7,0,0,1-1.477-1.379,3.8,3.8,0,0,1-.532-2,3.8,3.8,0,0,1,.532-2,3.7,3.7,0,0,1,1.477-1.379,4.516,4.516,0,0,1,2.135-.5,4.475,4.475,0,0,1,2.128.5,3.706,3.706,0,0,1,1.47,1.379,3.8,3.8,0,0,1,.532,2,3.8,3.8,0,0,1-.532,2,3.706,3.706,0,0,1-1.47,1.379A4.475,4.475,0,0,1,69.384.112Zm0-1.792a1.819,1.819,0,0,0,1.379-.567A2.114,2.114,0,0,0,71.3-3.766a2.114,2.114,0,0,0-.539-1.519,1.819,1.819,0,0,0-1.379-.567A1.842,1.842,0,0,0,68-5.285a2.1,2.1,0,0,0-.546,1.519A2.1,2.1,0,0,0,68-2.247,1.842,1.842,0,0,0,69.384-1.68ZM82.25-9.8V0H79.982V-7.98h-1.96V-9.8ZM5.4,10.2a5.444,5.444,0,0,1,2.261.434,3.359,3.359,0,0,1,1.477,1.232,3.394,3.394,0,0,1,.518,1.89,3.4,3.4,0,0,1-.518,1.883,3.3,3.3,0,0,1-1.477,1.232A5.522,5.522,0,0,1,5.4,17.3H3.43V20H1.162V10.2Zm-.126,5.25a2.382,2.382,0,0,0,1.554-.441,1.536,1.536,0,0,0,.532-1.253,1.552,1.552,0,0,0-.532-1.267,2.382,2.382,0,0,0-1.554-.441H3.43v3.4Zm8.806-3.094a3.92,3.92,0,0,1,2.688.833A3.188,3.188,0,0,1,17.71,15.7V20H15.666v-.938a2.434,2.434,0,0,1-2.3,1.05,3.563,3.563,0,0,1-1.505-.294,2.244,2.244,0,0,1-.973-.812,2.113,2.113,0,0,1-.336-1.176,1.962,1.962,0,0,1,.791-1.652,4.031,4.031,0,0,1,2.443-.6h1.736a1.392,1.392,0,0,0-.434-1.1,1.912,1.912,0,0,0-1.3-.385,3.8,3.8,0,0,0-1.183.189,3.13,3.13,0,0,0-.987.511l-.784-1.526a4.73,4.73,0,0,1,1.477-.672A6.616,6.616,0,0,1,14.084,12.356Zm-.168,6.286a1.9,1.9,0,0,0,.994-.259,1.417,1.417,0,0,0,.616-.763v-.77h-1.5q-1.344,0-1.344.882a.785.785,0,0,0,.329.665A1.482,1.482,0,0,0,13.916,18.642Zm10.626.994a2.245,2.245,0,0,1-.791.357,4,4,0,0,1-.987.119,2.932,2.932,0,0,1-2.079-.686,2.625,2.625,0,0,1-.735-2.016V14.316H18.788v-1.68H19.95V10.8h2.184v1.834H24.01v1.68H22.134v3.066a1.028,1.028,0,0,0,.245.735.908.908,0,0,0,.693.259,1.4,1.4,0,0,0,.882-.28Zm3.318-6.174a2.429,2.429,0,0,1,1.057-.826,3.923,3.923,0,0,1,1.533-.28v2.016q-.364-.028-.49-.028a2,2,0,0,0-1.47.525,2.122,2.122,0,0,0-.532,1.575V20H25.774V12.468H27.86Zm7.406,6.65a4.516,4.516,0,0,1-2.135-.5,3.7,3.7,0,0,1-1.477-1.379,4.033,4.033,0,0,1,0-4,3.7,3.7,0,0,1,1.477-1.379,4.819,4.819,0,0,1,4.263,0,3.706,3.706,0,0,1,1.47,1.379,4.033,4.033,0,0,1,0,4,3.706,3.706,0,0,1-1.47,1.379A4.475,4.475,0,0,1,35.266,20.112Zm0-1.792a1.819,1.819,0,0,0,1.379-.567,2.114,2.114,0,0,0,.539-1.519,2.114,2.114,0,0,0-.539-1.519,1.819,1.819,0,0,0-1.379-.567,1.842,1.842,0,0,0-1.386.567,2.1,2.1,0,0,0-.546,1.519,2.1,2.1,0,0,0,.546,1.519A1.842,1.842,0,0,0,35.266,18.32ZM45.43,12.356a3.1,3.1,0,0,1,2.261.84,3.331,3.331,0,0,1,.861,2.492V20H46.368V16.024a1.963,1.963,0,0,0-.392-1.337,1.438,1.438,0,0,0-1.134-.441,1.738,1.738,0,0,0-1.316.511,2.116,2.116,0,0,0-.49,1.519V20H40.852V12.468h2.086v.882a2.9,2.9,0,0,1,1.078-.735A3.756,3.756,0,0,1,45.43,12.356Zm5.1.112H52.71V20H50.526Zm1.092-1.05a1.385,1.385,0,0,1-.98-.35,1.186,1.186,0,0,1,0-1.736,1.385,1.385,0,0,1,.98-.35,1.42,1.42,0,0,1,.98.336,1.077,1.077,0,0,1,.378.84,1.189,1.189,0,0,1-.378.9A1.369,1.369,0,0,1,51.618,11.418Zm5.656,8.694a7.317,7.317,0,0,1-1.834-.231,4.792,4.792,0,0,1-1.428-.581l.728-1.568a4.582,4.582,0,0,0,1.218.525,5.1,5.1,0,0,0,1.4.2q1.386,0,1.386-.686a.486.486,0,0,0-.378-.462,5.6,5.6,0,0,0-1.162-.238,11.21,11.21,0,0,1-1.526-.322,2.368,2.368,0,0,1-1.043-.644,1.831,1.831,0,0,1-.441-1.316,2.061,2.061,0,0,1,.413-1.267,2.658,2.658,0,0,1,1.2-.861,5.142,5.142,0,0,1,1.869-.308,7.335,7.335,0,0,1,1.589.175,4.442,4.442,0,0,1,1.309.483l-.728,1.554a4.346,4.346,0,0,0-2.17-.56,2.208,2.208,0,0,0-1.05.2.576.576,0,0,0-.35.5.5.5,0,0,0,.378.49,6.692,6.692,0,0,0,1.2.266,12.888,12.888,0,0,1,1.512.329,2.271,2.271,0,0,1,1.022.637,1.808,1.808,0,0,1,.434,1.288,1.989,1.989,0,0,1-.42,1.246,2.681,2.681,0,0,1-1.225.847A5.458,5.458,0,0,1,57.274,20.112Zm9.758-.476a2.245,2.245,0,0,1-.791.357,4,4,0,0,1-.987.119,2.932,2.932,0,0,1-2.079-.686,2.625,2.625,0,0,1-.735-2.016V14.316H61.278v-1.68H62.44V10.8h2.184v1.834H66.5v1.68H64.624v3.066a1.028,1.028,0,0,0,.245.735.908.908,0,0,0,.693.259,1.4,1.4,0,0,0,.882-.28Zm4.27-7.28a3.92,3.92,0,0,1,2.688.833,3.188,3.188,0,0,1,.938,2.513V20H72.884v-.938a2.434,2.434,0,0,1-2.3,1.05,3.563,3.563,0,0,1-1.5-.294,2.244,2.244,0,0,1-.973-.812,2.113,2.113,0,0,1-.336-1.176,1.962,1.962,0,0,1,.791-1.652,4.031,4.031,0,0,1,2.443-.6h1.736a1.392,1.392,0,0,0-.434-1.1,1.912,1.912,0,0,0-1.3-.385,3.8,3.8,0,0,0-1.183.189,3.13,3.13,0,0,0-.987.511l-.784-1.526a4.73,4.73,0,0,1,1.477-.672A6.616,6.616,0,0,1,71.3,12.356Zm-.168,6.286a1.9,1.9,0,0,0,.994-.259,1.417,1.417,0,0,0,.616-.763v-.77h-1.5q-1.344,0-1.344.882a.785.785,0,0,0,.329.665A1.482,1.482,0,0,0,71.134,18.642Z" transform="translate(328 1391)" fill="#00a99a"/>
    <path id="Trazado_13514" data-name="Trazado 13514" d="M5,0A5,5,0,1,1,0,5,5,5,0,0,1,5,0Z" transform="translate(436 1410)" fill="#00a99a"/>
    <path id="Trazado_13318" data-name="Trazado 13318" d="M2350.719-181.664h223.727" transform="translate(-1963 1239)" fill="none" stroke="#ed3a3a" stroke-width="2"/>
    <path id="Trazado_13510" data-name="Trazado 13510" d="M11.5,0,23,20H0Z" transform="translate(629.5 1045.5) rotate(90)" fill="#ed3a3a"/>
    <path id="Trazado_13502" data-name="Trazado 13502" d="M12.117-11.129A4.4,4.4,0,0,1,10.49-7.46,7.372,7.372,0,0,1,5.833-6.177H3.985V0H2.159V-15.705H6.23Q12.117-15.705,12.117-11.129ZM3.985-7.745H5.629a6.108,6.108,0,0,0,3.513-.784,2.89,2.89,0,0,0,1.085-2.514,2.709,2.709,0,0,0-1.021-2.32,5.331,5.331,0,0,0-3.18-.763H3.985ZM20.109.215a5.409,5.409,0,0,1-4.12-1.59A6.155,6.155,0,0,1,14.48-5.79a6.826,6.826,0,0,1,1.4-4.522,4.657,4.657,0,0,1,3.765-1.676,4.44,4.44,0,0,1,3.5,1.456,5.579,5.579,0,0,1,1.289,3.84v1.128h-8.11a4.667,4.667,0,0,0,1.047,3.147,3.622,3.622,0,0,0,2.8,1.074,9.483,9.483,0,0,0,3.76-.795v1.59a9.437,9.437,0,0,1-1.789.585A10.051,10.051,0,0,1,20.109.215ZM19.626-10.5a2.912,2.912,0,0,0-2.261.924,4.258,4.258,0,0,0-.994,2.557h6.155A3.921,3.921,0,0,0,21.774-9.6,2.647,2.647,0,0,0,19.626-10.5ZM32.85-11.988a6.978,6.978,0,0,1,1.407.129l-.247,1.654a6.074,6.074,0,0,0-1.289-.161,3.138,3.138,0,0,0-2.444,1.16,4.23,4.23,0,0,0-1.015,2.89V0H27.479V-11.773H28.95l.2,2.181h.086a5.175,5.175,0,0,1,1.579-1.772A3.555,3.555,0,0,1,32.85-11.988Zm8.916,1.6h-3V0H36.985V-10.388H34.88v-.806l2.105-.645v-.655q0-4.34,3.792-4.34a7.8,7.8,0,0,1,2.191.376l-.462,1.429a5.9,5.9,0,0,0-1.762-.333,1.716,1.716,0,0,0-1.493.671,3.747,3.747,0,0,0-.483,2.154v.763h3ZM54.076-5.9a6.5,6.5,0,0,1-1.45,4.5A5.107,5.107,0,0,1,48.619.215a5.307,5.307,0,0,1-2.8-.741,4.892,4.892,0,0,1-1.891-2.127A7.413,7.413,0,0,1,43.259-5.9,6.485,6.485,0,0,1,44.7-10.382a5.091,5.091,0,0,1,4-1.606,4.981,4.981,0,0,1,3.926,1.644A6.467,6.467,0,0,1,54.076-5.9Zm-8.97,0a5.588,5.588,0,0,0,.9,3.438,3.132,3.132,0,0,0,2.653,1.182,3.153,3.153,0,0,0,2.659-1.176A5.56,5.56,0,0,0,52.229-5.9a5.47,5.47,0,0,0-.908-3.411,3.189,3.189,0,0,0-2.68-1.166A3.139,3.139,0,0,0,46-9.324,5.532,5.532,0,0,0,45.106-5.9Zm17.467-6.091a6.978,6.978,0,0,1,1.407.129l-.247,1.654a6.074,6.074,0,0,0-1.289-.161A3.138,3.138,0,0,0,60-9.206a4.23,4.23,0,0,0-1.015,2.89V0H57.2V-11.773h1.472l.2,2.181h.086a5.175,5.175,0,0,1,1.579-1.772A3.555,3.555,0,0,1,62.573-11.988ZM72.982,0l-.354-1.676h-.086a4.954,4.954,0,0,1-1.756,1.5A5.353,5.353,0,0,1,68.6.215a3.932,3.932,0,0,1-2.745-.9,3.291,3.291,0,0,1-.994-2.567q0-3.566,5.7-3.738l2-.064v-.73a2.985,2.985,0,0,0-.6-2.046,2.452,2.452,0,0,0-1.907-.661,7.769,7.769,0,0,0-3.33.9l-.548-1.364a8.379,8.379,0,0,1,1.907-.741,8.258,8.258,0,0,1,2.079-.269,4.485,4.485,0,0,1,3.121.935,3.9,3.9,0,0,1,1.015,3V0ZM68.954-1.257A3.619,3.619,0,0,0,71.57-2.17a3.378,3.378,0,0,0,.951-2.557V-5.79l-1.783.075a6.486,6.486,0,0,0-3.067.661,1.992,1.992,0,0,0-.94,1.821,1.837,1.837,0,0,0,.585,1.472A2.43,2.43,0,0,0,68.954-1.257ZM82.683.215a5.025,5.025,0,0,1-3.958-1.574,6.472,6.472,0,0,1-1.4-4.453,6.673,6.673,0,0,1,1.423-4.565A5.125,5.125,0,0,1,82.8-11.988a8.047,8.047,0,0,1,1.7.183,5.591,5.591,0,0,1,1.332.43l-.548,1.515a8.385,8.385,0,0,0-1.289-.392,5.756,5.756,0,0,0-1.235-.156q-3.588,0-3.588,4.576a5.449,5.449,0,0,0,.875,3.33,3.046,3.046,0,0,0,2.594,1.16,7.932,7.932,0,0,0,3.019-.634V-.4A6.433,6.433,0,0,1,82.683.215ZM90.234,0H88.451V-11.773h1.783ZM88.3-14.964a1.184,1.184,0,0,1,.3-.9,1.051,1.051,0,0,1,.752-.285,1.051,1.051,0,0,1,.741.29,1.163,1.163,0,0,1,.312.892,1.181,1.181,0,0,1-.312.9,1.04,1.04,0,0,1-.741.3,1.03,1.03,0,0,1-.752-.3A1.206,1.206,0,0,1,88.3-14.964ZM104.178-5.9a6.5,6.5,0,0,1-1.45,4.5A5.107,5.107,0,0,1,98.721.215a5.307,5.307,0,0,1-2.8-.741,4.892,4.892,0,0,1-1.891-2.127A7.413,7.413,0,0,1,93.36-5.9,6.485,6.485,0,0,1,94.8-10.382a5.091,5.091,0,0,1,4-1.606,4.981,4.981,0,0,1,3.926,1.644A6.467,6.467,0,0,1,104.178-5.9Zm-8.97,0a5.588,5.588,0,0,0,.9,3.438,3.132,3.132,0,0,0,2.653,1.182,3.153,3.153,0,0,0,2.659-1.176A5.56,5.56,0,0,0,102.33-5.9a5.47,5.47,0,0,0-.908-3.411,3.189,3.189,0,0,0-2.68-1.166A3.139,3.139,0,0,0,96.1-9.324,5.532,5.532,0,0,0,95.208-5.9Zm2.063-7.7q.516-.666,1.112-1.611a18.44,18.44,0,0,0,.94-1.644h2.17v.226a15.879,15.879,0,0,1-1.407,1.719,15.976,15.976,0,0,1-1.622,1.579H97.271ZM115.36,0V-7.616a3.073,3.073,0,0,0-.655-2.148,2.669,2.669,0,0,0-2.052-.709,3.384,3.384,0,0,0-2.707,1,5.044,5.044,0,0,0-.859,3.3V0H107.3V-11.773h1.45l.29,1.611h.086a3.641,3.641,0,0,1,1.536-1.348,4.991,4.991,0,0,1,2.2-.478,4.472,4.472,0,0,1,3.2,1.026,4.366,4.366,0,0,1,1.074,3.282V0Z" transform="translate(651 1065)" fill="#ed3a3a"/>
    <path id="Trazado_13319" data-name="Trazado 13319" d="M2937.457,8.77h-82.883L2836.23-15.1l-22.7,23.871-129-23.871s-72,132.086-65.289,292.664" transform="translate(-2033 1237)" fill="none" stroke="#00a99a" stroke-width="2"/>
    <path id="Trazado_13507" data-name="Trazado 13507" d="M5,0A5,5,0,1,1,0,5,5,5,0,0,1,5,0Z" transform="translate(647 1217)" fill="#00a99a"/>
    <circle id="Elipse_600" data-name="Elipse 600" cx="5" cy="5" r="5" transform="translate(581 1495)" fill="#00a99a"/>
    <path id="Trazado_13505" data-name="Trazado 13505" d="M5,0A5,5,0,1,1,0,5,5,5,0,0,1,5,0Z" transform="translate(776 1239)" fill="#00a99a"/>
    <path id="Trazado_13504" data-name="Trazado 13504" d="M5,0A5,5,0,1,1,0,5,5,5,0,0,1,5,0Z" transform="translate(797 1217)" fill="#00a99a"/>
    <path id="Trazado_13506" data-name="Trazado 13506" d="M5,0A5,5,0,1,1,0,5,5,5,0,0,1,5,0Z" transform="translate(817 1239)" fill="#00a99a"/>
    <g id="Trazado_13509" data-name="Trazado 13509" transform="translate(803 1338)" fill="none">
      <path d="M7,0A7,7,0,1,1,0,7,7,7,0,0,1,7,0Z" stroke="none"/>
      <path d="M 7 2 C 4.242989540100098 2 2 4.242989540100098 2 7 C 2 9.757009506225586 4.242989540100098 12 7 12 C 9.757009506225586 12 12 9.757009506225586 12 7 C 12 4.242989540100098 9.757009506225586 2 7 2 M 7 0 C 10.86598968505859 0 14 3.134010314941406 14 7 C 14 10.86598968505859 10.86598968505859 14 7 14 C 3.134010314941406 14 0 10.86598968505859 0 7 C 0 3.134010314941406 3.134010314941406 0 7 0 Z" stroke="none" fill="#00a99a"/>
    </g>
    <path id="Trazado_13320" data-name="Trazado 13320" d="M2404.57-108.391l174.063,21.777" transform="translate(-1963 1237)" fill="none" stroke="#ed3a3a" stroke-width="2"/>
    <path id="Trazado_13511" data-name="Trazado 13511" d="M11.5,0,23,20H0Z" transform="translate(629.5 1138.5) rotate(90)" fill="#ed3a3a"/>
    <path id="Trazado_13503" data-name="Trazado 13503" d="M12.117-11.129A4.4,4.4,0,0,1,10.49-7.46,7.372,7.372,0,0,1,5.833-6.177H3.985V0H2.159V-15.705H6.23Q12.117-15.705,12.117-11.129ZM3.985-7.745H5.629a6.108,6.108,0,0,0,3.513-.784,2.89,2.89,0,0,0,1.085-2.514,2.709,2.709,0,0,0-1.021-2.32,5.331,5.331,0,0,0-3.18-.763H3.985ZM16.919,0H15.136V-11.773h1.783ZM14.985-14.964a1.184,1.184,0,0,1,.3-.9,1.051,1.051,0,0,1,.752-.285,1.051,1.051,0,0,1,.741.29,1.163,1.163,0,0,1,.312.892,1.181,1.181,0,0,1-.312.9,1.04,1.04,0,0,1-.741.3,1.03,1.03,0,0,1-.752-.3A1.206,1.206,0,0,1,14.985-14.964ZM25.147-1.278a3.239,3.239,0,0,0,2.6-.956,5.178,5.178,0,0,0,.87-3.223v-.4a5.888,5.888,0,0,0-.838-3.556A3.142,3.142,0,0,0,25.126-10.5a2.729,2.729,0,0,0-2.4,1.219,6.062,6.062,0,0,0-.833,3.443,5.854,5.854,0,0,0,.822,3.389A2.785,2.785,0,0,0,25.147-1.278ZM24.879.215a4.3,4.3,0,0,1-3.556-1.6,6.988,6.988,0,0,1-1.278-4.469,7.077,7.077,0,0,1,1.289-4.512,4.326,4.326,0,0,1,3.588-1.622,4.287,4.287,0,0,1,3.717,1.826h.1l.258-1.611H30.4V5.285H28.617V.247a12,12,0,0,1,.118-1.826H28.6A4.212,4.212,0,0,1,24.879.215ZM35.857-11.773v7.638a3.073,3.073,0,0,0,.655,2.148,2.669,2.669,0,0,0,2.052.709,3.348,3.348,0,0,0,2.7-1.01,5.094,5.094,0,0,0,.854-3.3v-6.187H43.9V0H42.432l-.258-1.579h-.1a3.554,3.554,0,0,1-1.52,1.332,5.109,5.109,0,0,1-2.218.462A4.5,4.5,0,0,1,35.122-.806a4.344,4.344,0,0,1-1.069-3.266v-7.7ZM52.658.215a5.409,5.409,0,0,1-4.12-1.59A6.155,6.155,0,0,1,47.029-5.79a6.826,6.826,0,0,1,1.4-4.522A4.657,4.657,0,0,1,52.2-11.988a4.44,4.44,0,0,1,3.5,1.456,5.579,5.579,0,0,1,1.289,3.84v1.128h-8.11a4.667,4.667,0,0,0,1.047,3.147,3.622,3.622,0,0,0,2.8,1.074,9.483,9.483,0,0,0,3.76-.795v1.59a9.437,9.437,0,0,1-1.789.585A10.051,10.051,0,0,1,52.658.215ZM52.175-10.5a2.912,2.912,0,0,0-2.261.924,4.258,4.258,0,0,0-.994,2.557h6.155A3.921,3.921,0,0,0,54.323-9.6,2.647,2.647,0,0,0,52.175-10.5ZM63.83-1.257a5.825,5.825,0,0,0,.913-.07,5.911,5.911,0,0,0,.7-.145V-.107a3.26,3.26,0,0,1-.854.231,6.413,6.413,0,0,1-1.015.091q-3.416,0-3.416-3.6v-7H58.47v-.859l1.687-.741.752-2.514h1.031v2.729h3.416v1.386H61.939v6.929a2.384,2.384,0,0,0,.5,1.633A1.757,1.757,0,0,0,63.83-1.257ZM72.768.215a5.409,5.409,0,0,1-4.12-1.59A6.155,6.155,0,0,1,67.139-5.79a6.826,6.826,0,0,1,1.4-4.522,4.657,4.657,0,0,1,3.765-1.676,4.44,4.44,0,0,1,3.5,1.456A5.579,5.579,0,0,1,77.1-6.692v1.128h-8.11a4.667,4.667,0,0,0,1.047,3.147,3.622,3.622,0,0,0,2.8,1.074,9.483,9.483,0,0,0,3.76-.795v1.59A9.437,9.437,0,0,1,74.8.038,10.051,10.051,0,0,1,72.768.215ZM72.284-10.5a2.912,2.912,0,0,0-2.261.924,4.258,4.258,0,0,0-.994,2.557h6.155A3.921,3.921,0,0,0,74.433-9.6,2.647,2.647,0,0,0,72.284-10.5ZM87.731-3.212A2.949,2.949,0,0,1,86.507-.677a5.756,5.756,0,0,1-3.437.892,7.475,7.475,0,0,1-3.652-.741V-2.181a8.833,8.833,0,0,0,1.821.677,7.6,7.6,0,0,0,1.875.247A4.251,4.251,0,0,0,85.261-1.7a1.474,1.474,0,0,0,.752-1.359,1.475,1.475,0,0,0-.6-1.176,9.378,9.378,0,0,0-2.326-1.155,12.611,12.611,0,0,1-2.336-1.069A3.192,3.192,0,0,1,79.723-7.5a2.7,2.7,0,0,1-.338-1.386,2.642,2.642,0,0,1,1.171-2.272,5.456,5.456,0,0,1,3.212-.833,9.4,9.4,0,0,1,3.717.773l-.634,1.45a8.532,8.532,0,0,0-3.212-.73,3.7,3.7,0,0,0-1.912.4A1.229,1.229,0,0,0,81.082-9a1.334,1.334,0,0,0,.242.806,2.385,2.385,0,0,0,.779.634,17.4,17.4,0,0,0,2.063.87A7.705,7.705,0,0,1,87-5.156,2.709,2.709,0,0,1,87.731-3.212Z" transform="translate(651 1159)" fill="#ed3a3a"/>
    <g id="Trazado_13508" data-name="Trazado 13508" transform="translate(781 1309)" fill="none">
      <path d="M29,0C45.016,0,58,16.342,58,36.5S45.016,73,29,73,0,56.658,0,36.5,12.984,0,29,0Z" stroke="none"/>
      <path d="M 29 2 C 14.11214447021484 2 2 17.47663497924805 2 36.5 C 2 55.52336883544922 14.11214447021484 71 29 71 C 43.88785552978516 71 56 55.52336883544922 56 36.5 C 56 17.47663497924805 43.88785552978516 2 29 2 M 29 0 C 45.01625442504883 0 58 16.34159851074219 58 36.5 C 58 56.65838623046875 45.01625442504883 73 29 73 C 12.98374557495117 73 0 56.65838623046875 0 36.5 C 0 16.34159851074219 12.98374557495117 0 29 0 Z" stroke="none" fill="#ed3a3a"/>
    </g>
  </g>
</svg>
