<svg xmlns="http://www.w3.org/2000/svg" width="376.521" height="332.648" viewBox="0 0 376.521 332.648">
  <g id="Grupo_8879" data-name="Grupo 8879" transform="translate(-705.434 -25.792)">
    <g id="Grupo_8878" data-name="Grupo 8878" transform="translate(705.434 25.792)">
      <path id="Trazado_13325" data-name="Trazado 13325" d="M4159.139,2518.139a14.329,14.329,0,0,0-2.675-7.489,15.087,15.087,0,0,0-10.343-5.805,16.028,16.028,0,0,0,2.682,6.675A16.993,16.993,0,0,0,4159.139,2518.139Z" transform="translate(-3803.142 -2204.292)" fill="#fff"/>
      <path id="Trazado_13326" data-name="Trazado 13326" d="M4213.4,2553.3a12.809,12.809,0,0,0,9.519,1.28,13.014,13.014,0,0,0,8.17-7.037,24.572,24.572,0,0,0-5.07.182A26.106,26.106,0,0,0,4213.4,2553.3Z" transform="translate(-3858.001 -2239.063)" fill="#fff"/>
      <path id="Trazado_13327" data-name="Trazado 13327" d="M4209.748,2402.893a18.247,18.247,0,0,0-.766-6.935,19.11,19.11,0,0,0-7.358-9.807,13.749,13.749,0,0,0-.055,7.907C4203.392,2400.1,4208.909,2402.538,4209.748,2402.893Z" transform="translate(-3847.901 -2107.507)" fill="#fff"/>
      <path id="Trazado_13328" data-name="Trazado 13328" d="M4252.416,2413.9a18.222,18.222,0,0,0,5.893-3.731,19.109,19.109,0,0,0,5.583-10.916,24.63,24.63,0,0,0-4.108,2.979A26.134,26.134,0,0,0,4252.416,2413.9Z" transform="translate(-3889.816 -2118.195)" fill="#fff"/>
      <path id="Trazado_13329" data-name="Trazado 13329" d="M4197.663,2302.034a18.275,18.275,0,0,0-3.574-5.992,19.091,19.091,0,0,0-10.761-5.87,24.648,24.648,0,0,0,2.87,4.187A26.119,26.119,0,0,0,4197.663,2302.034Z" transform="translate(-3833.482 -2029.245)" fill="#fff"/>
      <path id="Trazado_13330" data-name="Trazado 13330" d="M4264.059,2292.423a18.228,18.228,0,0,0,5.968-3.611,19.108,19.108,0,0,0,5.8-10.8,24.658,24.658,0,0,0-4.167,2.9A26.141,26.141,0,0,0,4264.059,2292.423Z" transform="translate(-3899.31 -2019.33)" fill="#fff"/>
      <path id="Trazado_13331" data-name="Trazado 13331" d="M4253.387,2166.276a18.234,18.234,0,0,0,4.8-5.064,19.112,19.112,0,0,0,2.734-11.953,24.61,24.61,0,0,0-3.251,3.9A26.13,26.13,0,0,0,4253.387,2166.276Z" transform="translate(-3890.608 -1914.344)" fill="#fff"/>
      <path id="Trazado_13332" data-name="Trazado 13332" d="M4183.181,2198.366a18.286,18.286,0,0,0-4.3-5.5,19.092,19.092,0,0,0-11.412-4.474,24.706,24.706,0,0,0,3.371,3.794A26.115,26.115,0,0,0,4183.181,2198.366Z" transform="translate(-3820.553 -1946.256)" fill="#fff"/>
      <path id="Trazado_13333" data-name="Trazado 13333" d="M4209.848,2071.833a14.941,14.941,0,0,0,2.36-5.2,15.654,15.654,0,0,0-1.079-9.983,20.282,20.282,0,0,0-1.475,3.886A21.412,21.412,0,0,0,4209.848,2071.833Z" transform="translate(-3854.4 -1838.826)" fill="#fff"/>
      <path id="Trazado_13334" data-name="Trazado 13334" d="M4158.508,2103.773a13.756,13.756,0,0,0-3.354-4.069,14.113,14.113,0,0,0-8.668-3.09,18.521,18.521,0,0,0,2.62,2.8A19.341,19.341,0,0,0,4158.508,2103.773Z" transform="translate(-3803.44 -1871.416)" fill="#fff"/>
      <g id="Grupo_8845" data-name="Grupo 8845" transform="translate(171.367 48.194)">
        <path id="Trazado_13335" data-name="Trazado 13335" d="M3287.066,1188.045a14.953,14.953,0,0,1-3.089,4.806,15.632,15.632,0,0,1-8.968,4.508,20.171,20.171,0,0,1,2.464-3.348A21.384,21.384,0,0,1,3287.066,1188.045Z" transform="translate(-3264.196 -1178.753)" fill="#fff"/>
        <path id="Trazado_13336" data-name="Trazado 13336" d="M3280.9,1160.738a13.753,13.753,0,0,1-5.235-.612,14.116,14.116,0,0,1-7.3-5.611,18.513,18.513,0,0,1,3.77.685A19.34,19.34,0,0,1,3280.9,1160.738Z" transform="translate(-3258.78 -1151.412)" fill="#fff"/>
        <g id="Grupo_8844" data-name="Grupo 8844" transform="translate(0 9.127)">
          <path id="Trazado_13337" data-name="Trazado 13337" d="M3345.967,1298.237a.5.5,0,0,1-.957-.192c.7-41.814-19.783-79.316-53.462-97.872-30.784-16.959-62.364-11.924-74.513-8.972a.5.5,0,1,1-.234-.964c12.261-2.979,44.137-8.06,75.226,9.068a101.685,101.685,0,0,1,40.031,40.748A117.3,117.3,0,0,1,3346,1298.062.516.516,0,0,1,3345.967,1298.237Z" transform="translate(-3216.421 -1187.153)" fill="#fff"/>
        </g>
        <path id="Trazado_13338" data-name="Trazado 13338" d="M3738.963,1267.4a14.333,14.333,0,0,1-.932-7.9,15.093,15.093,0,0,1,6.684-9.8,16.042,16.042,0,0,1,.564,7.172A17,17,0,0,1,3738.963,1267.4Z" transform="translate(-3641.586 -1229.025)" fill="#fff"/>
        <path id="Trazado_13339" data-name="Trazado 13339" d="M3666.51,1343.189a12.81,12.81,0,0,1-7.957,5.382,13.006,13.006,0,0,1-10.446-2.668,24.584,24.584,0,0,1,4.623-2.093A26.105,26.105,0,0,1,3666.51,1343.189Z" transform="translate(-3568.423 -1304.735)" fill="#fff"/>
        <path id="Trazado_13340" data-name="Trazado 13340" d="M3622.362,1214.666a18.235,18.235,0,0,1-5.8-3.877,19.107,19.107,0,0,1-5.308-11.052,13.742,13.742,0,0,1,7.039,3.6C3622.817,1207.735,3622.434,1213.756,3622.362,1214.666Z" transform="translate(-3538.373 -1188.286)" fill="#fff"/>
        <path id="Trazado_13341" data-name="Trazado 13341" d="M3590.344,1283.145a18.233,18.233,0,0,1-6.025,3.513,19.085,19.085,0,0,1-12.256-.073,24.619,24.619,0,0,1,4.537-2.275A26.1,26.1,0,0,1,3590.344,1283.145Z" transform="translate(-3506.416 -1255.947)" fill="#fff"/>
        <path id="Trazado_13342" data-name="Trazado 13342" d="M3505.726,1156.911a18.221,18.221,0,0,1-5.8-3.874,19.108,19.108,0,0,1-5.315-11.049,24.645,24.645,0,0,1,4.035,3.08A26.138,26.138,0,0,1,3505.726,1156.911Z" transform="translate(-3443.26 -1141.198)" fill="#fff"/>
        <path id="Trazado_13343" data-name="Trazado 13343" d="M3490.141,1225.993a18.249,18.249,0,0,1-3.906,5.781,19.094,19.094,0,0,1-11.075,5.252,24.627,24.627,0,0,1,3.1-4.018A26.119,26.119,0,0,1,3490.141,1225.993Z" transform="translate(-3427.399 -1209.696)" fill="#fff"/>
        <path id="Trazado_13344" data-name="Trazado 13344" d="M3395.024,1194.03a18.26,18.26,0,0,1-2.625,6.465,19.094,19.094,0,0,1-9.748,7.433,24.683,24.683,0,0,1,2.2-4.573A26.119,26.119,0,0,1,3395.024,1194.03Z" transform="translate(-3351.967 -1183.633)" fill="#fff"/>
        <path id="Trazado_13345" data-name="Trazado 13345" d="M3381.44,1147.89a18.235,18.235,0,0,1-6.779-1.641,19.1,19.1,0,0,1-8.79-8.545,24.606,24.606,0,0,1,4.847,1.5A26.12,26.12,0,0,1,3381.44,1147.89Z" transform="translate(-3338.284 -1137.705)" fill="#fff"/>
      </g>
      <ellipse id="Elipse_606" data-name="Elipse 606" cx="6.155" cy="6.158" rx="6.155" ry="6.158" transform="translate(101.292 202.324)" fill="#feeec6"/>
      <path id="Trazado_13346" data-name="Trazado 13346" d="M2485.86,1375.566c-63.582-3.782-83.35-20.048-89.256-34.728-13.032-32.393,36.3-69.821,20.129-119.067-2.32-7.067-8.071-24.581-24.065-34.474-27.862-17.234-58.134,6.4-86.961-14.227-3.6-2.572-13.068-9.552-16.408-21.888-2.586-9.552-1.169-21.113,4.376-29,15.2-21.631,65.09-20.855,89.149,1.641,11,10.283,8.531,17.56,23.519,33.926,14.07,15.365,29.07,22.958,37.865,27.31,59.511,29.444,125.6,7.656,162.644,42.666,27.057,25.573,36.712,73.816,18.843,108.153C2604.611,1376.392,2545.394,1397.192,2485.86,1375.566Z" transform="translate(-2288.05 -1064.018)" fill="#feeec6"/>
      <g id="Grupo_8846" data-name="Grupo 8846" transform="translate(115.052 21.106)">
        <path id="Trazado_13347" data-name="Trazado 13347" d="M3142.844,994.337c0,1.868-3.2,3.383-7.147,3.383s-7.148-1.515-7.148-3.383,3.2-3.384,7.148-3.384S3142.844,992.468,3142.844,994.337Z" transform="translate(-3088.454 -990.953)" fill="#312b30"/>
        <rect id="Rectángulo_2194" data-name="Rectángulo 2194" width="7.686" height="19.378" transform="translate(43.399 3.383)" fill="#312b30"/>
        <rect id="Rectángulo_2195" data-name="Rectángulo 2195" width="8.967" height="85.679" transform="translate(42.759 203.776)" fill="#aaa"/>
        <rect id="Rectángulo_2196" data-name="Rectángulo 2196" width="63.946" height="18.045" transform="translate(15.269 278.902)" fill="#312b30"/>
        <path id="Trazado_13348" data-name="Trazado 13348" d="M3005.823,1188.171c-6.7-2.072-12.281-4.152-16.506-5.844-10.323-4.135-13.226-6.228-15.1-9.535a17.444,17.444,0,0,1-2.082-8.818h-27.106a17.438,17.438,0,0,1-2.081,8.818c-1.876,3.307-4.779,5.4-15.1,9.535-4.225,1.693-9.805,3.772-16.506,5.844.893,4.819,2.3,12.105,4.26,20.916,8.932,40.243,14.161,44.421,12.585,59.467-1.329,12.683-5.689,15.865-8.435,23.969-1.466,4.324-1.806,7.621-2.214,12.839-1.021,13.067.777,25.685,2.323,33.732a138.819,138.819,0,0,0,38.046,5.024c.228,0,.452-.007.678-.012s.45.01.678.012a138.818,138.818,0,0,0,38.045-5.024c1.547-8.047,3.344-20.665,2.323-33.732-.407-5.219-.749-8.515-2.214-12.839-2.745-8.1-7.106-11.286-8.435-23.969-1.576-15.045,3.653-19.224,12.585-59.467C3003.52,1200.276,3004.93,1192.989,3005.823,1188.171Z" transform="translate(-2911.339 -1132.036)" fill="#31b7a6"/>
        <ellipse id="Elipse_607" data-name="Elipse 607" cx="14.307" cy="6.581" rx="14.307" ry="6.581" transform="translate(32.935 23.53)" fill="#312b30"/>
        <ellipse id="Elipse_608" data-name="Elipse 608" cx="6.767" cy="6.763" rx="6.767" ry="6.763" transform="translate(40.461 31.356) rotate(-89.848)" fill="#312b30"/>
      </g>
      <path id="Trazado_13349" data-name="Trazado 13349" d="M2591.315,1905.422c-.508,3.8-3.964,29.531-17.448,31.466-1.664.239-7.055.62-14.313-6.137a22.7,22.7,0,0,0,6.337-4.02,21.361,21.361,0,0,0,3.135-3.983c4.828-8.171-3.006-28.352,4.4-35.87,2.749-2.788,7.6-3.892,10.839-2.429,2.818,1.272,4.123,3.745,5.281,6.488A28.041,28.041,0,0,1,2591.315,1905.422Z" transform="translate(-2509.438 -1697.886)" fill="#faf3df"/>
      <path id="Trazado_13350" data-name="Trazado 13350" d="M2673.54,1993.9q-4.544,5.521-6.009,4.8-.866-.428-.658-3.035c-1.927.177-2.7.86-3.05,1.371-1.027,1.484.129,3.43,4.292,12.557a24.537,24.537,0,0,0,2.061,4.067h0s.263.35.568.682c.227.247,5.563,5.141,8.595,6.04,4.593,1.362,12.673-3.847,17.6-13.725q-.207-1.9-.414-3.8l-14.594,7.164a58.736,58.736,0,0,1-2.12-8.99,12.756,12.756,0,0,0-1.017-3.477c-.6-1.31-1.456-3.131-3.221-3.647A3.838,3.838,0,0,0,2673.54,1993.9Z" transform="translate(-2594.172 -1787.551)" fill="#49472a"/>
      <path id="Trazado_13351" data-name="Trazado 13351" d="M2632.8,2157.578l20.878-8.752c1.595,15.519,2.92,26.924,3.9,34.936a42.037,42.037,0,0,1,.856,9.6,36.563,36.563,0,0,1-.347,3.713c-1.494,10.621-3.99,23.954-3.99,23.954-.7,3.758-1.657,9.248-2.562,16.042.718.371,1.475.741,2.27,1.1,1.36.616,2.668,1.132,3.905,1.568a3.266,3.266,0,0,1-1.908,1.226c-4.266,1.321-8.671-2.364-8.958-2.625-.079-1.934-.2-4.855-.378-8.41-.351-7.15-.582-10.339-.688-12.665a107.419,107.419,0,0,1,.963-19.411Z" transform="translate(-2569.161 -1913.99)" fill="#f45b53"/>
      <path id="Trazado_13352" data-name="Trazado 13352" d="M2648.513,1996.184l3.712-1.456,7.622-1.206,3.36.089a30.513,30.513,0,0,1,3.8,7.077,13.594,13.594,0,0,1,1.238,5.839,20.474,20.474,0,0,1-.6,3.538,34.786,34.786,0,0,1-1.1,3.8c.065.655.25,2.508.315,3.163.1,1.049.308,3.1.412,4.154a11.1,11.1,0,0,1-3.942,1.442c-1.733.272-3.192.111-6.358-.764-2.2-.606-4.76-1.351-7.618-2.251q.351-4.827.7-9.655a16.125,16.125,0,0,0-1.548-13.773Z" transform="translate(-2581.975 -1787.354)" fill="#686842"/>
      <path id="Trazado_13353" data-name="Trazado 13353" d="M2716.411,2635.327c-2.667.833-8.965-2.6-8.965-2.6s-.653,2.67.336,3.642,13.234,2.225,14.155.7c.409-.68-1.441-1.863-3.622-2.967A3.27,3.27,0,0,1,2716.411,2635.327Z" transform="translate(-2629.858 -2308.567)" fill="#191519"/>
      <path id="Trazado_13354" data-name="Trazado 13354" d="M2631.282,2153.105a21.589,21.589,0,0,1,12.109-3.671c-2.951,17.02-4.8,30.665-5.963,40.152-.9,7.34-1.777,15.443-3.577,27.809-1.243,8.54-2.4,15.532-3.2,20.171q1.077.557,2.27,1.1c1.359.616,2.668,1.133,3.905,1.568a3.265,3.265,0,0,1-1.908,1.226c-4.265,1.321-8.671-2.364-8.958-2.625-.079-1.934-.2-4.854-.378-8.409-.258-5.264-.5-9.429-.618-11.49-.034-.569-.059-1-.07-1.176-.2-3.385-.274-9.26.153-20.145C2617.888,2178.44,2620.888,2160.371,2631.282,2153.105Z" transform="translate(-2559.649 -1914.486)" fill="#fc766b"/>
      <path id="Trazado_13355" data-name="Trazado 13355" d="M2654.789,2635.327c-2.667.833-8.965-2.6-8.965-2.6s-.653,2.67.336,3.642,13.234,2.225,14.155.7c.409-.68-1.441-1.863-3.621-2.967A3.268,3.268,0,0,1,2654.789,2635.327Z" transform="translate(-2579.611 -2308.567)" fill="#312b30"/>
      <path id="Trazado_13356" data-name="Trazado 13356" d="M2639.569,2134.373a31.683,31.683,0,0,1-10.021.512,32.654,32.654,0,0,1-7.556-1.76,78.532,78.532,0,0,0-7.1,27.048,126.562,126.562,0,0,0,.55,20.58c.586,7.095,1.46,12.994,2.2,17.273q5.793-.457,11.833-.735,7.759-.353,15.135-.367a339.967,339.967,0,0,0-2.2-43C2641.619,2147.019,2640.648,2140.494,2639.569,2134.373Z" transform="translate(-2554.378 -1901.187)" fill="#bae4f4"/>
      <path id="Trazado_13357" data-name="Trazado 13357" d="M2675.568,1955.6c.319,1.232.856,2.664.856,2.664a3.946,3.946,0,0,1-1,4.624c-1.858,1.277-4.486-.662-4.834-.919a6.259,6.259,0,0,1-1.969-2.481,23.752,23.752,0,0,0,1.021-2.351,24.222,24.222,0,0,0,1.455-6.833Z" transform="translate(-2598.373 -1752.11)" fill="#fc766b"/>
      <path id="Trazado_13358" data-name="Trazado 13358" d="M2682.737,1964.731c-.154-.389-.3-.81-.439-1.26q-.1-.323-.177-.633l-4.609-3.657a2.952,2.952,0,0,0-.85,2.078,3.318,3.318,0,0,0,1.611,2.418,5.559,5.559,0,0,0,2.293.868A8.946,8.946,0,0,0,2682.737,1964.731Z" transform="translate(-2604.927 -1759.351)" fill="#f45b53"/>
      <path id="Trazado_13359" data-name="Trazado 13359" d="M2670.859,1908.174c1.632.862,3.6,10.52,3.339,11.882s-2.747,1.494-4.293,1.665a6.709,6.709,0,0,1-4.087-1.231c-.472-.456-.5-2.312-.5-2.312s-1.2.914-1.558-.312.12-3.287.72-2.673l.6.615S2669.07,1907.229,2670.859,1908.174Z" transform="translate(-2594.302 -1717.701)" fill="#fc766b"/>
      <path id="Trazado_13360" data-name="Trazado 13360" d="M2707.023,1957.252l-2.8.636c0,.012,0,.025.006.037a1.635,1.635,0,0,0,2.975.518C2707.159,1958.08,2707.1,1957.68,2707.023,1957.252Z" transform="translate(-2627.405 -1757.779)" fill="#fff"/>
      <path id="Trazado_13361" data-name="Trazado 13361" d="M2650.053,2358.556l1.061-29.723,2.122,31.139Z" transform="translate(-2583.231 -2060.77)" fill="#fc766b"/>
      <g id="Grupo_8847" data-name="Grupo 8847" transform="translate(44.539 141.913)">
        <path id="Trazado_13362" data-name="Trazado 13362" d="M2970.585,1703.858c-3.379-7.2-12.909-10.107-19.867-12.232-1.281-.391-2.457-.719-3.494-1.008-2.993-.835-4.7-1.344-5.618-2.165a2.486,2.486,0,0,1-.607-.8,4.44,4.44,0,0,1-.071-3.082,4.167,4.167,0,0,1,1.109-1.66,38.414,38.414,0,0,0-.3-5.656,10.055,10.055,0,0,0-5.49,5.668,9.369,9.369,0,0,0,.26,6.839,7.843,7.843,0,0,0,4.133,3.9,36.071,36.071,0,0,0,5.25,1.735c1.01.281,2.155.6,3.376.974,6.07,1.854,14.384,4.393,16.827,9.6a5.587,5.587,0,0,1,.592,2.5c-.081,2.48-2.284,4.553-4.195,6.082a54.255,54.255,0,0,1-11.984,7.059c-2.187,1.028-4.449,2.091-6.871,3.474-7.474,4.266-15.2,8.678-15.625,15.393-.3,4.721,3.164,7.653,6.511,10.487,2.865,2.426,6.112,5.177,7.887,9.47,2.438,5.893,1.565,13.341-2.594,22.134a2.48,2.48,0,1,0,4.482,2.122c4.783-10.113,5.689-18.912,2.694-26.154-2.235-5.405-6.134-8.707-9.265-11.359s-4.9-4.259-4.765-6.389c.254-4.044,6.8-7.781,13.134-11.4,2.25-1.285,4.421-2.305,6.521-3.293a59.1,59.1,0,0,0,12.972-7.674c1.61-1.289,5.886-4.711,6.053-9.793A10.549,10.549,0,0,0,2970.585,1703.858Z" transform="translate(-2854.41 -1671.378)" fill="#265287"/>
        <path id="Trazado_13363" data-name="Trazado 13363" d="M2682.5,1648.323a6.83,6.83,0,0,0-3.865-2.9c-.42,1.74-.752,3.359-.99,4.947a1.526,1.526,0,0,1,.606.513c.517.859-.317,2.71-.631,3.406-.119.265-.252.527-.394.788-4.658,8.584-20.884,14.969-21.052,15.035-43.392,16.816-47.807,20.526-51.03,23.235a80,80,0,0,0-17.681,21.287,51.057,51.057,0,0,0-3.142,6.719c-.454,1.141-.924,2.321-1.642,3.842-5.5,11.656-13.905,18.627-26.627,29.178l-.482.4c-4.617,3.831-8.484,6.624-11.591,8.868-6.955,5.025-11.153,8.057-13.328,15.133a35.127,35.127,0,0,0-.366,17.538,29.969,29.969,0,0,0,6.106,11.883,2.48,2.48,0,1,0,3.838-3.141,25.157,25.157,0,0,1-5.143-9.986,30.239,30.239,0,0,1,.305-14.835c1.687-5.487,4.76-7.707,11.492-12.571,3.167-2.288,7.108-5.135,11.853-9.07l.482-.4c12.758-10.581,21.976-18.225,27.946-30.879.784-1.661,1.282-2.913,1.765-4.124a46.266,46.266,0,0,1,2.874-6.153,76.026,76.026,0,0,1,16.533-19.891c2.791-2.345,7.007-5.89,49.631-22.407.624-.242,12.413-4.88,19.691-12.2a21.663,21.663,0,0,0,4.485-6.209C2682.747,1654.982,2684.357,1651.41,2682.5,1648.323Z" transform="translate(-2529.337 -1645.421)" fill="#2e5ea0"/>
      </g>
      <path id="Trazado_13364" data-name="Trazado 13364" d="M2660.145,2215.686a2.147,2.147,0,0,1,1.373-.107c.277.079.415.194,1.372,1.137a21.026,21.026,0,0,1,1.484,1.729c.149.188.375.48.29.761a.563.563,0,0,1-.329.337.685.685,0,0,1-.7-.152l-1.362-1.307,2.781,4.5a.554.554,0,0,1-.892.656l-1.758-2.368,1.348,2.615a.572.572,0,1,1-.95.635l-1.577-2.455,1.2,2.559a.612.612,0,0,1-.232.716.622.622,0,0,1-.853-.3l-1.394-2.407,1.129,2.331a.565.565,0,0,1-.965.414c-1.537-2.72-2.628-4.769-2.99-5.516a2.457,2.457,0,0,1-.272-1.051,2.356,2.356,0,0,1,.228-1.056c-.24-.355-.505-.75-.784-1.169l3.306-1.833C2659.772,2214.8,2659.964,2215.248,2660.145,2215.686Z" transform="translate(-2588.311 -1967.43)" fill="#fc766b"/>
      <path id="Trazado_13365" data-name="Trazado 13365" d="M2612.611,2016.334c.572-1.357.783-1.748,1.017-2.375.925-2.476,1.384-6.394-1.017-12.553a11.419,11.419,0,0,0-3.654,1.572c-.9.6-3.506,2.517-5.841,9.794a47.343,47.343,0,0,0-2.2,12.468,22.343,22.343,0,0,0,1.1,6.531,23.912,23.912,0,0,0,8.986,11.874l5.256-2.544-6.781-15.776A73.647,73.647,0,0,1,2612.611,2016.334Z" transform="translate(-2543.161 -1793.782)" fill="#686842"/>
      <g id="Grupo_8849" data-name="Grupo 8849" transform="translate(100.732 215.697)">
        <g id="Grupo_8848" data-name="Grupo 8848" transform="translate(0 0)">
          <path id="Trazado_13366" data-name="Trazado 13366" d="M2840.246,2055.591l-2.716-1.531a.612.612,0,1,1,.619-1.055l2.873,1.278A1.048,1.048,0,0,1,2840.246,2055.591Z" transform="translate(-2836.574 -2051.479)" fill="#fc766b"/>
          <path id="Trazado_13367" data-name="Trazado 13367" d="M2837.15,2063.777l-2.654-1.341a.665.665,0,0,1-.369-.892.652.652,0,0,1,.749-.291l2.8,1.118A1.1,1.1,0,0,1,2837.15,2063.777Z" transform="translate(-2834.008 -2058.259)" fill="#fc766b"/>
          <path id="Trazado_13368" data-name="Trazado 13368" d="M2836.454,2071.546c-.75-.359-1.586-.763-2.491-1.209a.6.6,0,0,1,.382-1.056l2.557,1.063A1.1,1.1,0,0,1,2836.454,2071.546Z" transform="translate(-2833.759 -2064.826)" fill="#fc766b"/>
          <path id="Trazado_13369" data-name="Trazado 13369" d="M2845.1,2047.948l-2.635-1.731a.592.592,0,0,1,.646-.993l2.756,1.491A1.286,1.286,0,0,1,2845.1,2047.948Z" transform="translate(-2840.656 -2045.145)" fill="#fc766b"/>
        </g>
      </g>
      <g id="Grupo_8859" data-name="Grupo 8859" transform="translate(183.612 233.56)">
        <path id="Trazado_13370" data-name="Trazado 13370" d="M3335.964,2572.622c-5.63-1.89-13.5-3.068-22.231-3.068s-16.6,1.179-22.23,3.068h-8.746v7.007c0,5.564,13.869,10.075,30.976,10.075s30.976-4.511,30.976-10.075v-7.007Z" transform="translate(-3282.757 -2490.616)" fill="#aeafaf"/>
        <ellipse id="Elipse_609" data-name="Elipse 609" cx="30.976" cy="10.075" rx="30.976" ry="10.075" transform="translate(0 71.931)" fill="#cacccc"/>
        <path id="Trazado_13371" data-name="Trazado 13371" d="M3355.058,2307.024a70.78,70.78,0,0,1-57.108,0v-62.855h57.108Z" transform="translate(-3295.145 -2225.294)" fill="#fc766b"/>
        <g id="Grupo_8852" data-name="Grupo 8852" transform="translate(2.804 20.51)">
          <g id="Grupo_8851" data-name="Grupo 8851">
            <g id="Grupo_8850" data-name="Grupo 8850">
              <path id="Trazado_13372" data-name="Trazado 13372" d="M3354.859,2287.866a.719.719,0,0,0,.2-.034v-1.464c-.009,0-.015-.009-.024-.011-23.029-5.5-55.9-32.884-56.225-33.159a.751.751,0,0,0-.859-.069v1.337c2.013,1.669,33.99,27.943,56.734,33.38A.723.723,0,0,0,3354.859,2287.866Z" transform="translate(-3297.95 -2253.025)" fill="#f45b53"/>
              <path id="Trazado_13373" data-name="Trazado 13373" d="M3354.859,2316.089a.747.747,0,0,0,.2-.034v-1.464c-.009,0-.015-.009-.024-.011-23.029-5.5-55.9-32.883-56.225-33.158a.748.748,0,0,0-.859-.069v1.337c2.013,1.668,33.99,27.943,56.734,33.379A.735.735,0,0,0,3354.859,2316.089Z" transform="translate(-3297.95 -2276.038)" fill="#f45b53"/>
              <path id="Trazado_13374" data-name="Trazado 13374" d="M3298.809,2309.647a.749.749,0,0,0-.859-.068v1.337c2.013,1.668,33.99,27.942,56.734,33.38a.678.678,0,0,0,.175.021.746.746,0,0,0,.2-.034v-1.465c-.009,0-.015-.009-.024-.011C3332,2337.3,3299.137,2309.922,3298.809,2309.647Z" transform="translate(-3297.95 -2299.055)" fill="#f45b53"/>
              <path id="Trazado_13375" data-name="Trazado 13375" d="M3298.809,2337.874a.751.751,0,0,0-.859-.069v1.337c2.013,1.669,33.99,27.943,56.734,33.381a.734.734,0,0,0,.175.021.718.718,0,0,0,.2-.034v-1.464c-.009,0-.015-.01-.024-.012C3332,2365.528,3299.137,2338.149,3298.809,2337.874Z" transform="translate(-3297.95 -2322.071)" fill="#f45b53"/>
              <path id="Trazado_13376" data-name="Trazado 13376" d="M3298.809,2366.1a.749.749,0,0,0-.859-.07v1.337c2.013,1.668,33.99,27.943,56.734,33.381a.7.7,0,0,0,.175.021.727.727,0,0,0,.2-.034v-1.464c-.009,0-.015-.009-.024-.011C3332,2393.75,3299.137,2366.371,3298.809,2366.1Z" transform="translate(-3297.95 -2345.084)" fill="#f45b53"/>
              <path id="Trazado_13377" data-name="Trazado 13377" d="M3298.809,2394.324a.751.751,0,0,0-.859-.069v1.337c2.013,1.668,33.99,27.943,56.734,33.381a.711.711,0,0,0,.175.021.756.756,0,0,0,.2-.033V2427.5c-.009,0-.015-.009-.024-.011C3332,2421.978,3299.137,2394.6,3298.809,2394.324Z" transform="translate(-3297.95 -2368.102)" fill="#f45b53"/>
              <path id="Trazado_13378" data-name="Trazado 13378" d="M3297.95,2422.477v1.337c1.817,1.506,28.047,23.059,49.866,31.241.774-.245,1.555-.5,2.346-.785-22.521-7.71-51.048-31.468-51.354-31.724A.749.749,0,0,0,3297.95,2422.477Z" transform="translate(-3297.95 -2391.114)" fill="#f45b53"/>
            </g>
          </g>
        </g>
        <g id="Grupo_8855" data-name="Grupo 8855" transform="translate(13.88 18.875)">
          <g id="Grupo_8854" data-name="Grupo 8854">
            <g id="Grupo_8853" data-name="Grupo 8853">
              <path id="Trazado_13379" data-name="Trazado 13379" d="M3381.644,2244.169h-2.892a133.6,133.6,0,0,1-20.8,10.635c.475.348.957.7,1.456,1.06A144.663,144.663,0,0,0,3381.644,2244.169Z" transform="translate(-3357.949 -2244.169)" fill="#f45b53"/>
              <path id="Trazado_13380" data-name="Trazado 13380" d="M3409.858,2244.169h-2.72A174.411,174.411,0,0,1,3382.8,2258.1c.475.333.961.672,1.45,1.011A185.442,185.442,0,0,0,3409.858,2244.169Z" transform="translate(-3378.214 -2244.169)" fill="#f45b53"/>
              <path id="Trazado_13381" data-name="Trazado 13381" d="M3436.977,2244.169h-2.6a214.644,214.644,0,0,1-27.365,17.006c.477.322.966.645,1.453.969A224.821,224.821,0,0,0,3436.977,2244.169Z" transform="translate(-3397.952 -2244.169)" fill="#f45b53"/>
              <path id="Trazado_13382" data-name="Trazado 13382" d="M3463.341,2244.169h-2.5a251.192,251.192,0,0,1-29.993,19.9c.482.31.973.62,1.463.93A259.3,259.3,0,0,0,3463.341,2244.169Z" transform="translate(-3417.388 -2244.169)" fill="#f45b53"/>
              <path id="Trazado_13383" data-name="Trazado 13383" d="M3482.677,2263.493v-1.939a270.047,270.047,0,0,1-28.218,19.425c.491.3.988.6,1.484.892A271.717,271.717,0,0,0,3482.677,2263.493Z" transform="translate(-3436.645 -2258.344)" fill="#f45b53"/>
              <path id="Trazado_13384" data-name="Trazado 13384" d="M3501.908,2291.724v-1.94a280.506,280.506,0,0,1-23.864,16.789c.5.288,1,.571,1.509.854C3488.976,2301.517,3497.248,2295.344,3501.908,2291.724Z" transform="translate(-3455.876 -2281.364)" fill="#f45b53"/>
              <path id="Trazado_13385" data-name="Trazado 13385" d="M3521.231,2319.95v-1.94c-3.851,3.02-11.03,8.465-19.49,14q.77.41,1.542.811C3510.843,2327.842,3517.313,2322.993,3521.231,2319.95Z" transform="translate(-3475.198 -2304.38)" fill="#f45b53"/>
              <path id="Trazado_13386" data-name="Trazado 13386" d="M3542.514,2356.725v-1.867c-4.347,3.073-9.378,6.447-14.673,9.645q.825.4,1.647.778C3534.151,2362.434,3538.59,2359.476,3542.514,2356.725Z" transform="translate(-3496.481 -2334.426)" fill="#f45b53"/>
              <path id="Trazado_13387" data-name="Trazado 13387" d="M3563.938,2384.95v-1.867c-3,2.118-6.316,4.378-9.822,6.626q.863.363,1.719.7C3558.693,2388.561,3561.425,2386.712,3563.938,2384.95Z" transform="translate(-3517.906 -2357.441)" fill="#f45b53"/>
              <path id="Trazado_13388" data-name="Trazado 13388" d="M3586.044,2413.177v-1.867c-1.527,1.08-3.141,2.2-4.819,3.331.617.211,1.229.407,1.837.594C3584.08,2414.54,3585.082,2413.85,3586.044,2413.177Z" transform="translate(-3540.011 -2380.457)" fill="#f45b53"/>
            </g>
          </g>
        </g>
        <g id="Grupo_8858" data-name="Grupo 8858" transform="translate(2.804 56.111)">
          <g id="Grupo_8857" data-name="Grupo 8857">
            <g id="Grupo_8856" data-name="Grupo 8856">
              <path id="Trazado_13389" data-name="Trazado 13389" d="M3297.949,2448.208v1.661c2.061-.9,4.145-1.887,6.226-2.946-.47-.36-.919-.7-1.34-1.031C3301.2,2446.712,3299.569,2447.491,3297.949,2448.208Z" transform="translate(-3297.949 -2445.893)" fill="#f45b53"/>
              <path id="Trazado_13390" data-name="Trazado 13390" d="M3297.949,2467.062v1.661c3.407-1.481,6.873-3.219,10.3-5.1-.462-.34-.913-.675-1.348-1C3303.917,2464.243,3300.912,2465.751,3297.949,2467.062Z" transform="translate(-3297.949 -2459.537)" fill="#f45b53"/>
              <path id="Trazado_13391" data-name="Trazado 13391" d="M3297.949,2485.3v1.662a137.829,137.829,0,0,0,14.332-7.385c-.463-.329-.912-.652-1.357-.973A136.021,136.021,0,0,1,3297.949,2485.3Z" transform="translate(-3297.949 -2472.57)" fill="#f45b53"/>
              <path id="Trazado_13392" data-name="Trazado 13392" d="M3297.949,2503.006v1.662a149.428,149.428,0,0,0,18.342-9.793c-.464-.318-.917-.633-1.369-.946A147.768,147.768,0,0,1,3297.949,2503.006Z" transform="translate(-3297.949 -2485.062)" fill="#f45b53"/>
              <path id="Trazado_13393" data-name="Trazado 13393" d="M3297.949,2520.2v1.661a161.2,161.2,0,0,0,22.338-12.316c-.468-.308-.925-.614-1.385-.921A159.531,159.531,0,0,1,3297.949,2520.2Z" transform="translate(-3297.949 -2497.045)" fill="#f45b53"/>
              <path id="Trazado_13394" data-name="Trazado 13394" d="M3314.987,2535.437q1,.384,1.985.731a192.1,192.1,0,0,0,21.206-12.562q-.709-.448-1.408-.9A183.613,183.613,0,0,1,3314.987,2535.437Z" transform="translate(-3311.842 -2508.531)" fill="#f45b53"/>
              <path id="Trazado_13395" data-name="Trazado 13395" d="M3348.319,2548.5q1.073.3,2.118.563c6.785-3.793,13.358-8.092,18.928-11.986-.478-.286-.957-.571-1.431-.859A218.545,218.545,0,0,1,3348.319,2548.5Z" transform="translate(-3339.021 -2519.549)" fill="#f45b53"/>
              <path id="Trazado_13396" data-name="Trazado 13396" d="M3383.021,2568.054q1.6.294,3.089.5a128.375,128.375,0,0,0,18.732-9.345c-.523-.279-1.046-.557-1.567-.844A115.559,115.559,0,0,1,3383.021,2568.054Z" transform="translate(-3367.318 -2537.606)" fill="#f45b53"/>
              <path id="Trazado_13397" data-name="Trazado 13397" d="M3436.28,2579.9c1.1.047,2.115.069,3.02.069l.269,0c4.542-2.322,9.058-4.964,13.348-7.657-.533-.258-1.065-.517-1.6-.785A163.148,163.148,0,0,1,3436.28,2579.9Z" transform="translate(-3410.746 -2548.333)" fill="#f45b53"/>
              <path id="Trazado_13398" data-name="Trazado 13398" d="M3492.165,2589.394c1.209-.126,2.487-.292,3.823-.505,2.5-1.519,4.924-3.071,7.247-4.608-.557-.237-1.114-.477-1.674-.728C3498.562,2585.521,3495.4,2587.5,3492.165,2589.394Z" transform="translate(-3456.315 -2558.143)" fill="#f45b53"/>
              <path id="Trazado_13399" data-name="Trazado 13399" d="M3556.523,2595.906c1.167-.328,2.363-.708,3.573-1.116-.417-.15-.836-.3-1.257-.462Q3557.7,2595.11,3556.523,2595.906Z" transform="translate(-3508.793 -2566.928)" fill="#f45b53"/>
            </g>
          </g>
        </g>
        <path id="Trazado_13400" data-name="Trazado 13400" d="M3335.964,2182.942c-5.63-1.89-13.5-3.068-22.231-3.068s-16.6,1.178-22.23,3.068h-8.746v7.007c0,5.564,13.869,10.075,30.976,10.075s30.976-4.511,30.976-10.075v-7.007Z" transform="translate(-3282.757 -2172.866)" fill="#aeafaf"/>
        <ellipse id="Elipse_610" data-name="Elipse 610" cx="30.976" cy="10.075" rx="30.976" ry="10.075" transform="translate(0 0)" fill="#cacccc"/>
        <ellipse id="Elipse_611" data-name="Elipse 611" cx="13.13" cy="4.271" rx="13.13" ry="4.271" transform="translate(17.846 5.805)" fill="#312b30"/>
      </g>
      <g id="Grupo_8861" data-name="Grupo 8861" transform="translate(153.289 79.931)">
        <path id="Trazado_13401" data-name="Trazado 13401" d="M3305.42,1435.549a5.642,5.642,0,0,0,1.222-1.035c.659-.744.462-.929,1.3-2.26.534-.844.973-1.339.787-1.835a.516.516,0,0,0-.215-.292c-.584-.305-2.023,1.375-2.527,1.986l-3.7-3.58-3.905,3.008c.326.943.682,1.9,1.085,2.915a2.9,2.9,0,0,0,1.208,1.643,2.033,2.033,0,0,0,.372.155l.589,2.085,3.885-.389Q3305.475,1436.75,3305.42,1435.549Z" transform="translate(-3265.182 -1406.587)" fill="#fc766b"/>
        <path id="Trazado_13402" data-name="Trazado 13402" d="M3346.358,1484.639l-8.32-3.035q-1.452.157-2.962.376a81.493,81.493,0,0,0-9.466,1.958,37.5,37.5,0,0,1-9.1-11.656l-5.171.339c.2,2.7.51,4.912.764,6.446.909,5.5,1.491,8.775,3.984,11.789a15.144,15.144,0,0,0,2.958,2.694c.935.688,4.134,2.881,11.282,4.051a47.1,47.1,0,0,0,13.971.161,47.78,47.78,0,0,1,2.059-13.123Z" transform="translate(-3275.741 -1442.26)" fill="#bae4f4"/>
        <path id="Trazado_13403" data-name="Trazado 13403" d="M3336.5,1552.722c3.37-.191,3.815-7.506,6.994-10.369l1.456,12.933a45.839,45.839,0,0,1-5.23-.548c-7.149-1.17-10.347-3.364-11.282-4.051a15.161,15.161,0,0,1-2.958-2.694,13.741,13.741,0,0,1-2.622-5.089C3325.457,1547.056,3333.388,1552.9,3336.5,1552.722Z" transform="translate(-3285.133 -1499.396)" fill="#2e5ea0" opacity="0.5"/>
        <path id="Trazado_13404" data-name="Trazado 13404" d="M3403.26,2146.979q-.655-4.561-1.309-9.121l5.064-.473q-.459,4.908-.918,9.817Z" transform="translate(-3349.627 -1984.592)" fill="#fc766b"/>
        <path id="Trazado_13405" data-name="Trazado 13405" d="M3373.483,2187.281a35.074,35.074,0,0,1-4.156.019.892.892,0,0,1,.252-.281c1.933-1.215,3.43-2.156,4.385-2.78l1.465-.8c.715-.4,1.08-.61,1.473-.488.28.087.252.244.656.432a1.543,1.543,0,0,0,1.125.139,1.391,1.391,0,0,0,.741-.608s1.7.853,1.1,3.45c-.39.1-.946.223-1.617.351A35.422,35.422,0,0,1,3373.483,2187.281Z" transform="translate(-3323.025 -2021.721)" fill="#fed65d"/>
        <path id="Trazado_13406" data-name="Trazado 13406" d="M3368.837,2202.541a48.771,48.771,0,0,0,9.581-.582c.67-.127,1.226-.255,1.616-.351,0,0,.742.794-.343,1.5l-10.854.283a.883.883,0,0,1-.085-.642A.814.814,0,0,1,3368.837,2202.541Z" transform="translate(-3322.534 -2036.961)" fill="#312b30"/>
        <path id="Trazado_13407" data-name="Trazado 13407" d="M3412.011,1684.368l-24.447,1.46a238.242,238.242,0,0,0-1.824,87.252h6.021q4.961-24.283,10.764-49.467Q3407.143,1703.618,3412.011,1684.368Z" transform="translate(-3333.823 -1615.197)" fill="#664b38"/>
        <path id="Trazado_13408" data-name="Trazado 13408" d="M3527.8,2148.957q-.654-4.561-1.309-9.122l5.065-.473q-.46,4.909-.918,9.817Z" transform="translate(-3451.174 -1986.204)" fill="#fc766b"/>
        <path id="Trazado_13409" data-name="Trazado 13409" d="M3498.02,2189.259a35.406,35.406,0,0,1-4.156.019.9.9,0,0,1,.252-.282c1.933-1.215,3.431-2.156,4.386-2.78l1.465-.8c.715-.4,1.08-.609,1.473-.487.28.087.252.244.656.431a1.537,1.537,0,0,0,1.125.139,1.384,1.384,0,0,0,.741-.608s1.7.853,1.1,3.45c-.39.1-.946.224-1.617.351A35.524,35.524,0,0,1,3498.02,2189.259Z" transform="translate(-3424.573 -2023.333)" fill="#fed65d"/>
        <path id="Trazado_13410" data-name="Trazado 13410" d="M3493.372,2204.518a35.035,35.035,0,0,0,4.156-.02,35.428,35.428,0,0,0,5.425-.562c.672-.127,1.227-.256,1.617-.351,0,0,.743.794-.343,1.5l-10.854.283a.885.885,0,0,1-.085-.641A.826.826,0,0,1,3493.372,2204.518Z" transform="translate(-3424.082 -2038.573)" fill="#312b30"/>
        <path id="Trazado_13411" data-name="Trazado 13411" d="M3439.547,1679.06a13.821,13.821,0,0,0-2.354-3.956l-22.248.659c.692,6.279,1.771,14.644,3.493,24.445.525,2.991,2.172,11.792,5.871,27.585,3.256,13.9,6.8,27.086,10.505,39.533l6.045-.773q.07-11.918.425-24.28.258-8.874.657-17.51s.441-8.135-1.328-40.175c-.016-.3-.044-.764-.113-1.351A16.608,16.608,0,0,0,3439.547,1679.06Z" transform="translate(-3360.222 -1607.643)" fill="#765742"/>
        <path id="Trazado_13412" data-name="Trazado 13412" d="M3459.489,1496.214a9.529,9.529,0,0,0-6.907,1.645q0,2.183-.007,4.365a8.74,8.74,0,0,0,7.781-.388Z" transform="translate(-3390.906 -1461.691)" fill="#fc766b"/>
        <path id="Trazado_13413" data-name="Trazado 13413" d="M3452.593,1502.454q.1-.271.193-.542a5.748,5.748,0,0,1,2.513-1.07,5.671,5.671,0,0,1,1.749-.006,5.514,5.514,0,0,1-4.458,3.549Q3452.591,1503.42,3452.593,1502.454Z" transform="translate(-3390.917 -1465.491)" fill="#f45b53"/>
        <path id="Trazado_13414" data-name="Trazado 13414" d="M3430.632,1418.912s-1.761-1.647-.8-3.52c1.532-2.971,11.545-4.42,14.885.785,2.334,3.636,1.007,9.976-4.234,13.579Z" transform="translate(-3372.128 -1393.687)" fill="#2e5ea0"/>
        <path id="Trazado_13415" data-name="Trazado 13415" d="M3434.539,1446.293a23.292,23.292,0,0,0-.167,2.715c0,.77.008,1.156.022,1.948.049,2.7-.118,2.782-.03,4.086.143,2.117.217,3.211,1.011,3.806.888.664,2.158.319,3.973-.174a6.182,6.182,0,0,0,3.122-1.5,5.208,5.208,0,0,0,1.394-2.812s.307.665.813.189,1.671-3.715.449-3.917-1.684,1.5-1.684,1.5l-.876-.765s.73-3.777-.878-4.693a1.719,1.719,0,0,0-.935-.195C3439.319,1446.516,3437.366,1446.465,3434.539,1446.293Z" transform="translate(-3376.035 -1421.068)" fill="#fc766b"/>
        <path id="Trazado_13416" data-name="Trazado 13416" d="M3436.32,1493.815a1.955,1.955,0,0,1-1.894,1.873c-.015-.085-.031-.173-.048-.267-.029-.165-.05-.289-.052-.3-.051-.3-.081-1.081-.087-1.257Z" transform="translate(-3375.955 -1459.818)" fill="#fff"/>
        <path id="Trazado_13417" data-name="Trazado 13417" d="M3416.154,1645.155l5.106-5.109,4.974,4.976,4.642-4.644,2.881,2.883c.278,1.859.6,4.157.954,6.926-3.22.365-6.732.616-10.5.674a107.921,107.921,0,0,1-15.253-.848l1.378-9.653.513-.513Z" transform="translate(-3355.34 -1578.894)" fill="#bae4f4"/>
        <path id="Trazado_13418" data-name="Trazado 13418" d="M3436.564,1543.958l-4.974-4.976-5.106,5.109-4.7-4.7q.9-6.305,1.8-12.611a20.1,20.1,0,0,1,3.42-1.564c.164-.057.327-.111.489-.163l4.285.369a8.431,8.431,0,0,0,3.271-.895,15.336,15.336,0,0,1,5.408,1.6l1.526,9.486.3,1.617q.308,1.891.615,3.78l-1.7-1.7Z" transform="translate(-3365.802 -1484.863)" fill="#bae4f4"/>
        <path id="Trazado_13419" data-name="Trazado 13419" d="M3422.11,1607.935l5.106-5.109,4.974,4.976,4.642-4.644,1.7,1.7q.076.468.153.937c.438,2.693.658,4.045.765,4.716.117.73.251,1.589.4,2.562l-2.881-2.883-4.642,4.644-4.974-4.976-5.106,5.109-5.305-5.308-.513.513q.5-3.467.991-6.936Z" transform="translate(-3361.428 -1548.707)" fill="#2e5ea0"/>
        <path id="Trazado_13420" data-name="Trazado 13420" d="M3417.006,1556.977s3.052-14.631,8.95-17.753l4.4,3.631.524.747q.322,2,.644,4l.3,1.617q.308,1.891.616,3.781.077.469.153.937c.438,2.693.658,4.045.765,4.716.077.477.161,1.016.251,1.6-1.084,1.586-2.29,3.249-3.507,4.742-3.942,4.835-21.146,2.972-21.146,2.972q.639-4.472,1.277-8.944Z" transform="translate(-3355.34 -1496.845)" fill="#2e5ea0" opacity="0.5"/>
        <g id="Grupo_8860" data-name="Grupo 8860" transform="translate(0 0)">
          <path id="Trazado_13421" data-name="Trazado 13421" d="M3231.816,1329.966s3.768-.624,4.382-5.421c.494-3.857-1.878-6.075-.552-8.209a2.762,2.762,0,0,1,1.132-1.043,2.837,2.837,0,0,1,2.8.241,3.066,3.066,0,0,1,.767,3.923c-.742,1.023-2.143.5-3.152,1.872a2.089,2.089,0,0,0-.476,1.426,2.186,2.186,0,0,0,.949,1.43,15.035,15.035,0,0,0,6.486,2.329l2.873-.359-1.632-9.864a7.948,7.948,0,0,0-9.139-6.546h0a7.951,7.951,0,0,0-6.509,9.333Q3230.779,1324.522,3231.816,1329.966Z" transform="translate(-3209.091 -1309.638)" fill="#312b30"/>
          <path id="Trazado_13422" data-name="Trazado 13422" d="M3308.074,1399.474l10.437,52.755.684.826q.389-.964.776-1.928l-8.959-52Z" transform="translate(-3273.078 -1382.604)" fill="#312b30"/>
          <path id="Trazado_13423" data-name="Trazado 13423" d="M3154.206,1484.938a20.2,20.2,0,0,0-1.02,4.238l-34.7-45.2s1.253,2.609,3.21,5.924,27.508,42.278,34.709,44.607,9.381-3.645,8.725-6.188c-.713-2.768-2.62-5.575-5.657-5.823A5.8,5.8,0,0,0,3154.206,1484.938Zm7.589,2.851c.627,1.522.274,3.652-1,4.352-1.615.888-4.384-.7-4.976-2.893-.352-1.3-.018-3.12,1.209-3.8C3158.6,1484.578,3161.021,1485.91,3161.795,1487.789Z" transform="translate(-3118.486 -1419.183)" fill="#312b30"/>
        </g>
        <path id="Trazado_13424" data-name="Trazado 13424" d="M3345.88,1663.559a2.152,2.152,0,0,0-.778-1.136c-.237-.166-.412-.2-1.747-.355a21.089,21.089,0,0,0-2.278-.071c-.24,0-.608.01-.774.253a.563.563,0,0,0-.056.468.687.687,0,0,0,.561.453l1.872.24-5.25.66a.554.554,0,0,0,.049,1.107l2.946-.117-2.881.592a.573.573,0,1,0,.1,1.139l2.9-.313-2.741.675a.611.611,0,0,0-.412.63.623.623,0,0,0,.766.478l2.748-.425-2.523.584a.565.565,0,0,0,.284,1.012c3.08-.51,5.36-.946,6.169-1.133a2.457,2.457,0,0,0,.988-.447,2.357,2.357,0,0,0,.679-.841c.425-.036.9-.077,1.4-.123l-.648-3.726C3346.8,1663.295,3346.333,1663.425,3345.88,1663.559Z" transform="translate(-3296.596 -1596.955)" fill="#fc766b"/>
        <path id="Trazado_13425" data-name="Trazado 13425" d="M3414.541,1546.615c1.677-8.354,2.081-9.333,1.462-11.528a6.159,6.159,0,0,0-2.5-3.941,5.808,5.808,0,0,0-6,.414c-1.867,1.276-2.417,3.375-2.843,5.1-.88,3.569-1.969,8.441-3,14.47l-14.548,3.813.891,5.6a75.268,75.268,0,0,0,11.953-.382s7.837-.882,10.461-3.77l.562-.619h0C3413.283,1553.074,3413.808,1550.261,3414.541,1546.615Z" transform="translate(-3337.531 -1489.724)" fill="#bae4f4"/>
        <path id="Trazado_13426" data-name="Trazado 13426" d="M3309.413,1429.313l2.559,2.122a.652.652,0,1,0,.813-1.019l-2.366-2.374A1.117,1.117,0,0,0,3309.413,1429.313Z" transform="translate(-3274.161 -1406.185)" fill="#f45b53"/>
        <path id="Trazado_13427" data-name="Trazado 13427" d="M3310.936,1422.52l3.125,1.134a.653.653,0,1,0,.422-1.233l-3.028-1.436A1.116,1.116,0,0,0,3310.936,1422.52Z" transform="translate(-3275.306 -1400.431)" fill="#f45b53"/>
        <path id="Trazado_13428" data-name="Trazado 13428" d="M3303.367,1435.447l2.345,2.133a.708.708,0,0,0,1.028.028.7.7,0,0,0,0-.857l-2.18-2.366A1.171,1.171,0,0,0,3303.367,1435.447Z" transform="translate(-3269.24 -1411.357)" fill="#f45b53"/>
        <path id="Trazado_13429" data-name="Trazado 13429" d="M3297.812,1441.045c.642.611,1.364,1.289,2.151,2.021a.644.644,0,0,0,.906-.783l-2.031-2.142A1.171,1.171,0,0,0,3297.812,1441.045Z" transform="translate(-3264.71 -1416.052)" fill="#f45b53"/>
      </g>
      <ellipse id="Elipse_612" data-name="Elipse 612" cx="15.991" cy="15.999" rx="15.991" ry="15.999" transform="translate(70.092 137.871)" fill="#feeec6"/>
      <ellipse id="Elipse_613" data-name="Elipse 613" cx="8.473" cy="8.469" rx="8.473" ry="8.469" transform="matrix(0.003, -1, 1, 0.003, 99.285, 190.473)" fill="#feeec6"/>
      <ellipse id="Elipse_615" data-name="Elipse 615" cx="3.283" cy="3.282" rx="3.283" ry="3.282" transform="translate(275.416 6.566) rotate(-89.92)" fill="#feeec6"/>
      <ellipse id="Elipse_616" data-name="Elipse 616" cx="3.282" cy="3.283" rx="3.282" ry="3.283" transform="matrix(1, -0.001, 0.001, 1, 190.665, 17.425)" fill="#feeec6"/>
      <ellipse id="Elipse_617" data-name="Elipse 617" cx="7.595" cy="7.599" rx="7.595" ry="7.599" transform="translate(321.972 8.001)" fill="#feeec6"/>
      <ellipse id="Elipse_618" data-name="Elipse 618" cx="13.96" cy="13.967" rx="13.96" ry="13.967" transform="translate(346.19 56.634) rotate(-0.076)" fill="#feeec6"/>
    </g>
    <path id="Trazado_13430" data-name="Trazado 13430" d="M107.42,299.564Zm2.5-9.527a4.813,4.813,0,1,1-1.41,3.4,4.8,4.8,0,0,1,1.41-3.4Zm1.039-4.77a8.455,8.455,0,0,0-1.886.8,8.627,8.627,0,0,0-1.655,1.248.3.3,0,0,1-.352.043l-2.237-1.292-.012-.008a.559.559,0,0,0-.745.21l-.009.016-1.573,2.725a.558.558,0,0,0,.2.758l.016.009,2.218,1.282a.3.3,0,0,1,.14.325h0a8.623,8.623,0,0,0-.187,3.09,8.361,8.361,0,0,0,.187,1.017.3.3,0,0,1-.156.336l-2.218,1.279h0a.559.559,0,0,0-.257.337.55.55,0,0,0,.054.421l1.582,2.741h0a.554.554,0,0,0,.757.2l.017-.007,2.221-1.283a.294.294,0,0,1,.351.043,8.544,8.544,0,0,0,1.655,1.247,8.451,8.451,0,0,0,1.9.807.3.3,0,0,1,.215.286v2.58a.556.556,0,0,0,.554.553h3.166a.554.554,0,0,0,.554-.553V301.9a.3.3,0,0,1,.228-.288,8.4,8.4,0,0,0,1.885-.8,8.526,8.526,0,0,0,1.656-1.247.3.3,0,0,1,.367-.033l2.222,1.282a.559.559,0,0,0,.421.054.553.553,0,0,0,.336-.258l.009-.015,1.574-2.726h0a.554.554,0,0,0,.054-.421.561.561,0,0,0-.256-.337l-2.235-1.289a.3.3,0,0,1-.14-.326h0a8.432,8.432,0,0,0,.187-1.018,8.677,8.677,0,0,0,0-2.074,8.452,8.452,0,0,0-.187-1.016.294.294,0,0,1,.156-.335l2.218-1.282a.556.556,0,0,0,.256-.337.55.55,0,0,0-.054-.419l-.008-.016-1.574-2.727h0a.558.558,0,0,0-.757-.2h0l-2.236,1.292a.3.3,0,0,1-.359-.05,8.529,8.529,0,0,0-1.649-1.241,8.42,8.42,0,0,0-1.9-.806.3.3,0,0,1-.215-.285V282.4a.553.553,0,0,0-.554-.553h-3.166a.554.554,0,0,0-.554.553v2.58A.3.3,0,0,1,110.962,285.266Z" transform="translate(621.279 -95.33)" fill="#00a99a" fill-rule="evenodd"/>
    <path id="Trazado_13431" data-name="Trazado 13431" d="M139.157,404.555a.826.826,0,0,0-1.651,0V406.5h-1.941a.826.826,0,1,0,0,1.652h1.941v1.941a.826.826,0,0,0,1.651,0v-1.941H141.1a.826.826,0,1,0,0-1.652h-1.941Z" transform="translate(924.694 -209.235)" fill="#f9ad3e" fill-rule="evenodd"/>
    <path id="Trazado_13432" data-name="Trazado 13432" d="M37.051,321.836a.826.826,0,0,0-1.652,0v1.942H33.458a.826.826,0,0,0,0,1.651H35.4v1.941a.826.826,0,0,0,1.652,0V325.43h1.941a.826.826,0,0,0,0-1.651H37.051Z" transform="translate(985.23 -164.477)" fill="#00a99a" fill-rule="evenodd"/>
    <path id="Trazado_13433" data-name="Trazado 13433" d="M37.051,321.836a.826.826,0,0,0-1.652,0v1.942H33.458a.826.826,0,0,0,0,1.651H35.4v1.941a.826.826,0,0,0,1.652,0V325.43h1.941a.826.826,0,0,0,0-1.651H37.051Z" transform="translate(935.252 -12.462)" fill="#00a99a" fill-rule="evenodd"/>
    <path id="Trazado_13434" data-name="Trazado 13434" d="M37.051,321.836a.826.826,0,0,0-1.652,0v1.942H33.458a.826.826,0,0,0,0,1.651H35.4v1.941a.826.826,0,0,0,1.652,0V325.43h1.941a.826.826,0,0,0,0-1.651H37.051Z" transform="translate(697.859 -221.743)" fill="#00a99a" fill-rule="evenodd"/>
    <path id="Trazado_13435" data-name="Trazado 13435" d="M37.051,321.836a.826.826,0,0,0-1.652,0v1.942H33.458a.826.826,0,0,0,0,1.651H35.4v1.941a.826.826,0,0,0,1.652,0V325.43h1.941a.826.826,0,0,0,0-1.651H37.051Z" transform="translate(771.784 -2.049)" fill="#00a99a" fill-rule="evenodd"/>
    <path id="Trazado_13436" data-name="Trazado 13436" d="M139.157,404.555a.826.826,0,0,0-1.651,0V406.5h-1.941a.826.826,0,1,0,0,1.652h1.941v1.941a.826.826,0,0,0,1.651,0v-1.941H141.1a.826.826,0,1,0,0-1.652h-1.941Z" transform="translate(604.004 -142.598)" fill="#f9ad3e" fill-rule="evenodd"/>
    <path id="Trazado_13437" data-name="Trazado 13437" d="M139.157,404.555a.826.826,0,0,0-1.651,0V406.5h-1.941a.826.826,0,1,0,0,1.652h1.941v1.941a.826.826,0,0,0,1.651,0v-1.941H141.1a.826.826,0,1,0,0-1.652h-1.941Z" transform="translate(813.285 -258.172)" fill="#f9ad3e" fill-rule="evenodd"/>
  </g>
</svg>
