<svg xmlns="http://www.w3.org/2000/svg" width="446.535" height="356.67" viewBox="0 0 446.535 356.67">
  <g id="Grupo_8927" data-name="Grupo 8927" transform="translate(-347 -1045.24)">
    <g id="Grupo_8923" data-name="Grupo 8923" transform="translate(6 -68)">
      <g id="Grupo_8882" data-name="Grupo 8882" transform="translate(341 1421.063)">
        <ellipse id="Elipse_619" data-name="Elipse 619" cx="222.505" cy="23.659" rx="222.505" ry="23.659" transform="translate(0.763 0.763)" fill="#fed97b"/>
        <g id="Grupo_8881" data-name="Grupo 8881" transform="translate(0 0)">
          <path id="Trazado_13438" data-name="Trazado 13438" d="M544.258,1763.9c-109.749,0-223.268-9.136-223.268-24.424s113.519-24.423,223.268-24.423,223.267,9.136,223.267,24.423S654.006,1763.9,544.258,1763.9Zm0-47.319c-132.641,0-221.743,11.837-221.743,22.9s89.1,22.9,221.743,22.9S766,1750.534,766,1739.475,676.9,1716.58,544.258,1716.58Z" transform="translate(-320.99 -1715.052)"/>
        </g>
      </g>
      <g id="Grupo_8922" data-name="Grupo 8922" transform="translate(409.761 1113.24)">
        <g id="Grupo_8883" data-name="Grupo 8883" transform="translate(90.373 167.34)">
          <path id="Trazado_13439" data-name="Trazado 13439" d="M1157.353,1034.388a45.2,45.2,0,0,1-5.3,4.074c-1.841,1.027-9.37-1.63-10.185-.815s-4.481,4.074-6.73,5.1c-1.173.538-10.153,4.351-19.148,7.855,1.108-5.525-1.369-11.619-2.656-14.324,8.572-.831,19.278-2.624,21.2-4.531,3.047-3.064,8.556-5.7,10.788-5.3C1147.575,1026.859,1157.353,1034.388,1157.353,1034.388Z" transform="translate(-1112.172 -1025.245)" fill="#fff"/>
          <path id="Trazado_13440" data-name="Trazado 13440" d="M1111.4,1047.177a1.164,1.164,0,0,1-1.141-1.394c1.006-5.014-1.175-10.67-2.566-13.6a1.165,1.165,0,0,1,.94-1.658c10.106-.979,19.108-2.822,20.493-4.2,2.96-2.974,8.886-6.15,11.816-5.617,2.405.44,10.86,6.875,12.528,8.16a1.161,1.161,0,0,1,.061,1.795,45.345,45.345,0,0,1-5.5,4.22c-1.275.715-3.542.339-6.851-.318a17.778,17.778,0,0,0-3.26-.509c-.99.937-4.5,4.065-6.887,5.153-1.12.515-10.029,4.308-19.208,7.885A1.21,1.21,0,0,1,1111.4,1047.177Zm-.935-14.5a26.619,26.619,0,0,1,2.34,11.534c8.456-3.331,16.22-6.635,17.257-7.115a32.79,32.79,0,0,0,6.4-4.865c.781-.776,2.066-.558,5.171.055,1.613.315,4.615.906,5.269.567a33.441,33.441,0,0,0,4.013-3c-4.423-3.344-9.252-6.638-10.385-6.845-1.587-.312-6.673,1.873-9.755,4.974C1128.208,1030.523,1115.258,1032.153,1110.467,1032.678Zm27.64,1.2,0,.006Z" transform="translate(-1107.582 -1020.654)" fill="#ccc"/>
        </g>
        <g id="Grupo_8884" data-name="Grupo 8884" transform="translate(54.88 147.239)">
          <path id="Trazado_13441" data-name="Trazado 13441" d="M975.914,971.362c-4.221,1.662-8.458,3.243-11.88,4.384a30.71,30.71,0,0,1-6.8,1.76c-14.406.147-15.97-20.729-19.507-34.777-.016-17.649,7.887-18.464,13.787-11.815,9.24,10.381,5.736,25.26,11.017,26.482a7.514,7.514,0,0,0,1.5.147,81.572,81.572,0,0,0,9.224-.505C974.545,959.743,977.022,965.838,975.914,971.362Z" transform="translate(-936.601 -925.903)" fill="#fff"/>
          <path id="Trazado_13442" data-name="Trazado 13442" d="M952.626,974.059c-12.842,0-16.024-15.035-18.834-28.31-.539-2.549-1.067-5.041-1.648-7.345-.046-11.946,3.292-15.663,6.091-16.727,2.986-1.134,6.516.27,9.7,3.853,5.278,5.929,6.577,13.3,7.526,18.685.694,3.941,1.243,7.057,2.883,7.436a6.259,6.259,0,0,0,1.269.118,77.814,77.814,0,0,0,9.079-.5,1.179,1.179,0,0,1,1.165.658c1.514,3.186,3.885,9.379,2.745,15.057a1.161,1.161,0,0,1-.715.852c-4.577,1.8-8.7,3.325-11.937,4.4-4.806,1.609-6.381,1.81-7.148,1.819ZM940.317,923.63a3.469,3.469,0,0,0-1.254.224c-2.946,1.119-4.633,6.32-4.626,14.265.552,2.049,1.085,4.568,1.632,7.148,2.625,12.407,5.6,26.464,16.566,26.464h.133c.646-.009,2.289-.309,6.437-1.7,3.053-1.019,6.919-2.44,11.216-4.126.664-4.459-1.02-9.306-2.333-12.243a77.079,77.079,0,0,1-8.55.433,8.194,8.194,0,0,1-1.746-.185c-3.119-.721-3.786-4.5-4.63-9.294-.95-5.393-2.134-12.1-6.972-17.542C944.212,924.846,942.1,923.63,940.317,923.63Zm31.14,43.124h0Z" transform="translate(-932.144 -921.294)" fill="#d1d1d1"/>
        </g>
        <g id="Grupo_8886" data-name="Grupo 8886" transform="translate(46.484 68.116)">
          <path id="Trazado_13443" data-name="Trazado 13443" d="M915.381,545.632c-2.021,2.64-11.961,6.095-11.961,6.095s-8.474-.358-6.8-7.985c.016-.033.016-.082.033-.114.88-3.618,5.3-7.513,10.658-7.676a10.455,10.455,0,0,1,2.9.261C916.864,537.7,915.381,545.632,915.381,545.632Z" transform="translate(-895.238 -534.776)" fill="#bfbfbf"/>
          <g id="Grupo_8885" data-name="Grupo 8885">
            <path id="Trazado_13444" data-name="Trazado 13444" d="M898.823,548.309h-.05c-.183-.009-4.541-.227-6.813-3.18a7.235,7.235,0,0,1-1.07-6.223,1.144,1.144,0,0,1,.033-.118c0-.012.006-.024.01-.036.978-3.974,5.74-8.363,11.75-8.545a11.705,11.705,0,0,1,3.2.291c6.117,1.364,6.631,7.639,6.047,10.767a1.142,1.142,0,0,1-.22.491c-2.17,2.837-11.452,6.123-12.5,6.49A1.166,1.166,0,0,1,898.823,548.309Zm-5.667-8.867a5.013,5.013,0,0,0,.65,4.268c1.367,1.776,4.1,2.176,4.865,2.255,3.6-1.27,9.414-3.735,11.013-5.42.173-1.331.556-6.693-4.318-7.778a9.66,9.66,0,0,0-2.584-.236c-4.8.145-8.823,3.625-9.591,6.79-.008.03-.017.064-.027.094A.178.178,0,0,1,893.156,539.442Zm17.629,1.607h0Z" transform="translate(-890.641 -530.192)" fill="#bfbfbf"/>
          </g>
        </g>
        <g id="Grupo_8892" data-name="Grupo 8892" transform="translate(84.215 285.68)">
          <g id="Grupo_8890" data-name="Grupo 8890" transform="translate(-36.736 4.956)">
            <path id="Trazado_13449" data-name="Trazado 13449" d="M917.906,1689.25a3.651,3.651,0,0,1-.419.443,6.969,6.969,0,0,1-1.769,1.234h-.047a48.88,48.88,0,0,1-5.82.932,23.289,23.289,0,0,1-4.027.023,29.9,29.9,0,0,1-12.455-3.841c-3.446-1.955-5.4-5.285-7.264-8.521a40.849,40.849,0,0,0-2.724-4.307,25.2,25.2,0,0,0-4.959-4.237,46.99,46.99,0,0,1-7.939-6.891,17.309,17.309,0,0,1-3.771-7.078,11.378,11.378,0,0,1,.489-1.676,5.846,5.846,0,0,1,.279-.675h.023c1.49-3.1,5.075-5.308,8.288-6.775a36.818,36.818,0,0,1,6.053-2.142s4.167,1.746,3.213,5.541c-.675,2.608,6.169,9.592,7.38,10.08l.209.07c.117.023.21.046.3.07,1.071.117,2.1-.489,2.91-.419.978.07,1.118,1.816,1.187,2.537.047.675,4.214,11.594,6.961,13.62a1.754,1.754,0,0,0,.489.279,116.272,116.272,0,0,1,10.919,4.1,8.729,8.729,0,0,1,2.328,1.4A4.675,4.675,0,0,1,917.906,1689.25Z" transform="translate(-865.548 -1644.574)" fill="#fff"/>
            <g id="Grupo_8889" data-name="Grupo 8889">
              <path id="Trazado_13450" data-name="Trazado 13450" d="M903.07,1688.531c-.653,0-1.294-.027-1.934-.079a31.13,31.13,0,0,1-12.935-3.989c-3.774-2.143-5.858-5.76-7.7-8.951a39.768,39.768,0,0,0-2.643-4.189,24.692,24.692,0,0,0-4.717-4,47.981,47.981,0,0,1-8.136-7.072,18.669,18.669,0,0,1-4.017-7.551,1.182,1.182,0,0,1-.011-.525,12.967,12.967,0,0,1,.537-1.843,6.153,6.153,0,0,1,.355-.833,1.043,1.043,0,0,1,.09-.137c1.39-2.716,4.333-5.114,8.754-7.13a38,38,0,0,1,6.267-2.219,1.173,1.173,0,0,1,.72.06c1.76.737,4.84,3.128,3.892,6.9-.422,1.622,5.223,7.972,6.708,8.724a3.174,3.174,0,0,0,1.434-.139,5.131,5.131,0,0,1,1.629-.23c1.917.137,2.152,2.6,2.242,3.526.276,1.318,4.229,11.182,6.5,12.856l.726.3a110.584,110.584,0,0,1,10.49,3.962,9.466,9.466,0,0,1,2.651,1.625,5.854,5.854,0,0,1,.232,7.812,4.6,4.6,0,0,1-.556.579,7.817,7.817,0,0,1-1.989,1.382,1.17,1.17,0,0,1-.535.131,45.793,45.793,0,0,1-5.77.927C904.574,1688.5,903.816,1688.531,903.07,1688.531Zm-39.751-36.136a16.344,16.344,0,0,0,3.454,6.338,45.892,45.892,0,0,0,7.739,6.705,25.505,25.505,0,0,1,5.211,4.486,42.18,42.18,0,0,1,2.8,4.429c1.77,3.074,3.6,6.257,6.826,8.085a28.758,28.758,0,0,0,11.969,3.692,21.962,21.962,0,0,0,3.836-.021,48.315,48.315,0,0,0,5.687-.912,6.2,6.2,0,0,0,1.228-.915,3.066,3.066,0,0,0,.352-.367s0,0,0,0a3.526,3.526,0,0,0-.068-4.641,7.141,7.141,0,0,0-2.014-1.188,108.5,108.5,0,0,0-10.251-3.865l-.559-.188a2.617,2.617,0,0,1-.8-.443c-3.118-2.295-7.381-13.677-7.437-14.478a3.426,3.426,0,0,0-.338-1.555c.041.082-.314.173-.626.258a5.842,5.842,0,0,1-2.1.255c-.035-.009-.481-.1-.516-.115s-.273-.091-.3-.1c-1.438-.579-8.979-7.951-8.071-11.45.572-2.276-1.4-3.583-2.207-4.016a36.964,36.964,0,0,0-5.45,1.967c-4.021,1.834-6.619,3.926-7.722,6.221a1.244,1.244,0,0,1-.115.194c-.024.058-.046.115-.067.176A12.088,12.088,0,0,0,863.319,1652.394Z" transform="translate(-860.957 -1639.984)" fill="#e2e2e2"/>
            </g>
          </g>
        </g>
        <g id="Grupo_8899" data-name="Grupo 8899" transform="translate(34.092 285.327)">
          <g id="Grupo_8893" data-name="Grupo 8893" transform="translate(2.217)">
            <path id="Trazado_13452" data-name="Trazado 13452" d="M875.766,1609.615s-13.28,6.019-16.486,7.945c-2.023,1.215-15.958,7.33-12.656,15.581s14.878,12.952,16.571,19.942,14.449,10.214,20.947,10.091c3.121-.059,11.009-2.887,10.762-5.872-.5-6.016-10.881-3.986-13.563-6.891a27.857,27.857,0,0,1-7.478-17.21c-.472-5.237,5.263-4.337,11.985-8Z" transform="translate(-844.952 -1608.45)" fill="#fff"/>
            <path id="Trazado_13453" data-name="Trazado 13453" d="M879.192,1659.748c-6.669,0-19.852-3.213-21.734-10.986-.766-3.159-3.983-5.975-7.391-8.958-3.631-3.18-7.386-6.469-9.13-10.825-3.331-8.324,8.316-14.459,12.144-16.475.441-.233.785-.412.994-.537,3.225-1.937,16.058-7.76,16.6-8.009a1.167,1.167,0,0,1,1.458.427l10.084,15.584a1.168,1.168,0,0,1-.42,1.655,37.5,37.5,0,0,1-6.525,2.667,23.753,23.753,0,0,0-3.374,1.311,2.514,2.514,0,0,0-1.485,2.9,26.677,26.677,0,0,0,7.174,16.527c.781.843,2.909,1.206,4.968,1.561,3.8.649,8.523,1.458,8.9,6.02a3.522,3.522,0,0,1-1.052,2.665c-2.271,2.513-8.054,4.413-10.846,4.468C879.439,1659.748,879.316,1659.748,879.192,1659.748Zm-8.465-53.251c-3.048,1.391-12.826,5.887-15.455,7.466-.232.14-.614.343-1.106.6-5.847,3.077-13.355,7.833-11.067,13.547,1.537,3.837,5.077,6.939,8.5,9.939,3.692,3.232,7.18,6.284,8.118,10.164,1.514,6.25,13.58,9.333,19.8,9.2,2.284-.045,7.406-1.755,9.162-3.7a1.4,1.4,0,0,0,.461-.91c-.214-2.573-2.9-3.222-6.974-3.919-2.554-.439-4.967-.852-6.284-2.28a28.878,28.878,0,0,1-7.783-17.9,4.813,4.813,0,0,1,2.193-4.85,17.359,17.359,0,0,1,4.256-1.776,40.573,40.573,0,0,0,5.02-1.928Z" transform="translate(-840.345 -1603.856)" fill="#e6e6e6"/>
          </g>
          <g id="Grupo_8894" data-name="Grupo 8894" transform="translate(0 16.879)">
            <path id="Trazado_13454" data-name="Trazado 13454" d="M886.6,1727.606a6.743,6.743,0,0,1-2.188,1.7h-.023a15.522,15.522,0,0,1-4.866,1.351c-10.15,1.373-17.53-1.4-22.326-5.844-4.749-4.447-4.121-7.519-12.246-13.619-7.427-5.564-10.825-10.011-9.545-15.807l.768-2.352a15.77,15.77,0,0,0,3.865,8.661,47.2,47.2,0,0,0,7.776,6.728,25.83,25.83,0,0,1,5.192,4.47,41.606,41.606,0,0,1,2.794,4.424c1.886,3.236,3.655,6.286,6.821,8.1a29.482,29.482,0,0,0,11.989,3.678c4.028.3,7.8-.559,11.826-1.443Z" transform="translate(-833.976 -1691.871)" fill="#c9c9c9"/>
          </g>
          <g id="Grupo_8898" data-name="Grupo 8898" transform="translate(1.033 7.963)">
            <path id="Trazado_13458" data-name="Trazado 13458" d="M890.671,1692.449l-.163.047c-4.028.884-7.8,1.746-11.827,1.443a29.48,29.48,0,0,1-11.989-3.678c-3.166-1.816-4.936-4.866-6.821-8.1a41.6,41.6,0,0,0-2.794-4.424,25.843,25.843,0,0,0-5.192-4.47,47.2,47.2,0,0,1-7.776-6.728,15.771,15.771,0,0,1-3.865-8.661v-.023c3-6.123,14.341-8.893,14.341-8.893s4.19,1.746,3.213,5.54c-.675,2.608,6.193,9.592,7.4,10.057a1.151,1.151,0,0,0,.372.117c.047.023.093.023.14.047,1.048.116,2.072-.489,2.91-.442.955.093,1.118,1.839,1.187,2.561.047.652,4.191,11.594,6.961,13.62a2.458,2.458,0,0,0,.466.279c2.421.839,9.592,3.167,12.432,4.889a3.709,3.709,0,0,1,.838.605A4.641,4.641,0,0,1,890.671,1692.449Z" transform="translate(-839.081 -1647.799)" fill="#fff"/>
            <g id="Grupo_8897" data-name="Grupo 8897">
              <path id="Trazado_13459" data-name="Trazado 13459" d="M875.773,1690.584c-.584,0-1.173-.021-1.77-.067a30.62,30.62,0,0,1-12.469-3.825c-3.433-1.967-5.279-5.135-7.234-8.488l-.181-.312a38.1,38.1,0,0,0-2.557-4.032,24.808,24.808,0,0,0-4.893-4.192s-.291-.218-.292-.218a46.865,46.865,0,0,1-7.739-6.733,16.9,16.9,0,0,1-4.142-9.321,1.254,1.254,0,0,1,.114-.637c3.207-6.539,14.626-9.394,15.111-9.512a1.179,1.179,0,0,1,.723.057c1.772.737,4.865,3.131,3.894,6.905-.406,1.564,5.271,7.969,6.72,8.691a2.887,2.887,0,0,1,.474.164,9.72,9.72,0,0,1,.962-.282,5.193,5.193,0,0,1,1.607-.246c1.948.185,2.187,2.662,2.277,3.592.279,1.276,4.247,11.167,6.491,12.807l1.288.5c3.122,1.064,8.938,3.04,11.525,4.611a4.571,4.571,0,0,1,1.1.824,5.774,5.774,0,0,1,.187,7.739,1.145,1.145,0,0,1-.561.367l-.553.136A46.509,46.509,0,0,1,875.773,1690.584Zm-27.722-22.79a25.97,25.97,0,0,1,5.372,4.668,39.84,39.84,0,0,1,2.712,4.262l.155.27c1.814,3.113,3.509,6.017,6.391,7.672a28.28,28.28,0,0,0,11.5,3.529c3.748.279,7.357-.509,11.177-1.352l.049-.009a3.463,3.463,0,0,0-.276-4.326,3.39,3.39,0,0,0-.648-.464c-2.377-1.443-8.251-3.44-11.075-4.4l-1.141-.388a3.518,3.518,0,0,1-.768-.439c-3.113-2.274-7.363-13.438-7.437-14.474a3.351,3.351,0,0,0-.356-1.58c.071.088-.273.179-.606.27a5.457,5.457,0,0,1-2.1.263,1.262,1.262,0,0,1-.349-.1,1.608,1.608,0,0,1-.63-.221c-1.246-.464-8.827-7.9-7.932-11.349.579-2.252-1.391-3.574-2.207-4.013-1.94.537-10.423,3.122-13.033,7.894a14.708,14.708,0,0,0,3.562,7.693,45.03,45.03,0,0,0,7.363,6.381l-.408,1.149Zm38.03,20.07h0Z" transform="translate(-834.491 -1643.215)" fill="#e8e8e8"/>
            </g>
          </g>
        </g>
        <path id="Trazado_13460" data-name="Trazado 13460" d="M849.343,1279.674c-.31,3.373-8.409,9.631-20.924,16.573-20.762,11.521-53.7,24.95-83.519,30.279-47.814,8.556-50.437-19.132-50.437-19.132L727.74,1270.3l32.511-5.7s44.277-15.889,68.315-13.445S850.158,1270.711,849.343,1279.674Z" transform="translate(-687.667 -1036.979)" fill="#ceb5de"/>
        <path id="Trazado_13461" data-name="Trazado 13461" d="M1024.4,1373.149l-22.492,18.406-24.66,20.18,11.526,18.451s86.523-49.326,86.145-63.964S1036.028,1363.636,1024.4,1373.149Z" transform="translate(-913.245 -1123.528)" fill="#ceb5de"/>
        <g id="Grupo_8900" data-name="Grupo 8900" transform="translate(62.841 241.52)">
          <path id="Trazado_13462" data-name="Trazado 13462" d="M984.187,1453.624a1.159,1.159,0,0,1-.988-.549l-11.527-18.452a1.161,1.161,0,0,1,.25-1.516l47.152-38.586a1.163,1.163,0,1,1,1.473,1.8l-46.359,37.937,10.391,16.633c24.558-14.068,84.877-51.081,84.586-62.367a1.166,1.166,0,0,1,1.134-1.194,1.075,1.075,0,0,1,1.194,1.134c.383,14.905-77.814,59.92-86.732,65.007A1.155,1.155,0,0,1,984.187,1453.624Z" transform="translate(-971.495 -1387.321)" fill="#fff"/>
        </g>
        <g id="Grupo_8901" data-name="Grupo 8901" transform="translate(38.909 100.16)">
          <path id="Trazado_13463" data-name="Trazado 13463" d="M883.184,725.545c.147,7.138,2.168,19.311,2.216,19.7-.733-.407-24.379-13.738-26.449-25.455,0,0,7.708-2.3,11.57-13.3a33.752,33.752,0,0,0,1.255-4.547l3.113-7.61,12.776,18.333a18.023,18.023,0,0,0-4.482,11.147C883.168,724.355,883.168,724.925,883.184,725.545Z" transform="translate(-857.787 -693.174)" fill="#fff"/>
          <path id="Trazado_13464" data-name="Trazado 13464" d="M880.81,741.824a1.177,1.177,0,0,1-.565-.145c-1.012-.564-24.846-13.917-27.029-26.27a1.17,1.17,0,0,1,.809-1.319c.243-.073,5.074-1.632,8.908-8.315a26.286,26.286,0,0,0,1.9-4.253,32.782,32.782,0,0,0,1.214-4.4l3.174-7.815a1.164,1.164,0,0,1,2.033-.227l12.777,18.333a1.169,1.169,0,0,1-.118,1.476,17.02,17.02,0,0,0-4.155,10.376c-.017.515-.017,1.064,0,1.658v.006A152.075,152.075,0,0,0,881.887,740l.079.515a1.164,1.164,0,0,1-1.155,1.307Zm-25.092-25.9c2.331,8.312,16.2,18.091,23.572,22.514a149.948,149.948,0,0,1-1.86-17.452c-.017-.643-.017-1.234,0-1.788a19.259,19.259,0,0,1,4.174-11.189l-11.037-15.839-2.3,5.632a31.462,31.462,0,0,1-1.237,4.5C863.82,711.442,858.063,714.867,855.719,715.922Z" transform="translate(-853.198 -688.587)" fill="#bebebe"/>
        </g>
        <g id="Grupo_8902" data-name="Grupo 8902" transform="translate(0 125.622)">
          <path id="Trazado_13465" data-name="Trazado 13465" d="M740.386,908.326a60.319,60.319,0,0,1-1.89,11.7,5.6,5.6,0,0,1-.44,1.01c-2.982,5.166-13.037,4.612-22.815,8.686s-14.113,22.815-23.353,30.425-25.259,2.444-25.259,2.444c3.145-8.132,4.188-24.526,4.4-39.845.261-17.893-.6-34.3-.6-34.3-1.89-23.092,5.052-41.409,17.552-54.984,6.828-7.415,17.567-13.265,17.567-13.265,5.215,9.452,26.466,25.471,26.466,25.471,5.41,10.006,7.871,24.037,8.67,37.3A175.329,175.329,0,0,1,740.386,908.326Z" transform="translate(-665.464 -819.031)" fill="#fff"/>
          <path id="Trazado_13466" data-name="Trazado 13466" d="M673.6,960.9a42.665,42.665,0,0,1-11.925-1.788,1.162,1.162,0,0,1-.727-1.525c2.561-6.626,4.056-20.264,4.321-39.444.258-17.652-.593-34.063-.6-34.227-1.817-22.2,4.191-40.993,17.858-55.834,6.88-7.472,17.423-13.256,17.868-13.5a1.162,1.162,0,0,1,1.575.461c5.035,9.124,25.936,24.945,26.147,25.1a1.225,1.225,0,0,1,.324.376c6.075,11.237,8.142,26.749,8.807,37.786a176.635,176.635,0,0,1-.3,25.53h0a61.48,61.48,0,0,1-1.948,11.968,6.463,6.463,0,0,1-.544,1.24c-2.063,3.577-6.866,4.677-12.427,5.953a67.357,67.357,0,0,0-10.94,3.207c-5.012,2.089-8.582,8.488-12.36,15.263-3.136,5.62-6.378,11.431-10.7,14.987C683.846,959.911,678.435,960.9,673.6,960.9Zm-10.051-3.68c3.759.97,15.755,3.407,23-2.558,3.982-3.28,7.115-8.9,10.144-14.326,3.982-7.139,7.742-13.878,13.5-16.275a68.642,68.642,0,0,1,11.314-3.328c5.237-1.2,9.374-2.152,10.94-4.865a4.4,4.4,0,0,0,.347-.81,60.653,60.653,0,0,0,1.832-11.425h0a174.28,174.28,0,0,0,.289-25.184c-.646-10.728-2.631-25.751-8.412-36.594-2.252-1.713-20.157-15.469-25.977-24.672-2.775,1.616-10.863,6.578-16.295,12.477-13.209,14.344-19.013,32.547-17.248,54.1.012.2.865,16.685.608,34.415C667.342,936.827,665.982,949.95,663.554,957.222ZM735.8,903.737h0Z" transform="translate(-660.873 -814.444)" fill="#c9c9c9"/>
        </g>
        <g id="Grupo_8903" data-name="Grupo 8903" transform="translate(33.918 120.039)">
          <path id="Trazado_13467" data-name="Trazado 13467" d="M846.368,792.831s-8.837-2.679-12.011,7c0,0-1.625,6.419,8.776,15.729,7.28,6.517,18.561,14.706,20.244,16.764,0,0,2.967-4.813,2.357-8.759s-7.13-9.69-12.121-14.725S844.522,800.6,846.368,792.831Z" transform="translate(-833.104 -791.349)" fill="#fff"/>
          <path id="Trazado_13468" data-name="Trazado 13468" d="M858.8,828.983a1.159,1.159,0,0,1-.9-.427,92.871,92.871,0,0,0-7.725-6.439c-4.074-3.225-8.691-6.878-12.394-10.194-10.8-9.67-9.2-16.594-9.129-16.881,3.509-10.71,13.379-7.854,13.477-7.827a1.166,1.166,0,0,1,.794,1.385c-1.541,6.49,1.343,9.352,5.706,13.687l1.232,1.231c.823.828,1.687,1.676,2.558,2.534,4.58,4.5,9.318,9.155,9.887,12.829.667,4.323-2.386,9.339-2.516,9.549a1.16,1.16,0,0,1-.914.552A.666.666,0,0,1,858.8,828.983ZM830.888,795.69c.006,0-1.155,5.9,8.445,14.5,3.651,3.268,8.238,6.9,12.286,10.1,3.262,2.58,5.537,4.389,6.89,5.6.77-1.592,1.855-4.344,1.5-6.657-.45-2.913-5.108-7.49-9.218-11.525-.879-.864-1.749-1.722-2.578-2.559l-1.22-1.216c-4.159-4.132-7.78-7.727-6.574-14.7-2.219-.315-7.343-.218-9.529,6.454Z" transform="translate(-828.529 -786.849)" fill="#bfbfbf"/>
        </g>
        <g id="Grupo_8904" data-name="Grupo 8904" transform="translate(62.855 127.06)">
          <path id="Trazado_13469" data-name="Trazado 13469" d="M977.833,827.325s6.847,9.355,6.745,17.5a54.49,54.49,0,0,1-1.691,13.5l-3.1-6.986S975.787,832.877,977.833,827.325Z" transform="translate(-976.1 -826.157)" fill="#fff"/>
          <path id="Trazado_13470" data-name="Trazado 13470" d="M978.349,854.892a1.165,1.165,0,0,1-1.064-.691l-3.095-6.987c-.24-.994-4.126-19.091-1.989-24.9a1.164,1.164,0,0,1,.931-.749,1.134,1.134,0,0,1,1.1.464c.288.394,7.075,9.767,6.971,18.206a55.207,55.207,0,0,1-1.74,13.82,1.159,1.159,0,0,1-1.041.831A.631.631,0,0,1,978.349,854.892Zm-4.429-29.083c-.362,5.814,1.551,16.436,2.472,20.686l1.579,3.535a60.955,60.955,0,0,0,.9-9.821C978.942,834.949,975.871,829.032,973.921,825.809Z" transform="translate(-971.562 -821.552)" fill="#bcbcbc"/>
        </g>
        <g id="Grupo_8906" data-name="Grupo 8906" transform="translate(55.076 90.513)">
          <path id="Trazado_13473" data-name="Trazado 13473" d="M975.134,654.78s-2.514,13.549-5.634,17.135c-2.4,2.724-15.342,8.311-16.762,8.428-1.42.093-11.012-6.309-12.734-9.685a20.447,20.447,0,0,1-1.141-6.286,2.6,2.6,0,0,0,1.63-.466c1.4-1.071,4.121-3.446,4.19-5.448v-.07c-6.4-.675-3.445-9.848.559-11.384a.835.835,0,0,1,.21-.093,3.945,3.945,0,0,1,3.05.093,8.108,8.108,0,0,1,1.956,2.537.466.466,0,0,0,.186.093h.023c1.35.536,2.864,1.094,4.447,1.63a.993.993,0,0,0,.116.047C962.167,653.663,970.781,655.781,975.134,654.78Z" transform="translate(-937.699 -645.49)" fill="#fff"/>
          <path id="Trazado_13474" data-name="Trazado 13474" d="M948.175,676.912c-2.337,0-12.068-6.93-13.8-10.316-.591-1.161-1-3.359-1.264-6.727a1.165,1.165,0,0,1,1.161-1.252,1.513,1.513,0,0,0,.887-.2,12.608,12.608,0,0,0,3.513-3.725,4.766,4.766,0,0,1-3.416-4.156c-.468-3.574,1.951-8.048,4.977-9.209.026-.009.261-.112.286-.118a5.084,5.084,0,0,1,3.9.161,1.143,1.143,0,0,1,.323.23,12.056,12.056,0,0,1,2.014,2.461c1.269.5,2.674,1.013,4.139,1.51,8.779,2.983,15.98,4.274,19.387,3.486a1.135,1.135,0,0,1,1.066.294,1.162,1.162,0,0,1,.339,1.052c-.264,1.419-2.665,13.965-5.9,17.685-2.595,2.949-15.705,8.676-17.545,8.824Zm-12.644-16.127a14.927,14.927,0,0,0,.921,4.75c1.528,3,10.341,8.833,11.724,9.055,1.466-.227,13.746-5.629,15.862-8.036,2.1-2.41,4.125-10.552,5.049-14.984-5.784.373-14.89-2.416-18.819-3.747-.055-.018-.224-.088-.276-.115-1.405-.461-2.9-1.009-4.235-1.54a.216.216,0,0,1-.041-.012,2.17,2.17,0,0,1-.656-.367,1.164,1.164,0,0,1-.326-.579,7.722,7.722,0,0,0-1.5-1.822,2.9,2.9,0,0,0-2.013.039c-2.182.852-3.983,4.311-3.656,6.805a2.607,2.607,0,0,0,2.651,2.407,1.167,1.167,0,0,1,1.041,1.158c-.086,2.586-2.948,5.138-4.647,6.442A2.921,2.921,0,0,1,935.531,660.785Zm10.338-15.833h0Z" transform="translate(-933.112 -640.9)" fill="#c6c6c6"/>
        </g>
        <g id="Grupo_8909" data-name="Grupo 8909" transform="translate(50.084 81.969)">
          <path id="Trazado_13477" data-name="Trazado 13477" d="M928.822,613.318a3.945,3.945,0,0,0-3.05-.093.839.839,0,0,0-.21.093c-4,1.536-6.961,10.709-.559,11.384v.07c-.07,2-2.793,4.377-4.19,5.448a2.6,2.6,0,0,1-1.63.466,11.011,11.011,0,0,1-3.329-.466c-.978-3.515-2.212-11.012-1.4-16.552a19.322,19.322,0,0,1,.652-2.77,17.371,17.371,0,0,1,3.585-6.472s3.539,2.84,6.775,5.75C926.7,611.269,927.891,612.363,928.822,613.318Z" transform="translate(-913.028 -603.26)" fill="#fff"/>
          <g id="Grupo_8908" data-name="Grupo 8908">
            <path id="Trazado_13478" data-name="Trazado 13478" d="M914.191,627.269a12.552,12.552,0,0,1-3.277-.534,1.159,1.159,0,0,1-.774-.8c-1.034-3.717-2.267-11.319-1.426-17.033a19.987,19.987,0,0,1,.7-2.962,18.392,18.392,0,0,1,3.856-6.921,1.155,1.155,0,0,1,1.564-.1c.035.027,3.6,2.892,6.825,5.79,1.249,1.109,2.457,2.225,3.407,3.2a1.163,1.163,0,0,1-1.341,1.858,2.81,2.81,0,0,0-2.182-.033c-2.182.852-3.983,4.311-3.656,6.805a2.607,2.607,0,0,0,2.651,2.407,1.167,1.167,0,0,1,1.041,1.158c-.086,2.586-2.948,5.138-4.647,6.441a3.717,3.717,0,0,1-2.337.706C914.46,627.266,914.325,627.269,914.191,627.269Zm-1.978-2.595a8.791,8.791,0,0,0,2.307.258,1.644,1.644,0,0,0,.958-.2A12.6,12.6,0,0,0,918.991,621a4.766,4.766,0,0,1-3.416-4.156c-.468-3.574,1.951-8.048,4.977-9.209.026-.009.261-.112.286-.118.114-.039.226-.073.338-.1-.349-.318-.709-.64-1.073-.964-2.213-1.988-4.589-3.962-5.841-4.99a17.251,17.251,0,0,0-2.633,5.184,17.615,17.615,0,0,0-.615,2.619C910.281,614.249,911.3,621.064,912.213,624.674Z" transform="translate(-908.435 -598.666)" fill="#bfbfbf"/>
          </g>
        </g>
        <g id="Grupo_8917" data-name="Grupo 8917" transform="translate(121.402 0)">
          <g id="Grupo_8915" data-name="Grupo 8915" transform="translate(31.941)">
            <g id="Grupo_8910" data-name="Grupo 8910" transform="translate(5.052)">
              <path id="Trazado_13479" data-name="Trazado 13479" d="M1521.063,308.842c2.831,7.855,5.661,20.778,5.661,40.057a257.431,257.431,0,0,1-3.095,38.166c-2.449.766-4.913,1.451-7.392,2.037a106.088,106.088,0,0,1-46.948.652c-3.432-.733-6.82-1.63-10.193-2.689-6.233-41.556-1.833-66,2.567-78.223s3.813-26.889,3.813-26.889c-.235-12.222-15.913-26.889-15.913-49.3,0-4.4,3.183-7.121,7.421-8.963,6.336-2.754,15.019-3.585,18.979-5.3,3.916-1.695,4.224-8.116,3.813-13.07a5.937,5.937,0,0,1,.469-2.9,4.968,4.968,0,0,1,4.5-3.178h13.229a4.922,4.922,0,0,1,4.415,3,5.992,5.992,0,0,1,.557,3.08c-.029.407-.059.831-.088,1.255-.25,4.726.308,10.267,3.9,11.815,2.889,1.239,8.272,2.021,13.435,3.422,1.188.31,2.376.668,3.505,1.076h.015c5.207,1.841,9.445,4.677,9.445,9.761,0,22.408-15.679,37.074-15.913,49.3C1517.25,281.953,1516.664,296.62,1521.063,308.842Z" transform="translate(-1448.399 -198.086)" fill="#fff"/>
              <path id="Trazado_13480" data-name="Trazado 13480" d="M1486.775,388.645a108.743,108.743,0,0,1-22.314-2.337c-3.418-.731-6.882-1.646-10.3-2.719a1.166,1.166,0,0,1-.8-.937c-6.587-43.918-1.184-68.214,2.622-78.79,4.27-11.858,3.751-26.3,3.747-26.448-.1-4.893-2.85-10.322-6.04-16.609-4.4-8.673-9.875-19.464-9.875-32.736,0-4.314,2.733-7.687,8.121-10.028a65.695,65.695,0,0,1,11.822-3.38,46.1,46.1,0,0,0,7.159-1.919c3.447-1.491,3.432-8.1,3.116-11.9a7.109,7.109,0,0,1,.565-3.468,6.094,6.094,0,0,1,5.565-3.871h13.23a6.063,6.063,0,0,1,5.471,3.674,7.155,7.155,0,0,1,.661,3.659l-.088,1.246c-.177,3.377,0,9.285,3.2,10.661a46.127,46.127,0,0,0,7.117,1.907c1.974.434,4.086.9,6.163,1.461,1.184.312,2.375.67,3.51,1.076a.514.514,0,0,1,.094.027c6.877,2.434,10.22,5.987,10.22,10.858,0,13.271-5.475,24.063-9.875,32.736-3.191,6.287-5.945,11.716-6.039,16.584-.006.17-.524,14.614,3.745,26.472h0c2.615,7.251,5.731,20.155,5.731,40.45a260.414,260.414,0,0,1-3.107,38.34,1.158,1.158,0,0,1-.8.937c-2.542.8-5.056,1.491-7.474,2.061A107.66,107.66,0,0,1,1486.775,388.645Zm-31.223-7.06c3.124.958,6.28,1.78,9.393,2.443a105.432,105.432,0,0,0,46.431-.643c2.148-.506,4.371-1.112,6.623-1.8a257.145,257.145,0,0,0,2.972-37.273c0-19.958-3.04-32.584-5.591-39.662h0c-4.426-12.3-3.9-26.721-3.88-27.327.1-5.378,2.969-11.028,6.29-17.573,4.509-8.888,9.621-18.964,9.621-31.68,0-3.8-2.73-6.545-8.588-8.636a.6.6,0,0,1-.1-.03c-1.1-.394-2.252-.74-3.407-1.046-2.049-.555-4.124-1.01-6.062-1.437a46.509,46.509,0,0,1-7.536-2.04c-3.43-1.476-4.979-5.829-4.6-12.944l.089-1.276a4.845,4.845,0,0,0-.444-2.492,3.773,3.773,0,0,0-3.366-2.34h-13.23a3.812,3.812,0,0,0-3.433,2.474,4.806,4.806,0,0,0-.379,2.343c.644,7.757-.917,12.677-4.511,14.232a45.964,45.964,0,0,1-7.584,2.058,64.188,64.188,0,0,0-11.393,3.241c-4.523,1.964-6.72,4.547-6.72,7.893,0,12.716,5.112,22.793,9.621,31.68,3.321,6.545,6.187,12.2,6.292,17.6.023.582.544,15.008-3.882,27.3C1454.458,314.962,1449.206,338.631,1455.552,381.585Zm63.49.894h0Z" transform="translate(-1443.81 -193.5)"/>
            </g>
            <g id="Grupo_8911" data-name="Grupo 8911" transform="translate(26.504 65.303)" opacity="0.36" style="mix-blend-mode: overlay;isolation: isolate">
              <path id="Trazado_13481" data-name="Trazado 13481" d="M1549.85,516.76s7.089,3.8,19.8,0Z" transform="translate(-1549.85 -516.665)" fill="#fff"/>
              <path id="Trazado_13482" data-name="Trazado 13482" d="M1549.85,516.387c3.519.233,6.607.219,9.829.127,1.6-.016,3.207-.13,4.854-.159a42.314,42.314,0,0,1,5.117.033,17.659,17.659,0,0,1-9.887,3.216,17.989,17.989,0,0,1-5.258-.651A10.457,10.457,0,0,1,1549.85,516.387Z" transform="translate(-1549.85 -516.292)"/>
            </g>
            <g id="Grupo_8912" data-name="Grupo 8912" transform="translate(52.09 66.951)" opacity="0.36" style="mix-blend-mode: overlay;isolation: isolate">
              <path id="Trazado_13483" data-name="Trazado 13483" d="M1676.317,525.113s7.877,3.8,22,0Z" transform="translate(-1676.317 -524.976)" fill="#fff"/>
              <path id="Trazado_13484" data-name="Trazado 13484" d="M1676.318,524.572c3.884.17,7.341.139,10.934.043l5.406-.142a46.682,46.682,0,0,1,5.66.1,20.838,20.838,0,0,1-10.987,3.3,21.42,21.42,0,0,1-5.788-.664A12.312,12.312,0,0,1,1676.318,524.572Z" transform="translate(-1676.318 -524.435)"/>
            </g>
            <g id="Grupo_8913" data-name="Grupo 8913" transform="translate(56.56 7.334)" opacity="0.36" style="mix-blend-mode: overlay;isolation: isolate">
              <path id="Trazado_13485" data-name="Trazado 13485" d="M1723.292,250.734s-16.485-.7-18.568-6.812a8.689,8.689,0,0,1,1.232-8.425c-.25,4.726.308,10.267,3.9,11.815C1712.746,248.551,1718.129,249.333,1723.292,250.734Z" transform="translate(-1703.001 -234.335)" fill="#fff"/>
              <path id="Trazado_13486" data-name="Trazado 13486" d="M1718.7,247.316h-.05c-1.769-.076-17.347-.928-19.62-7.6a9.87,9.87,0,0,1,1.413-9.512,1.165,1.165,0,0,1,2.084.773c-.179,3.4,0,9.306,3.2,10.682a46.044,46.044,0,0,0,7.116,1.907c1.973.434,4.086.9,6.163,1.461a1.165,1.165,0,0,1-.3,2.288Z" transform="translate(-1698.413 -229.754)"/>
            </g>
            <g id="Grupo_8914" data-name="Grupo 8914" transform="translate(0 131.939)">
              <path id="Trazado_13487" data-name="Trazado 13487" d="M1502.407,1021.57h-25.529V851.415h-7.333V1021.57h-25.512A19.456,19.456,0,0,0,1424.591,1041v14.813a3.258,3.258,0,0,0,3.259,3.259,3.517,3.517,0,0,0,1.3-.26,3.268,3.268,0,0,0,1.956-3V1041a12.929,12.929,0,0,1,12.923-12.907h25.512V1039h7.333v-10.915h25.529A12.915,12.915,0,0,1,1515.313,1041v14.813a3.266,3.266,0,0,0,1.972,3,3.37,3.37,0,0,0,1.288.26,3.258,3.258,0,0,0,3.259-3.259V1041A19.453,19.453,0,0,0,1502.407,1021.57Z" transform="translate(-1423.428 -850.252)" fill="#fff"/>
              <path id="Trazado_13488" data-name="Trazado 13488" d="M1513.984,1055.647a4.525,4.525,0,0,1-1.737-.351,4.447,4.447,0,0,1-2.686-4.071v-14.814a11.757,11.757,0,0,0-11.743-11.743h-24.365v9.752a1.164,1.164,0,0,1-1.164,1.164h-7.333a1.164,1.164,0,0,1-1.164-1.164v-9.752h-24.348a11.765,11.765,0,0,0-11.76,11.743v14.814a4.423,4.423,0,1,1-8.845,0v-14.814a20.621,20.621,0,0,1,20.605-20.589h24.348V846.831a1.164,1.164,0,0,1,1.164-1.164h7.333a1.164,1.164,0,0,1,1.164,1.164v168.991h24.365a20.613,20.613,0,0,1,20.59,20.589v14.814A4.429,4.429,0,0,1,1513.984,1055.647Zm-41.694-33.308h25.528a14.087,14.087,0,0,1,14.071,14.071v14.814a2.115,2.115,0,0,0,1.275,1.931,2.175,2.175,0,0,0,2.916-1.931v-14.814a18.281,18.281,0,0,0-18.262-18.261H1472.29a1.164,1.164,0,0,1-1.164-1.164V848h-5v168.991a1.165,1.165,0,0,1-1.164,1.164h-25.512a18.289,18.289,0,0,0-18.277,18.261v14.814a2.13,2.13,0,0,0,2.965,1.919,2.1,2.1,0,0,0,1.224-1.919v-14.814a14.1,14.1,0,0,1,14.088-14.071h25.512a1.164,1.164,0,0,1,1.164,1.164v9.752h5V1023.5A1.164,1.164,0,0,1,1472.29,1022.339Z" transform="translate(-1418.84 -845.667)"/>
            </g>
          </g>
          <path id="Trazado_13489" data-name="Trazado 13489" d="M1420.709,738.164s-22.082-2.265-39.356,3.259S1345.093,756.53,1316.688,755c-28.388-1.532-49.981-23.059-49.981-30.214,0,0,18.334-4.726,24.445-14.911,0,0,9-23.793,10.185-34.891,1.63-15.286,9.191-28.828,14.031-36.129,2.412-3.65,4.14-5.736,4.14-5.736s27.671,11.668,52.067,0c0,0,1.45,2.656,3.895,6.844,4.954,8.523,14.08,23.385,23.646,35.021C1413.375,692.354,1420.709,730.195,1420.709,738.164Z" transform="translate(-1265.544 -544.179)" fill="#19a99a"/>
          <g id="Grupo_8916" data-name="Grupo 8916" transform="translate(0 102.309)">
            <path id="Trazado_13490" data-name="Trazado 13490" d="M1318.16,809.048c-1.992,0-4.03-.052-6.12-.167-28.431-1.534-51.083-23.308-51.083-31.374a1.166,1.166,0,0,1,.873-1.128c.179-.045,17.944-4.729,23.737-14.38h0c-.02,0,2.395-6.414,4.841-13.98a1.164,1.164,0,0,1,2.216.715c-2.489,7.7-4.944,14.208-4.97,14.274-5.606,9.376-20.281,14.193-24.26,15.354,1.648,7.087,21.9,26.745,48.77,28.2,22.729,1.222,39.339-4.729,54.006-9.982,3.513-1.258,6.91-2.474,10.242-3.541,15.07-4.82,33.4-3.828,38.493-3.428-.677-9.458-7.768-44.712-21.275-61.163a259.844,259.844,0,0,1-19.138-27.461,1.164,1.164,0,0,1,1.983-1.219,257.566,257.566,0,0,0,18.955,27.2c14.828,18.061,21.857,56.537,21.857,63.919a1.165,1.165,0,0,1-.383.864,1.177,1.177,0,0,1-.9.294c-.22-.021-22.047-2.173-38.883,3.213-3.307,1.058-6.678,2.264-10.166,3.513C1353.422,803.613,1338.244,809.048,1318.16,809.048Z" transform="translate(-1260.957 -699.21)"/>
          </g>
          <path id="Trazado_13491" data-name="Trazado 13491" d="M1567.338,639.961c-6.176,2.64-16.492,5.557-31.859,5.541-10.283,0-20.957-3.569-28.242-6.649,2.412-3.65,4.139-5.736,4.139-5.736s27.671,11.668,52.067,0C1563.444,633.117,1564.894,635.773,1567.338,639.961Z" transform="translate(-1457.413 -544.179)" fill="#24625c"/>
          <path id="Trazado_13492" data-name="Trazado 13492" d="M1478.447,717.207c-3.676,13.389-4.758,27.019-6.536,40.762a155.039,155.039,0,0,1-3.9,20.5,68.68,68.68,0,0,1-8.237,19.164c5.231-12.888,7.14-26.427,8.9-40.092.939-6.827,1.82-13.714,3.283-20.526A84.656,84.656,0,0,1,1478.447,717.207Z" transform="translate(-1419.555 -611.257)"/>
          <path id="Trazado_13493" data-name="Trazado 13493" d="M1582.845,750.231c1.067,13.786,2.049,27.452,2.378,41.262.149,6.889.144,13.913-1.092,20.835a41.438,41.438,0,0,1-8.156,19.09,50.208,50.208,0,0,0,5.763-19.429,153.832,153.832,0,0,0,.277-20.408C1581.6,777.859,1581.133,763.994,1582.845,750.231Z" transform="translate(-1512.244 -637.6)"/>
          <path id="Trazado_13494" data-name="Trazado 13494" d="M1691.614,761.943a117.1,117.1,0,0,0,4.017,16.84c1.78,5.423,4.214,10.768,5.483,16.68a53.77,53.77,0,0,1,.509,17.8,90.981,90.981,0,0,1-3.93,17.13c1.028-11.611,2.609-23.217.236-34.251-1.1-5.5-3.383-10.891-4.735-16.669A60.958,60.958,0,0,1,1691.614,761.943Z" transform="translate(-1604.424 -646.942)"/>
          <path id="Trazado_13495" data-name="Trazado 13495" d="M1777.638,744.822a116.588,116.588,0,0,0,6.2,15.414c2.433,4.927,5.4,9.558,8.033,14.619a45.942,45.942,0,0,1,5.031,16.37,60.152,60.152,0,0,1-.842,16.894,126.068,126.068,0,0,0-1.672-16.514,55.34,55.34,0,0,0-5.419-15.272c-2.455-4.872-5.406-9.749-7.444-15.065A58.408,58.408,0,0,1,1777.638,744.822Z" transform="translate(-1673.109 -633.285)"/>
        </g>
        <g id="Grupo_8919" data-name="Grupo 8919" transform="translate(55.587 76.675)">
          <path id="Trazado_13496" data-name="Trazado 13496" d="M973.207,600.231c-4.353,1-12.967-1.118-19.9-3.469a1,1,0,0,1-.116-.047c-1.583-.535-3.1-1.094-4.447-1.63h-.023a.468.468,0,0,1-.186-.093,8.108,8.108,0,0,0-1.956-2.537,3.945,3.945,0,0,0-3.05-.093.837.837,0,0,0-.21.093,10.786,10.786,0,0,1-1.49-1.234,22.742,22.742,0,0,1-5.378-7.659c5.843-3.679,16.017-5.844,23.35-5.168,4.772.442,8.847,3.469,11.78,7.031a26.878,26.878,0,0,1,3.7,5.867A7.508,7.508,0,0,1,973.207,600.231Z" transform="translate(-935.283 -577.104)" fill="#bfbfbf"/>
          <g id="Grupo_8918" data-name="Grupo 8918">
            <path id="Trazado_13497" data-name="Trazado 13497" d="M965.98,597.046c-5.769,0-13.971-2.54-17.642-3.783-.055-.018-.224-.088-.276-.115-1.405-.461-2.9-1.009-4.235-1.54a.218.218,0,0,1-.041-.012,2.171,2.171,0,0,1-.656-.367,1.165,1.165,0,0,1-.326-.579,7.725,7.725,0,0,0-1.5-1.822,2.9,2.9,0,0,0-2.013.039,1.019,1.019,0,0,1-1.235-.057,11.728,11.728,0,0,1-1.649-1.37,23.591,23.591,0,0,1-5.635-8.051,1.163,1.163,0,0,1,.462-1.412c5.969-3.762,16.3-6.066,24.078-5.341,4.494.415,8.959,3.062,12.571,7.448a28,28,0,0,1,3.863,6.123,8.616,8.616,0,0,1-2.417,10.343,1.165,1.165,0,0,1-.455.215A13.052,13.052,0,0,1,965.98,597.046Zm2.636-1.416h0ZM944.829,589.5c1.269.5,2.674,1.013,4.139,1.51,8.55,2.9,15.6,4.21,19.117,3.541a6.263,6.263,0,0,0,1.543-7.381,25.615,25.615,0,0,0-3.538-5.605c-1.864-2.264-5.767-6.129-10.992-6.614-6.82-.63-16.122,1.316-21.751,4.477a21.33,21.33,0,0,0,4.661,6.32,9.511,9.511,0,0,0,.906.8,4.973,4.973,0,0,1,3.577.258,1.144,1.144,0,0,1,.323.23A12.052,12.052,0,0,1,944.829,589.5Zm-.89.891h0Z" transform="translate(-930.693 -572.502)" fill="#bfbfbf"/>
          </g>
        </g>
        <g id="Grupo_8920" data-name="Grupo 8920" transform="translate(67.64 175.282)">
          <path id="Trazado_13498" data-name="Trazado 13498" d="M1068.38,1069.811a8.654,8.654,0,0,1-5.961,7.908c-2,.667-9.37-1.63-10.186-.815s-4.481,4.074-6.73,5.084c-2.233,1.027-33,14.667-37.677,16.508-.929.359-2.428.913-4.335,1.532,3.553-7.627-2.249-17.942-2.526-18.431,2.917-.489,5.7-1.01,7.268-1.434,3.6-.994,33.6-6.111,36.667-9.159,3.047-3.064,8.556-5.7,10.788-5.312C1057.938,1066.116,1068.38,1069.811,1068.38,1069.811Z" transform="translate(-999.801 -1064.493)" fill="#fff"/>
          <path id="Trazado_13499" data-name="Trazado 13499" d="M998.9,1096.614a1.162,1.162,0,0,1-1.055-1.655c3.274-7.03-2.248-16.951-2.484-17.37a1.167,1.167,0,0,1,.822-1.722c3.348-.561,5.823-1.046,7.155-1.409.949-.261,3.5-.767,7.03-1.467,8.1-1.6,27.083-5.366,29.12-7.391,2.951-2.968,8.859-6.138,11.812-5.635,2.325.436,12.45,4.016,12.879,4.168a1.162,1.162,0,0,1,.776,1.1,9.785,9.785,0,0,1-6.757,9.012c-1.207.4-3.244.085-6.213-.44a23.235,23.235,0,0,0-3.685-.494c-1.106,1.061-4.623,4.135-6.911,5.159-2.48,1.143-33.086,14.7-37.728,16.53-.944.37-2.466.927-4.4,1.558A1.136,1.136,0,0,1,998.9,1096.614Zm-.759-18.719c1.432,2.965,4.12,9.664,2.64,15.687.834-.294,1.522-.552,2.033-.752,4.614-1.816,35.129-15.339,37.613-16.481a31.983,31.983,0,0,0,6.395-4.85c.8-.791,2.286-.57,5.572.012,1.725.306,4.341.77,5.068.524a7.351,7.351,0,0,0,5.088-6.008c-3.345-1.173-10.047-3.468-11.666-3.774-1.563-.282-6.669,1.895-9.747,4.993-2.126,2.113-12.726,4.544-30.315,8.03-3.351.664-6,1.188-6.869,1.428C1002.75,1077.031,1000.8,1077.431,998.142,1077.9Zm50.043-4.568Z" transform="translate(-995.212 -1059.912)" fill="#d3d3d3"/>
        </g>
        <g id="Grupo_8921" data-name="Grupo 8921" transform="translate(21.35 148.716)">
          <path id="Trazado_13500" data-name="Trazado 13500" d="M820.974,995.306l-.016.016c-3.015,1.01-7.024,2.249-11.2,3.308-6.421,1.646-13.232,2.868-17.453,2.265-7.138-1.01-19.507-26.074-20.126-46.021-.6-19.979,10.511-20.436,10.511-20.436,11-1.027,14.748,9.843,17.812,18.187,3.048,8.344,7.008,25.879,7.008,25.879s.962-.13,2.445-.342c2.151-.31,5.394-.782,8.491-1.287C818.725,977.363,824.527,987.679,820.974,995.306Z" transform="translate(-770.995 -933.202)" fill="#fff"/>
          <path id="Trazado_13501" data-name="Trazado 13501" d="M790.155,997.608a18.318,18.318,0,0,1-2.6-.167c-8.489-1.2-20.534-28.076-21.125-47.137-.631-20.892,11.126-21.616,11.627-21.638,11.578-1.07,15.745,10.2,18.765,18.44l.188.512c2.645,7.239,5.9,21.047,6.81,24.978l1.384-.194c2.145-.309,5.379-.779,8.468-1.285a1.167,1.167,0,0,1,1.2.576c.653,1.158,6.276,11.534,2.566,19.5a1.184,1.184,0,0,1-.232.334l-.015.015a1.161,1.161,0,0,1-.453.279c-2.651.888-6.758,2.186-11.28,3.331C800.844,996.332,794.8,997.608,790.155,997.608Zm-10.637-66.68c-.424,0-.858.021-1.308.061s-10.012.779-9.455,19.243c.617,19.928,12.933,44.027,19.126,44.906,3.476.5,9.344-.282,17-2.243,4.191-1.064,8.022-2.258,10.637-3.122,2.446-5.99-1.085-13.832-2.3-16.224-2.845.458-5.722.876-7.687,1.158l-2.454.346a1.184,1.184,0,0,1-1.291-.9c-.039-.176-3.979-17.561-6.964-25.736l-.188-.512C791.707,939.925,788.408,930.928,779.518,930.928ZM816.382,990.7h0Z" transform="translate(-766.403 -928.596)" fill="#bfbfbf"/>
        </g>
      </g>
    </g>
  </g>
</svg>
