<svg xmlns="http://www.w3.org/2000/svg" width="429.987" height="442.41" viewBox="0 0 429.987 442.41">
  <g id="Grupo_8387" data-name="Grupo 8387" transform="translate(-335.013 -2356.59)">
    <circle id="Elipse_539" data-name="Elipse 539" cx="194.5" cy="194.5" r="194.5" transform="translate(376 2410)" fill="#fed97b"/>
    <g id="Grupo_8385" data-name="Grupo 8385" transform="translate(434.286 2507.18)">
      <path id="Trazado_12605" data-name="Trazado 12605" d="M344.817,417.161a3.789,3.789,0,0,1-3.789-3.789V366.651a3.789,3.789,0,0,1,7.577,0v46.722A3.789,3.789,0,0,1,344.817,417.161Z" transform="translate(-300.141 -297.263)" fill="#7fbdca"/>
      <path id="Trazado_12606" data-name="Trazado 12606" d="M435.371,407.877a16.746,16.746,0,0,1-16.744-16.744v-22.4a16.744,16.744,0,1,1,33.488,0v22.4A16.744,16.744,0,0,1,435.371,407.877Z" transform="translate(-179.763 -314.123)" fill="#e9e7da"/>
      <path id="Trazado_12607" data-name="Trazado 12607" d="M580.625,368.666V503.325a28.463,28.463,0,0,1-28.483,28.449H353.454A28.435,28.435,0,0,1,325,503.325V478.006a11.091,11.091,0,0,1,11.093-11.1H475.252a18.838,18.838,0,0,0,18.857-18.857V420.005a18.831,18.831,0,0,0-18.857-18.823H424.78a19.489,19.489,0,0,0-19.257,16.525,19.75,19.75,0,0,1-6.6,11.858,19.544,19.544,0,0,1-12.693,4.7H350.089c-9.463,0-15.458-5.863-17.157-17.157l-3.3-24.918c-2.431-18.191,5.33-36.478,20.522-46.74a48.128,48.128,0,0,1,27.151-8.3h171.77A31.521,31.521,0,0,1,580.625,368.666Z" transform="translate(-325.002 -337.15)" fill="#83827a"/>
      <path id="Trazado_12608" data-name="Trazado 12608" d="M502.92,368.666V503.325a28.463,28.463,0,0,1-28.483,28.449H375.093V466.911h22.454A18.838,18.838,0,0,0,416.4,448.054V420.005a18.831,18.831,0,0,0-18.857-18.823H375.093V337.15h96.278A31.521,31.521,0,0,1,502.92,368.666Z" transform="translate(-247.297 -337.15)" fill="#d9d5ca"/>
      <rect id="Rectángulo_2021" data-name="Rectángulo 2021" width="54.67" height="42.71" transform="translate(185.63 89.417)" fill="#cbc0b4"/>
      <rect id="Rectángulo_2022" data-name="Rectángulo 2022" width="54.436" height="44.508" transform="translate(185.896 33.482)" fill="#64b4d2"/>
      <rect id="Rectángulo_2023" data-name="Rectángulo 2023" width="38.512" height="17.024" transform="translate(193.859 41.144)" fill="#466478"/>
      <rect id="Rectángulo_2024" data-name="Rectángulo 2024" width="27.218" height="44.508" transform="translate(213.114 33.482)" fill="#50a0be"/>
      <rect id="Rectángulo_2025" data-name="Rectángulo 2025" width="19.256" height="17.024" transform="translate(213.114 41.144)" fill="#283c50"/>
      <rect id="Rectángulo_2026" data-name="Rectángulo 2026" width="27.185" height="42.71" transform="translate(213.114 89.417)" fill="#beb4aa"/>
      <path id="Trazado_12609" data-name="Trazado 12609" d="M580.625,399.463v7.2a28.463,28.463,0,0,1-28.483,28.449H353.454A28.435,28.435,0,0,1,325,406.66v-7.2Z" transform="translate(-325.002 -240.485)" fill="#64b4d2"/>
      <path id="Trazado_12610" data-name="Trazado 12610" d="M502.92,399.463v7.2a28.463,28.463,0,0,1-28.483,28.449H375.093V399.463Z" transform="translate(-247.297 -240.485)" fill="#50a0be"/>
    </g>
    <g id="Grupo_8386" data-name="Grupo 8386" transform="translate(335.013 2565.554)">
      <path id="Trazado_12611" data-name="Trazado 12611" d="M450.112,434.6v30.633a10.617,10.617,0,0,1-10.042,10.593H429.689a10.6,10.6,0,0,1-10.063-10.593V434.6a10.6,10.6,0,0,1,10.063-10.572,4.944,4.944,0,0,1,.554-.021H439.5a5.319,5.319,0,0,1,.574.021A10.615,10.615,0,0,1,450.112,434.6Z" transform="translate(-393.701 -364.606)" fill="#ffbe46"/>
      <path id="Trazado_12612" data-name="Trazado 12612" d="M440.037,434.6v30.633a10.617,10.617,0,0,1-10.042,10.593h-5.189v-51.82h4.615a5.32,5.32,0,0,1,.574.021A10.615,10.615,0,0,1,440.037,434.6Z" transform="translate(-383.626 -364.606)" fill="#e6a032"/>
      <rect id="Rectángulo_2027" data-name="Rectángulo 2027" width="5.834" height="16.244" transform="translate(47.617 47.21) rotate(-72.808)" fill="#a8826d"/>
      <rect id="Rectángulo_2028" data-name="Rectángulo 2028" width="5.856" height="16.305" transform="translate(52.427 33.976) rotate(-70.335)" fill="#a8826d"/>
      <rect id="Rectángulo_2029" data-name="Rectángulo 2029" width="5.888" height="16.396" transform="matrix(0.376, -0.926, 0.926, 0.376, 57.813, 21.036)" fill="#a8826d"/>
      <rect id="Rectángulo_2030" data-name="Rectángulo 2030" width="5.932" height="16.517" transform="translate(63.762 8.409) rotate(-65.464)" fill="#a8826d"/>
      <rect id="Rectángulo_2031" data-name="Rectángulo 2031" width="16.244" height="5.834" transform="translate(20.025 52.895) rotate(-17.192)" fill="#a8826d"/>
      <rect id="Rectángulo_2032" data-name="Rectángulo 2032" width="16.305" height="5.856" transform="translate(15.766 41.173) rotate(-19.666)" fill="#a8826d"/>
      <rect id="Rectángulo_2033" data-name="Rectángulo 2033" width="16.396" height="5.889" transform="translate(11 29.699) rotate(-22.116)" fill="#a8826d"/>
      <rect id="Rectángulo_2034" data-name="Rectángulo 2034" width="16.517" height="5.932" transform="matrix(0.91, -0.415, 0.415, 0.91, 5.741, 18.485)" fill="#a8826d"/>
      <rect id="Rectángulo_2035" data-name="Rectángulo 2035" width="16.667" height="5.986" transform="matrix(-0.892, 0.453, -0.453, -0.892, 17.571, 5.337)" fill="#a8826d"/>
      <path id="Trazado_12613" data-name="Trazado 12613" d="M456.21,440.016a10.1,10.1,0,0,0-10.039-9.277H432.255a10.081,10.081,0,0,0-10.039,9.277l-4.786,59.011a10.089,10.089,0,0,0,10.06,10.893h23.445a10.059,10.059,0,0,0,10.039-10.893Zm-26.888,3.042a5.407,5.407,0,0,1,5.4-4.98H443.7a5.424,5.424,0,0,1,5.4,4.98l.721,8.911a5.417,5.417,0,0,1-5.4,5.852H434a5.417,5.417,0,0,1-5.4-5.852ZM448.04,502.6H430.365a5.435,5.435,0,0,1-5.4-5.872l1.1-13.635a5.441,5.441,0,0,1,5.4-4.98h15.467a5.41,5.41,0,0,1,5.4,4.98l1.1,13.635A5.423,5.423,0,0,1,448.04,502.6Z" transform="translate(-398.035 -351.513)" fill="#ffdc64"/>
      <path id="Trazado_12614" data-name="Trazado 12614" d="M433.424,424.028v36.143a5.19,5.19,0,0,1-10.381,0V424.028a4.944,4.944,0,0,1,.554-.021h9.253A5.32,5.32,0,0,1,433.424,424.028Z" transform="translate(-387.055 -364.606)" fill="#ffdc64"/>
      <path id="Trazado_12615" data-name="Trazado 12615" d="M446.566,499.027a10.059,10.059,0,0,1-10.039,10.893H424.806V502.6h8.826a5.423,5.423,0,0,0,5.4-5.872l-1.1-13.635a5.41,5.41,0,0,0-5.4-4.98h-7.722V457.821h5.21a5.417,5.417,0,0,0,5.4-5.852l-.721-8.911a5.424,5.424,0,0,0-5.4-4.98h-4.488v-7.339h6.956a10.1,10.1,0,0,1,10.039,9.277Z" transform="translate(-383.626 -351.513)" fill="#ffbe46"/>
      <path id="Trazado_12616" data-name="Trazado 12616" d="M429.995,424.028v36.143a5.2,5.2,0,0,1-5.189,5.189V424.007h4.615A5.32,5.32,0,0,1,429.995,424.028Z" transform="translate(-383.626 -364.606)" fill="#ffbe46"/>
    </g>
    <g id="Grupo_7647" data-name="Grupo 7647" transform="translate(481 2356.59)">
      <circle id="Elipse_511" data-name="Elipse 511" cx="57.232" cy="57.232" r="57.232" transform="translate(108.884 80.938) rotate(-45)" opacity="0.15"/>
      <g id="Grupo_7540" data-name="Grupo 7540" transform="translate(127.414 18.531)">
        <circle id="Elipse_512" data-name="Elipse 512" cx="54.087" cy="54.087" r="54.087" transform="matrix(0.993, -0.122, 0.122, 0.993, 0, 13.172)" fill="#baae97"/>
        <path id="Trazado_11517" data-name="Trazado 11517" d="M229.349,18.683a54.087,54.087,0,0,0-26.678,90.187,42.292,42.292,0,0,1,1.523-5.3c12.5-34.8,45.472-54.986,78.418-67.516A54.068,54.068,0,0,0,229.349,18.683Z" transform="translate(-181.363 -11.085)" fill="#c4b7a0"/>
        <path id="Trazado_11518" data-name="Trazado 11518" d="M227.368,14.351A57.232,57.232,0,1,0,296.1,57.089,57.3,57.3,0,0,0,227.368,14.351ZM251.937,119.7a50.942,50.942,0,1,1,38.04-61.182A51,51,0,0,1,251.937,119.7Z" transform="translate(-180.096 -9.817)" fill="#fff0d5"/>
      </g>
      <g id="Grupo_7541" data-name="Grupo 7541" transform="translate(152.778 32.654)" opacity="0.15">
        <path id="Trazado_11519" data-name="Trazado 11519" d="M285.573,106.235a15.665,15.665,0,1,0,18.813,11.7A15.683,15.683,0,0,0,285.573,106.235Z" transform="translate(-231.447 -50.687)"/>
        <path id="Trazado_11520" data-name="Trazado 11520" d="M310.832,69.835A14.564,14.564,0,0,0,308.7,67.8c-.024-.019-.044-.039-.068-.057-.354-.271-.725-.524-1.108-.764-.059-.038-.113-.08-.172-.117a14.9,14.9,0,0,0-1.372-.744,14.67,14.67,0,0,0-19.429,6.632c-.1-.053-.2-.114-.3-.164a8.84,8.84,0,1,0,1.306,15.2,14.721,14.721,0,1,0,23.284-17.951Z" transform="translate(-231.49 -38.854)"/>
        <path id="Trazado_11521" data-name="Trazado 11521" d="M245.408,87.756A20.243,20.243,0,0,0,219.4,118.179,13.926,13.926,0,0,0,247.053,121a20.244,20.244,0,0,0-1.645-33.241Z" transform="translate(-214.478 -44.611)"/>
        <path id="Trazado_11522" data-name="Trazado 11522" d="M261.267,34.3l-.189-.2c-.231-.244-.467-.484-.712-.714-.03-.028-.059-.059-.09-.088-.274-.256-.557-.5-.846-.739-.066-.055-.133-.107-.2-.16q-.366-.293-.746-.566c-.061-.043-.12-.088-.18-.131q-.456-.321-.931-.611c-.061-.037-.122-.071-.183-.108q-.4-.239-.813-.458c-.081-.042-.16-.085-.241-.127-.331-.169-.667-.331-1.008-.479l-.1-.039c-.312-.134-.628-.257-.948-.373-.091-.033-.182-.066-.274-.1-.328-.113-.659-.219-.994-.313-.027-.008-.053-.017-.08-.024-.359-.1-.723-.185-1.089-.262-.095-.02-.19-.038-.286-.057q-.458-.089-.922-.155c-.073-.01-.146-.023-.219-.032-.371-.048-.745-.083-1.12-.107-.088-.006-.176-.009-.264-.013q-.462-.024-.927-.022c-.095,0-.19,0-.286,0-.38.006-.763.024-1.146.055-.063,0-.126.014-.189.019q-.494.046-.989.12l-.315.048c-.388.065-.777.137-1.166.228a18.277,18.277,0,0,0-1.779.511q-.868.3-1.686.675c-.274.125-.542.258-.806.4q-.794.415-1.534.9-.371.243-.727.5-.712.518-1.366,1.1t-1.247,1.221a18.142,18.142,0,0,0-2.1,2.758q-.23.369-.441.747c-.021.039-.041.08-.063.119A8.837,8.837,0,1,0,230.8,52.311c.011.033.021.067.033.1.033.094.069.184.1.277.072.2.143.4.222.592.036.088.076.173.112.261.083.2.166.393.256.586.036.077.075.152.112.229.1.2.192.4.295.591.036.068.075.133.111.2.109.2.219.4.335.6.033.056.07.111.1.167.124.2.249.4.381.6.03.046.063.09.093.135.139.205.281.408.428.607.026.036.053.069.08.1.155.207.313.41.477.608.021.026.044.052.066.078.171.205.345.407.524.6.016.018.033.034.048.052q.281.306.574.6l.033.031q.3.3.619.586l.02.017q.324.292.661.566l.006,0A18.08,18.08,0,0,0,261.267,34.3Z" transform="translate(-215.376 -28.419)"/>
        <path id="Trazado_11523" data-name="Trazado 11523" d="M298.244,39.156a8.84,8.84,0,1,0,5.131,11.4A8.85,8.85,0,0,0,298.244,39.156Z" transform="translate(-235.13 -31.343)"/>
      </g>
      <g id="Grupo_7646" data-name="Grupo 7646" transform="translate(142.768 24.566)">
        <g id="Grupo_7554" data-name="Grupo 7554" transform="translate(46.502 57.699)">
          <g id="Grupo_7544" data-name="Grupo 7544" transform="translate(0 0)">
            <g id="Grupo_7542" data-name="Grupo 7542">
              <circle id="Elipse_513" data-name="Elipse 513" cx="14.479" cy="14.479" r="14.479" transform="matrix(0.399, -0.917, 0.917, 0.399, 0, 26.552)" fill="#784c4a"/>
            </g>
            <g id="Grupo_7543" data-name="Grupo 7543" transform="translate(3.388 3.389)">
              <path id="Trazado_11524" data-name="Trazado 11524" d="M282.573,103.235a15.665,15.665,0,1,0,18.813,11.7A15.683,15.683,0,0,0,282.573,103.235Zm6.578,28.2a13.294,13.294,0,1,1,9.927-15.966A13.309,13.309,0,0,1,289.15,131.436Z" transform="translate(-270.464 -102.823)" fill="#93706e"/>
            </g>
          </g>
          <g id="Grupo_7553" data-name="Grupo 7553" transform="translate(10.905 11.226)">
            <g id="Grupo_7546" data-name="Grupo 7546" transform="translate(0 1.939)">
              <g id="Grupo_7545" data-name="Grupo 7545">
                <path id="Trazado_11525" data-name="Trazado 11525" d="M283.216,116.623a2.845,2.845,0,1,0,3.417,2.124A2.845,2.845,0,0,0,283.216,116.623Z" transform="translate(-281.016 -116.547)" fill="#5f3d39"/>
              </g>
            </g>
            <g id="Grupo_7548" data-name="Grupo 7548" transform="translate(8.313)">
              <g id="Grupo_7547" data-name="Grupo 7547">
                <path id="Trazado_11526" data-name="Trazado 11526" d="M294.886,113.9a2.845,2.845,0,1,0,3.417,2.124A2.845,2.845,0,0,0,294.886,113.9Z" transform="translate(-292.686 -113.826)" fill="#5f3d39"/>
              </g>
            </g>
            <g id="Grupo_7550" data-name="Grupo 7550" transform="translate(1.831 9.789)">
              <g id="Grupo_7549" data-name="Grupo 7549">
                <path id="Trazado_11527" data-name="Trazado 11527" d="M285.786,127.644a2.845,2.845,0,1,0,3.418,2.125A2.845,2.845,0,0,0,285.786,127.644Z" transform="translate(-283.587 -127.569)" fill="#5f3d39"/>
              </g>
            </g>
            <g id="Grupo_7552" data-name="Grupo 7552" transform="translate(10.144 7.851)">
              <g id="Grupo_7551" data-name="Grupo 7551">
                <path id="Trazado_11528" data-name="Trazado 11528" d="M297.456,124.922a2.845,2.845,0,1,0,3.417,2.125A2.845,2.845,0,0,0,297.456,124.922Z" transform="translate(-295.257 -124.847)" fill="#5f3d39"/>
              </g>
            </g>
          </g>
        </g>
        <g id="Grupo_7570" data-name="Grupo 7570" transform="translate(59.969 30.446)">
          <g id="Grupo_7556" data-name="Grupo 7556" transform="translate(0 0)">
            <g id="Grupo_7555" data-name="Grupo 7555">
              <circle id="Elipse_514" data-name="Elipse 514" cx="14.73" cy="14.73" r="14.73" transform="translate(0 2.825) rotate(-5.504)" fill="#ec666b"/>
            </g>
          </g>
          <g id="Grupo_7558" data-name="Grupo 7558" transform="translate(1.343 1.341)">
            <g id="Grupo_7557" data-name="Grupo 7557">
              <path id="Trazado_11529" data-name="Trazado 11529" d="M307.546,63.116a14.727,14.727,0,0,0-18.111,22.123,25.711,25.711,0,0,1,6.008-8.29A49.954,49.954,0,0,1,312.4,66.835,14.664,14.664,0,0,0,307.546,63.116Z" transform="translate(-286.5 -61.69)" fill="#ef7c7f"/>
            </g>
          </g>
          <g id="Grupo_7560" data-name="Grupo 7560" transform="translate(3.267 3.267)">
            <g id="Grupo_7559" data-name="Grupo 7559">
              <path id="Trazado_11530" data-name="Trazado 11530" d="M307.5,65.63a12.808,12.808,0,1,0,6.08,17.063A12.823,12.823,0,0,0,307.5,65.63Zm5.308,16.7A11.954,11.954,0,1,1,307.133,66.4,11.968,11.968,0,0,1,312.807,82.327Z" transform="translate(-289.2 -64.394)" fill="#f08588"/>
            </g>
          </g>
          <g id="Grupo_7569" data-name="Grupo 7569" transform="translate(8.779 8.371)">
            <g id="Grupo_7562" data-name="Grupo 7562" transform="translate(9.852 3.112)">
              <g id="Grupo_7561" data-name="Grupo 7561">
                <path id="Trazado_11531" data-name="Trazado 11531" d="M314.43,76.176a2.561,2.561,0,1,0,1.216,3.412A2.561,2.561,0,0,0,314.43,76.176Z" transform="translate(-310.769 -75.928)" fill="#b14d50"/>
              </g>
            </g>
            <g id="Grupo_7564" data-name="Grupo 7564" transform="translate(6.557 10.055)">
              <g id="Grupo_7563" data-name="Grupo 7563">
                <path id="Trazado_11532" data-name="Trazado 11532" d="M309.8,85.922a2.562,2.562,0,1,0,1.216,3.413A2.563,2.563,0,0,0,309.8,85.922Z" transform="translate(-306.143 -85.674)" fill="#b14d50"/>
              </g>
            </g>
            <g id="Grupo_7566" data-name="Grupo 7566" transform="translate(3.295)">
              <g id="Grupo_7565" data-name="Grupo 7565">
                <path id="Trazado_11533" data-name="Trazado 11533" d="M305.225,71.807a2.561,2.561,0,1,0,1.216,3.413A2.561,2.561,0,0,0,305.225,71.807Z" transform="translate(-301.564 -71.559)" fill="#b14d50"/>
              </g>
            </g>
            <g id="Grupo_7568" data-name="Grupo 7568" transform="translate(0 6.943)">
              <g id="Grupo_7567" data-name="Grupo 7567">
                <path id="Trazado_11534" data-name="Trazado 11534" d="M300.6,81.553a2.562,2.562,0,1,0,1.216,3.413A2.563,2.563,0,0,0,300.6,81.553Z" transform="translate(-296.938 -81.305)" fill="#b14d50"/>
              </g>
            </g>
          </g>
        </g>
        <g id="Grupo_7582" data-name="Grupo 7582" transform="translate(16.39 0)">
          <g id="Grupo_7572" data-name="Grupo 7572" transform="translate(0)">
            <g id="Grupo_7571" data-name="Grupo 7571">
              <circle id="Elipse_515" data-name="Elipse 515" cx="18.082" cy="18.082" r="18.082" transform="translate(0 32.773) rotate(-64.988)" fill="#47bec3"/>
            </g>
          </g>
          <g id="Grupo_7574" data-name="Grupo 7574" transform="translate(5.946 5.945)">
            <g id="Grupo_7573" data-name="Grupo 7573">
              <path id="Trazado_11535" data-name="Trazado 11535" d="M245.761,25.888a18.078,18.078,0,0,0-5.141,33.143c1.6-10.136,8.192-18.109,16.347-24.386a12.142,12.142,0,0,1,6.981-2.5A18.081,18.081,0,0,0,245.761,25.888Z" transform="translate(-231.782 -25.412)" fill="#5ec7cb"/>
            </g>
          </g>
          <g id="Grupo_7576" data-name="Grupo 7576" transform="translate(8.307 8.306)">
            <g id="Grupo_7575" data-name="Grupo 7575">
              <path id="Trazado_11536" data-name="Trazado 11536" d="M247.251,29.139A15.723,15.723,0,1,0,266.135,40.88,15.741,15.741,0,0,0,247.251,29.139Zm6.9,29.6a14.675,14.675,0,1,1,10.959-17.625A14.691,14.691,0,0,1,254.155,58.743Z" transform="translate(-235.096 -28.726)" fill="#94d9dc"/>
            </g>
          </g>
          <g id="Grupo_7581" data-name="Grupo 7581" transform="translate(15.024 17.521)">
            <g id="Grupo_7578" data-name="Grupo 7578">
              <g id="Grupo_7577" data-name="Grupo 7577">
                <path id="Trazado_11537" data-name="Trazado 11537" d="M246.957,41.745a3.145,3.145,0,1,0,3.777,2.348A3.144,3.144,0,0,0,246.957,41.745Z" transform="translate(-244.527 -41.663)" fill="#007c81"/>
              </g>
            </g>
            <g id="Grupo_7580" data-name="Grupo 7580" transform="translate(11.211 6.534)">
              <g id="Grupo_7579" data-name="Grupo 7579">
                <path id="Trazado_11538" data-name="Trazado 11538" d="M262.7,50.919a3.145,3.145,0,1,0,3.777,2.349A3.145,3.145,0,0,0,262.7,50.919Z" transform="translate(-260.266 -50.836)" fill="#007c81"/>
              </g>
            </g>
          </g>
        </g>
        <g id="Grupo_7596" data-name="Grupo 7596" transform="translate(0 38.169)">
          <g id="Grupo_7584" data-name="Grupo 7584">
            <g id="Grupo_7583" data-name="Grupo 7583">
              <circle id="Elipse_516" data-name="Elipse 516" cx="20.24" cy="20.24" r="20.24" transform="matrix(0.827, -0.562, 0.562, 0.827, 0, 22.749)" fill="#f1894c"/>
            </g>
          </g>
          <g id="Grupo_7586" data-name="Grupo 7586" transform="translate(10.509 10.51)">
            <g id="Grupo_7585" data-name="Grupo 7585">
              <path id="Trazado_11539" data-name="Trazado 11539" d="M242.079,88.063a17.6,17.6,0,1,0,7.847,10.949A17.484,17.484,0,0,0,242.079,88.063Zm4.656,23.62a16.425,16.425,0,1,1,2.048-12.4A16.318,16.318,0,0,1,246.735,111.683Z" transform="translate(-215.178 -85.403)" fill="#f6b087"/>
            </g>
          </g>
          <g id="Grupo_7595" data-name="Grupo 7595" transform="translate(17.353 17.292)">
            <g id="Grupo_7588" data-name="Grupo 7588" transform="translate(5.266)">
              <g id="Grupo_7587" data-name="Grupo 7587">
                <path id="Trazado_11540" data-name="Trazado 11540" d="M237.559,95.455a3.52,3.52,0,1,0,1.13,4.848A3.52,3.52,0,0,0,237.559,95.455Z" transform="translate(-232.179 -94.924)" fill="#b56739"/>
              </g>
            </g>
            <g id="Grupo_7590" data-name="Grupo 7590" transform="translate(14.234 5.576)">
              <g id="Grupo_7589" data-name="Grupo 7589">
                <path id="Trazado_11541" data-name="Trazado 11541" d="M250.148,103.283a3.52,3.52,0,1,0,1.131,4.847A3.52,3.52,0,0,0,250.148,103.283Z" transform="translate(-244.768 -102.752)" fill="#b56739"/>
              </g>
            </g>
            <g id="Grupo_7592" data-name="Grupo 7592" transform="translate(0 8.47)">
              <g id="Grupo_7591" data-name="Grupo 7591">
                <path id="Trazado_11542" data-name="Trazado 11542" d="M230.166,107.346a3.52,3.52,0,1,0,1.13,4.848A3.521,3.521,0,0,0,230.166,107.346Z" transform="translate(-224.786 -106.814)" fill="#b56739"/>
              </g>
            </g>
            <g id="Grupo_7594" data-name="Grupo 7594" transform="translate(8.968 14.046)">
              <g id="Grupo_7593" data-name="Grupo 7593">
                <path id="Trazado_11543" data-name="Trazado 11543" d="M242.755,115.174a3.52,3.52,0,1,0,1.131,4.848A3.52,3.52,0,0,0,242.755,115.174Z" transform="translate(-237.376 -114.642)" fill="#b56739"/>
              </g>
            </g>
          </g>
        </g>
        <g id="Grupo_7609" data-name="Grupo 7609" transform="translate(49.996 38.829)">
          <g id="Grupo_7599" data-name="Grupo 7599">
            <g id="Grupo_7597" data-name="Grupo 7597" transform="translate(0.666 0.667)">
              <path id="Trazado_11544" data-name="Trazado 11544" d="M283.224,73.3A8.171,8.171,0,1,0,287.1,84.188,8.171,8.171,0,0,0,283.224,73.3Z" transform="translate(-271.548 -72.511)" fill="#47bec3"/>
            </g>
            <g id="Grupo_7598" data-name="Grupo 7598">
              <path id="Trazado_11545" data-name="Trazado 11545" d="M283.242,72.428a8.84,8.84,0,1,0,4.2,11.778A8.851,8.851,0,0,0,283.242,72.428Zm2.987,11.2a7.5,7.5,0,1,1-3.561-9.995A7.511,7.511,0,0,1,286.23,83.632Z" transform="translate(-270.612 -71.575)" fill="#abe1e4"/>
            </g>
          </g>
          <g id="Grupo_7608" data-name="Grupo 7608" transform="translate(4.267 4.011)">
            <g id="Grupo_7601" data-name="Grupo 7601" transform="translate(6.175 1.95)">
              <g id="Grupo_7600" data-name="Grupo 7600">
                <path id="Trazado_11546" data-name="Trazado 11546" d="M287.566,80.1a1.606,1.606,0,1,0,.762,2.139A1.605,1.605,0,0,0,287.566,80.1Z" transform="translate(-285.272 -79.945)" fill="#007c81"/>
              </g>
            </g>
            <g id="Grupo_7603" data-name="Grupo 7603" transform="translate(4.11 6.303)">
              <g id="Grupo_7602" data-name="Grupo 7602">
                <path id="Trazado_11547" data-name="Trazado 11547" d="M284.666,86.21a1.606,1.606,0,1,0,.762,2.138A1.606,1.606,0,0,0,284.666,86.21Z" transform="translate(-282.372 -86.055)" fill="#007c81"/>
              </g>
            </g>
            <g id="Grupo_7605" data-name="Grupo 7605" transform="translate(2.065)">
              <g id="Grupo_7604" data-name="Grupo 7604">
                <path id="Trazado_11548" data-name="Trazado 11548" d="M281.8,77.362a1.606,1.606,0,1,0,.762,2.139A1.605,1.605,0,0,0,281.8,77.362Z" transform="translate(-279.502 -77.207)" fill="#007c81"/>
              </g>
            </g>
            <g id="Grupo_7607" data-name="Grupo 7607" transform="translate(0 4.352)">
              <g id="Grupo_7606" data-name="Grupo 7606">
                <path id="Trazado_11549" data-name="Trazado 11549" d="M278.9,83.471a1.606,1.606,0,1,0,.762,2.139A1.606,1.606,0,0,0,278.9,83.471Z" transform="translate(-276.602 -83.316)" fill="#007c81"/>
              </g>
            </g>
          </g>
        </g>
        <g id="Grupo_7622" data-name="Grupo 7622" transform="translate(10.096 13.318)">
          <g id="Grupo_7612" data-name="Grupo 7612">
            <g id="Grupo_7610" data-name="Grupo 7610" transform="translate(0.667 0.667)">
              <path id="Trazado_11550" data-name="Trazado 11550" d="M226.606,37.233a8.171,8.171,0,1,0,4.743,10.538A8.17,8.17,0,0,0,226.606,37.233Z" transform="translate(-215.535 -36.699)" fill="#f1894c"/>
            </g>
            <g id="Grupo_7611" data-name="Grupo 7611">
              <path id="Trazado_11551" data-name="Trazado 11551" d="M226.574,36.337a8.841,8.841,0,1,0,5.131,11.4A8.852,8.852,0,0,0,226.574,36.337Zm3.879,10.926a7.5,7.5,0,1,1-4.354-9.675A7.51,7.51,0,0,1,230.454,47.263Z" transform="translate(-214.598 -35.762)" fill="#784c4a"/>
            </g>
          </g>
          <g id="Grupo_7621" data-name="Grupo 7621" transform="translate(4.095 4.139)">
            <g id="Grupo_7614" data-name="Grupo 7614" transform="translate(1.613)">
              <g id="Grupo_7613" data-name="Grupo 7613">
                <path id="Trazado_11552" data-name="Trazado 11552" d="M224.787,41.678a1.606,1.606,0,1,0,.932,2.071A1.605,1.605,0,0,0,224.787,41.678Z" transform="translate(-222.612 -41.573)" fill="#b56739"/>
              </g>
            </g>
            <g id="Grupo_7616" data-name="Grupo 7616" transform="translate(6.118 1.708)">
              <g id="Grupo_7615" data-name="Grupo 7615">
                <path id="Trazado_11553" data-name="Trazado 11553" d="M231.11,44.076a1.606,1.606,0,1,0,.932,2.071A1.605,1.605,0,0,0,231.11,44.076Z" transform="translate(-228.935 -43.971)" fill="#b56739"/>
              </g>
            </g>
            <g id="Grupo_7618" data-name="Grupo 7618" transform="translate(0 4.254)">
              <g id="Grupo_7617" data-name="Grupo 7617">
                <path id="Trazado_11554" data-name="Trazado 11554" d="M222.522,47.649a1.606,1.606,0,1,0,.932,2.071A1.606,1.606,0,0,0,222.522,47.649Z" transform="translate(-220.347 -47.544)" fill="#b56739"/>
              </g>
            </g>
            <g id="Grupo_7620" data-name="Grupo 7620" transform="translate(4.504 5.962)">
              <g id="Grupo_7619" data-name="Grupo 7619">
                <path id="Trazado_11555" data-name="Trazado 11555" d="M228.845,50.048a1.605,1.605,0,1,0,.932,2.071A1.605,1.605,0,0,0,228.845,50.048Z" transform="translate(-226.67 -49.943)" fill="#b56739"/>
              </g>
            </g>
          </g>
        </g>
        <g id="Grupo_7635" data-name="Grupo 7635" transform="translate(59.011 13.189)">
          <g id="Grupo_7625" data-name="Grupo 7625">
            <g id="Grupo_7623" data-name="Grupo 7623" transform="translate(0.667 0.667)">
              <path id="Trazado_11556" data-name="Trazado 11556" d="M295.276,37.051a8.171,8.171,0,1,0,4.743,10.538A8.171,8.171,0,0,0,295.276,37.051Z" transform="translate(-284.205 -36.517)" fill="#f1894c"/>
            </g>
            <g id="Grupo_7624" data-name="Grupo 7624">
              <path id="Trazado_11557" data-name="Trazado 11557" d="M295.244,36.156a8.84,8.84,0,1,0,5.131,11.4A8.85,8.85,0,0,0,295.244,36.156Zm3.88,10.926a7.5,7.5,0,1,1-4.354-9.676A7.512,7.512,0,0,1,299.124,47.082Z" transform="translate(-283.268 -35.581)" fill="#784c4a"/>
            </g>
          </g>
          <g id="Grupo_7634" data-name="Grupo 7634" transform="translate(4.095 4.139)">
            <g id="Grupo_7627" data-name="Grupo 7627" transform="translate(1.613)">
              <g id="Grupo_7626" data-name="Grupo 7626">
                <path id="Trazado_11558" data-name="Trazado 11558" d="M293.457,41.5a1.606,1.606,0,1,0,.932,2.071A1.606,1.606,0,0,0,293.457,41.5Z" transform="translate(-291.282 -41.391)" fill="#b56739"/>
              </g>
            </g>
            <g id="Grupo_7629" data-name="Grupo 7629" transform="translate(6.117 1.708)">
              <g id="Grupo_7628" data-name="Grupo 7628">
                <path id="Trazado_11559" data-name="Trazado 11559" d="M299.78,43.894a1.606,1.606,0,1,0,.932,2.071A1.606,1.606,0,0,0,299.78,43.894Z" transform="translate(-297.605 -43.789)" fill="#b56739"/>
              </g>
            </g>
            <g id="Grupo_7631" data-name="Grupo 7631" transform="translate(0 4.254)">
              <g id="Grupo_7630" data-name="Grupo 7630">
                <path id="Trazado_11560" data-name="Trazado 11560" d="M291.192,47.468a1.606,1.606,0,1,0,.932,2.071A1.605,1.605,0,0,0,291.192,47.468Z" transform="translate(-289.017 -47.363)" fill="#b56739"/>
              </g>
            </g>
            <g id="Grupo_7633" data-name="Grupo 7633" transform="translate(4.504 5.962)">
              <g id="Grupo_7632" data-name="Grupo 7632">
                <path id="Trazado_11561" data-name="Trazado 11561" d="M297.515,49.866a1.606,1.606,0,1,0,.932,2.071A1.606,1.606,0,0,0,297.515,49.866Z" transform="translate(-295.34 -49.761)" fill="#b56739"/>
              </g>
            </g>
          </g>
        </g>
        <g id="Grupo_7645" data-name="Grupo 7645" transform="translate(12.774 66.091)">
          <g id="Grupo_7639" data-name="Grupo 7639">
            <g id="Grupo_7636" data-name="Grupo 7636" transform="translate(0.485 0.485)">
              <circle id="Elipse_517" data-name="Elipse 517" cx="12.88" cy="12.88" r="12.88" transform="translate(0 1.166) rotate(-2.594)" fill="#47bec3"/>
            </g>
            <g id="Grupo_7637" data-name="Grupo 7637" transform="translate(1.053 1.052)">
              <path id="Trazado_11562" data-name="Trazado 11562" d="M237.286,112.165a12.876,12.876,0,0,0-13.279,21.521,31.4,31.4,0,0,1,19.3-16.8A12.812,12.812,0,0,0,237.286,112.165Z" transform="translate(-219.837 -111.324)" fill="#73ced1"/>
            </g>
            <g id="Grupo_7638" data-name="Grupo 7638">
              <path id="Trazado_11563" data-name="Trazado 11563" d="M237.235,110.754a13.935,13.935,0,1,0,8.088,17.971A13.951,13.951,0,0,0,237.235,110.754Zm6.115,17.223a11.826,11.826,0,1,1-6.863-15.251A11.839,11.839,0,0,1,243.35,127.977Z" transform="translate(-218.358 -109.848)" fill="#abe1e4"/>
            </g>
          </g>
          <g id="Grupo_7644" data-name="Grupo 7644" transform="translate(8.998 6.524)">
            <g id="Grupo_7641" data-name="Grupo 7641">
              <g id="Grupo_7640" data-name="Grupo 7640">
                <path id="Trazado_11564" data-name="Trazado 11564" d="M234.419,119.171a2.531,2.531,0,1,0,1.469,3.264A2.531,2.531,0,0,0,234.419,119.171Z" transform="translate(-230.989 -119.006)" fill="#007c81"/>
              </g>
            </g>
            <g id="Grupo_7643" data-name="Grupo 7643" transform="translate(4.557 9.398)">
              <g id="Grupo_7642" data-name="Grupo 7642">
                <path id="Trazado_11565" data-name="Trazado 11565" d="M240.815,132.364a2.531,2.531,0,1,0,1.469,3.264A2.531,2.531,0,0,0,240.815,132.364Z" transform="translate(-237.386 -132.199)" fill="#007c81"/>
              </g>
            </g>
          </g>
        </g>
      </g>
    </g>
  </g>
</svg>
